<svg xmlns="http://www.w3.org/2000/svg" width="200" height="200" viewBox="0 0 386 343">
    <g fill="none" fill-rule="evenodd">
        <path fill="#6EC0B0" fill-rule="nonzero" d="M174.005 97.176a2 2 0 0 1 0 4h-1a2 2 0 0 1 0-4h1zm10.522-3.295a2 2 0 0 1-.067 4l-1-.017a2 2 0 0 1 .067-4l1 .017zm10.581-3.118a2 2 0 1 1-.134 3.997l-1-.033a2 2 0 0 1 .135-3.998l1 .034h-.001zm10.63-2.936a2 2 0 1 1-.204 3.995l-.998-.05a2 2 0 1 1 .203-3.996l1 .051h-.001zm10.676-2.745a2 2 0 1 1-.275 3.99l-.998-.069a2 2 0 1 1 .276-3.99l.997.069zm10.738-2.553a2 2 0 0 1-.35 3.984l-.996-.087a2 2 0 1 1 .35-3.985l.996.088zm10.781-2.347a2 2 0 1 1-.426 3.977l-.995-.107a2 2 0 1 1 .427-3.977l.994.107zm10.825-2.13a2 2 0 0 1-.508 3.968l-.991-.127a2 2 0 1 1 .507-3.968l.992.127zm10.868-1.898a2 2 0 1 1-.594 3.955l-.99-.148a2 2 0 0 1 .595-3.956l.99.149h-.001zm10.914-1.65a2 2 0 0 1-.687 3.94l-.985-.171a2 2 0 1 1 .687-3.94l.986.171h-.001zm10.96-1.377a2 2 0 1 1-.79 3.921l-.98-.197a2 2 0 0 1 .79-3.922l.98.198zM63.124 145.795a2 2 0 0 1 .9 3.897l-.974.225a2 2 0 0 1-.9-3.897l.974-.225zm9.58-5.513a2 2 0 1 1 .788 3.921l-.98.197a2 2 0 1 1-.788-3.921l.98-.197zm9.724-5.255a2 2 0 0 1 .687 3.94l-.985.172a2 2 0 1 1-.687-3.94l.985-.172zm9.84-5.013a2 2 0 1 1 .594 3.956l-.99.148a2 2 0 1 1-.593-3.955l.99-.149h-.001zm9.95-4.791a2 2 0 1 1 .507 3.968l-.992.127a2 2 0 1 1-.507-3.968l.992-.127zm10.049-4.582a2 2 0 0 1 .425 3.977l-.994.107a2 2 0 1 1-.426-3.978l.995-.106zm10.122-4.376a2 2 0 1 1 .348 3.984l-.996.088a2 2 0 1 1-.348-3.985l.996-.087zm10.215-4.191a2 2 0 1 1 .274 3.99l-.997.07a2 2 0 0 1-.275-3.991l.998-.069zm10.283-4.002a2 2 0 1 1 .203 3.995l-1 .05a2 2 0 0 1-.202-3.994l.999-.051zm10.351-3.822a2 2 0 0 1 .134 3.998l-1 .033a2 2 0 0 1-.133-3.997l.999-.034zm10.418-3.645a2 2 0 0 1 .066 4l-1 .016a2 2 0 0 1-.066-4l1-.016zM53.701 151.6a2 2 0 0 1 1.028 3.865l-.967.257a2 2 0 0 1-1.027-3.866l.966-.257v.001z"/>
        <path fill="#6EC0B0" fill-rule="nonzero" d="M149.525 199.86a2 2 0 1 1 3.464-2l.5.867a2 2 0 0 1-3.464 2l-.5-.866v-.001zm-8.115-7.464a2 2 0 0 1 3.498-1.942l.485.874a2 2 0 1 1-3.497 1.942l-.485-.874h-.001zm-7.99-7.604a2 2 0 1 1 3.529-1.883l.47.883a2 2 0 1 1-3.53 1.882l-.47-.882h.001zm-7.858-7.739a2 2 0 1 1 3.562-1.82l.455.89a2 2 0 0 1-3.561 1.82l-.456-.89zm-7.716-7.873a2 2 0 1 1 3.594-1.756l.44.898a2 2 0 1 1-3.594 1.757l-.44-.899zm-7.579-8.022a2 2 0 0 1 3.625-1.69l.423.907a2 2 0 0 1-3.626 1.69l-.422-.907zm-7.424-8.164a2 2 0 0 1 3.658-1.619l.405.915a2 2 0 0 1-3.658 1.619l-.405-.915zm-7.257-8.309a2 2 0 1 1 3.69-1.544l.386.922a2 2 0 0 1-3.69 1.544l-.386-.922zm-7.077-8.463a2 2 0 1 1 3.722-1.463l.366.93a2 2 0 1 1-3.723 1.464l-.365-.931zm-6.886-8.627a2 2 0 0 1 3.756-1.375l.344.939a2 2 0 1 1-3.756 1.375l-.344-.94v.001zm-6.673-8.803a2 2 0 1 1 3.79-1.277l.32.947a2 2 0 0 1-3.79 1.278l-.32-.948zm172.12 152.786a2 2 0 1 1 2.926-2.729l.682.732a2 2 0 0 1-2.925 2.728l-.682-.731h-.001zm-9.564-5.541a2 2 0 1 1 3.002-2.643l.661.75a2 2 0 0 1-3.002 2.644l-.66-.75-.001-.001zm-9.413-5.794a2 2 0 0 1 3.07-2.565l.64.768a2 2 0 1 1-3.069 2.565l-.64-.768h-.001zm-9.261-6.015a2 2 0 0 1 3.13-2.492l.622.782a2 2 0 0 1-3.129 2.492l-.623-.782zm-9.124-6.222a2 2 0 0 1 3.183-2.423l.605.796a2 2 0 1 1-3.182 2.423l-.606-.796zm-8.992-6.411a2 2 0 0 1 3.231-2.357l.59.808a2 2 0 0 1-3.232 2.357l-.59-.808h.001zm-8.852-6.578a2 2 0 1 1 3.277-2.294l.574.82a2 2 0 1 1-3.277 2.294l-.574-.82zm-8.736-6.751a2 2 0 1 1 3.319-2.233l.558.83a2 2 0 1 1-3.319 2.233l-.558-.83zm-8.608-6.904a2 2 0 0 1 3.359-2.173l.543.84a2 2 0 0 1-3.358 2.173l-.544-.84zm-8.485-7.054a2 2 0 1 1 3.395-2.114l.529.849a2 2 0 0 1-3.395 2.114l-.529-.849zm-8.365-7.199a2 2 0 1 1 3.43-2.057l.514.858a2 2 0 0 1-3.43 2.057l-.515-.858h.001zm99.139 69.726a2 2 0 0 1 2.834-2.822l.706.708a2 2 0 0 1-2.834 2.823l-.706-.709zM230.817 202.33a2 2 0 1 1-2.778-2.878l.72-.694a2 2 0 0 1 2.778 2.877l-.72.695zm-5.28 9.68a2 2 0 1 1-2.73-2.924l.73-.683a2 2 0 1 1 2.731 2.923l-.73.683-.001.001zm-5.445 9.593a2 2 0 1 1-2.68-2.97l.742-.67a2 2 0 1 1 2.68 2.97l-.742.67zm-5.607 9.495a2 2 0 1 1-2.629-3.015l.754-.657a2 2 0 1 1 2.629 3.015l-.754.657zm-5.773 9.392a2 2 0 0 1-2.574-3.062l.766-.643a2 2 0 1 1 2.574 3.061l-.766.644zm-5.95 9.295a2 2 0 0 1-2.517-3.109l.778-.63a2 2 0 1 1 2.516 3.11l-.777.63v-.001zm-6.125 9.178a2 2 0 1 1-2.456-3.157l.79-.614a2 2 0 1 1 2.455 3.157l-.79.614h.001zm-6.307 9.052a2 2 0 1 1-2.392-3.207l.802-.598a2 2 0 0 1 2.39 3.207l-.8.598zm-6.5 8.915a2 2 0 0 1-2.32-3.259l.815-.58a2 2 0 0 1 2.32 3.259l-.815.58zm-6.705 8.768a2 2 0 0 1-2.243-3.312l.828-.56a2 2 0 1 1 2.243 3.311l-.828.561zm-6.927 8.604a2 2 0 0 1-2.156-3.37l.842-.538a2 2 0 0 1 2.156 3.369l-.842.539zm106.608-203.97a2 2 0 0 1-3.355-2.178l.544-.839a2 2 0 0 1 3.355 2.178l-.544.839zm-3.062 10.621a2 2 0 0 1-3.291-2.274l.568-.823a2 2 0 1 1 3.291 2.274l-.568.823zm-3.345 10.535a2 2 0 0 1-3.231-2.358l.59-.808a2 2 0 1 1 3.23 2.358l-.589.808zm-3.596 10.441a2 2 0 0 1-3.175-2.433l.608-.794a2 2 0 1 1 3.175 2.433l-.608.794zm-3.83 10.358a2 2 0 0 1-3.12-2.502l.625-.78a2 2 0 1 1 3.12 2.502l-.625.78zm-4.045 10.277a2 2 0 0 1-3.069-2.566l.641-.767a2 2 0 1 1 3.07 2.565l-.642.768zm-4.241 10.179a2 2 0 1 1-3.019-2.624l.657-.755a2 2 0 1 1 3.018 2.624l-.656.755zm-4.437 10.11a2 2 0 1 1-2.97-2.68l.67-.742a2 2 0 1 1 2.97 2.68l-.67.742zm-4.617 10.022a2 2 0 0 1-2.92-2.732l.682-.73a2 2 0 0 1 2.922 2.732l-.684.73zm-4.791 9.94a2 2 0 1 1-2.873-2.783l.695-.718a2 2 0 0 1 2.874 2.783l-.696.718zm-4.962 9.859a2 2 0 1 1-2.826-2.83l.708-.707a2 2 0 0 1 2.826 2.83l-.708.707zm43.671-113.063a2 2 0 0 1-3.424-2.067l.517-.856a2 2 0 0 1 3.424 2.067l-.517.856z"/>
        <g transform="translate(59 38)">
            <path fill="#292B56" fill-rule="nonzero" d="M266.219 132.636C266.219 59.383 206.623 0 133.11 0 59.595 0 0 59.383 0 132.636c0 73.253 59.595 132.636 133.109 132.636 73.514 0 133.11-59.383 133.11-132.636l-8.027 38.833"/>
            <circle cx="129.559" cy="181.577" r="67" fill="#000" fill-rule="nonzero" opacity=".365"/>
            <path fill="#8487B4" fill-rule="nonzero" d="M55.826 53.555c.107.231 1.17-.204 5.037-1.256 1.533-.417 2.137-.557 2.91-1.097.79-.55.818-.86 1.812-1.49 1.05-.665 1.626-.703 1.73-1.176.117-.529-.563-.682-.866-1.646-.121-.39-.079-.579.158-2.745.152-1.384.138-1.35.158-1.411.514-1.63 2.222-2.192 2.046-2.666-.157-.417-1.528-.101-1.732-.627-.145-.37.412-.84.315-.942-.096-.1-.683.302-1.266.706-.583.4-1.16.8-1.252.706l.472-.94c-.153-.165-1.741 1.135-2.518 1.803-1.192 1.026-1.254 1.237-1.259 1.411-.021.815 1.236 1.002 1.652 2.352.071.233.325 1.053-.079 1.569-.314.402-.725.228-1.73.784-.48.265-.777.434-.945.783-.257.535.088.86-.157 1.177-.326.422-1.039-.018-1.89.47-.124.071-.662.381-.629.706.06.565 1.796.62 1.811 1.019.01.307-1.001.399-2.283 1.177-.617.373-1.604 1.094-1.495 1.333"/>
            <path fill="#000" fill-rule="nonzero" d="M214.31 49.478c-.519.219-1.303.063-1.574-.393-.434-.73.869-1.525.708-2.822-.196-1.59-2.375-2.202-2.123-3.06.115-.398.69-.611 1.1-.626 1.3-.044 2.464 1.859 2.755 3.45.203 1.11.155 3.02-.866 3.45m-24.1 10.311c-.051.398-.805.567-1.033.618-.684.154-1.104.006-2.625-.295-1.348-.266-1.714-.288-2.095-.087-.09.047-.584.307-.738.823-.304 1.01.986 1.994.68 2.38-.174.219-.692.055-.768.031-.953-.3-1.14-1.58-1.152-1.676-.049-.42.013-.846.178-1.235.068-.161.36-.86.974-1.147.625-.293.975.126 2.803.5 1.298.266 1.96.392 2.508.03.334-.222.55-.565.856-.501.236.051.443.33.412.559m-28.74 1.03c-.108.007-.381.02-1.064-.178-.678-.195-1.016-.293-1.033-.47-.017-.2.385-.423.709-.5.46-.107.847.06 1.328.265.344.148.886.38.856.588-.034.232-.763.291-.797.294m.207 3.647c-.064.318-.452.538-.768.558-.462.029-.91-.364-.943-.735-.035-.373.373-.46.382-.852.015-.582-.87-.801-.825-1.353.023-.293.297-.563.443-.53.147.035.133.378.206.706.276 1.256 1.634 1.56 1.505 2.206m-3.217 0a.532.532 0 0 1-.531 0c-.302-.187-.169-.615-.295-1.706-.084-.733-.183-.87-.059-1.147.238-.528.935-.76 1.033-.647.106.124-.584.558-.53 1.206.036.455.395.49.559 1.117.094.358.143.976-.177 1.177m-2.98 15.82c-.142.334-.765.462-2.008.704-1.94.38-2.58.21-2.862.118a3.988 3.988 0 0 1-1.002-.499c-.68-.465-.665-.762-1.092-1.088-.554-.423-1.197-.4-1.784-.375-.58.024-1.104.047-1.433-.361-.17-.231-.3-.49-.384-.765-.091-.292-.08-.444-.117-.793-.121-1.107-.43-1.409-.208-1.705.176-.236.439-.136.59-.413.099-.177.044-.311 0-.734a6.345 6.345 0 0 1-.03-.74l-.176-.084.147-.352c.047.007.032.157.029.435.517.067 1.922-.45 1.89-.7-.021-.172-.708-.062-1.682-.559a3.36 3.36 0 0 1-.708-.47c-.381-.338-.515-.63-.709-.911-.355-.519-.499-.4-1.592-1.324-.637-.538-.44-.452-1.417-1.323-.282-.25-.581-.51-.915-.941-.229-.295-.344-.443-.414-.618-.324-.818.244-1.534-.059-1.793-.088-.077-.182-.053-.31-.027a.922.922 0 0 1-.427-.003c-.53-.132-1.007-.72-.974-1.235.017-.258.144-.248.502-.911.343-.638.284-.757.531-1 .197-.193.426-.285.886-.47.544-.22.63-.164.974-.353.301-.168.218-.204.708-.56.608-.44.74-.388 1.003-.705.136-.163.192-.289.383-.411.22-.14.439-.165.562-.177 1.368-.131 2.507.03 2.507.03.4.056.6.085.798.147.35.112 1.148.366 1.415.999.19.452-.08.64.148 1.088.172.337.514.608.886.706.287.076.504.026.692-.024.201-.053.367-.107.547-.005.417.238.537 1.11.235 1.353-.335.269-1.193-.24-1.829-.618-1.081-.643-1.459-1.206-1.947-1.058-.18.054-.143.134-.59.558-.64.607-.88.597-1.21 1-.12.147-.553.673-.503 1.205.064.665.83.804 2.243 1.824 1.46 1.052 2.333 1.682 2.51 2.646.039.22.081.67.412 1.087.274.348.716.633.855.53.078-.056.028-.2 0-.44-.047-.423-.04-1.22.266-1.382.297-.157.835.3 1.033.47.56.477.458.758.944 1.058.413.254.633.143.886.441.214.252.326.653.176.824l-.384.087c-.961-.053-1.513-.083-1.947.088a1.56 1.56 0 0 0-.737.648c-.222.392-.296.98-.06 1.146.2.14.433-.147 1.003-.147.425 0 .968.16 1.035.442.04.174-.105.372-.326.675-.207.284-.308.324-.295.413.038.245.845.057 1.417.411.728.45.34 1.324 1.033 2.941.517 1.21 1.083 1.533.884 2m-26.784-10.185c-.55.471-2.479 1.334-3.03.941-.3-.214-.927-.007-1.469.198-.45.172-.842.343-.93.272-.197-.156-2.322-.116-2.44-.666-.118-.549-1.573-.274-1.612-.783-.04-.511-2.204.116-2.362-.745-.158-.863-3.816-.079-5.312 1.018-1.495 1.1-3.698 1.06-4.603.745-.904-.314-3.698-2.39-3.266-2.666.434-.275 0-1.45.63-1.645.63-.197.866-.863.748-1.294-.119-.432 0-.59.59-.903.59-.314 0-.784.236-1.293.126-.272.33-.198.542-.123.185.065.374.13.52-.034.315-.353.276-.197.708-.392.432-.196 0-.666 0-1.372 0-.706.187-1.271.906-.824.943.588.904-.43 1.77-.745.866-.313.63 0 1.063.47.432.472.59.55 1.612.51 1.024-.038 3.305-.078 4.171-.55.865-.47.67-.39 2.242-.86 1.575-.47 1.535-.236 2.833-.667 1.299-.432 2.244.078 1.733.313-.513.235-2.48 1.06-2.047 1.53.433.47.038.156-.512.587-.55.43-.944 1.097-3.5 1.058-2.56-.038-.867-.274-2.834-.9-1.967-.628-1.889.156-1.928 1.096-.04.942.393 2.236 2.046 1.726 1.652-.51 1.22-.196 1.691-1.059.272-.496.7-.343 1.305-.192.449.112.993.225 1.647.074 1.533-.352.235.55 2.636 1.412 2.4.863 1.377.902 3.147 2.314 1.77 1.411 1.652.352 3.069 1.293 1.416.94.55 1.686 0 2.156M110.83 189.99c-.413-.705-.825-1.999-.825-1.999l-1.299-2.235-.591-2-.472-2.175s.237-.941 0-2.353c0 0 .827.942 1.063 1.764.236.824.117 2.294.117 3.411 0 1.118-.117 1.353 1.417 1.706 1.535.352.59.47 1.063 1.94.472 1.471.707.823.944 3.117.236 2.295-1.003-.47-1.417-1.175m3.07-18.31l1.573-1.332s1.692.038 2.322.43c0 0 .59 1.098 1.928 1.059 1.337-.04-1.102.587-1.378 2.235-.168 1-.276.9-.46.8-.119-.064-.268-.13-.485.102-.55.588-.116.549.119 1.058.236.51 0 .549-.314 1.097-.316.549-.513.236-2.007.157-1.395-.072-1.215.434-1.184.502l.004.008-.004-.008-1.06-2.265-.353-2.04 1.299-1.802m7.233 26.954c-.355.822-1.286-.118-.46 1.175.827 1.294 1.364 1.117 1.364 1.94 0 .825-.291 2.647-1.118 1.001-.826-1.647-.068-.471-.8-2.589-.733-2.115-.79-.47-.79-3.057 0-2.587.058-2.058-.354-2.94-.414-.882-.438-.882-.438-.882 1.298-.06 1.803.882 1.803.882v2.647s1.147.999.793 1.823m138.582-91.997c.077-1.333 1.1-4.156-.866-8.938-1.968-4.784-3.13-6.156-3.365-8.038-.236-1.881-.885-.941-2.951-4.528-2.066-3.588-1.24-3.588-1.003-4.92.235-1.334-.473-.55-1.18-1.177-.708-.627-.787-.548-.787-.236 0 .315-.472.706-.708.55-.237-.157-.945-1.804-.945-1.804l-.865-.94c-.866-.942-1.26-.706-.787-1.49.472-.785.079-.47 0-1.255-.079-.784-.473-1.568-.473-2.274s.866 1.099 1.34 1.726c.47.627 3.303.861 2.201-1.805-1.1-2.666-.157-2.509-3.147-7.448-2.99-4.94-7.711-11.448-10.86-14.429-3.147-2.979-2.91-2.509-4.564-4.155-1.651-1.647-4.8-4.39-6.845-6.507-2.046-2.118-1.89-1.805-.866-1.49 1.022.312 3.384.705-1.417-2.588-4.8-3.293-14.036-10.537-14.301-10.977-.267-.442-.857-.03-1.594-.618-.737-.588-2.272-1.147-3.511-1.383-1.24-.234-3.277-1.351-3.336-1.44-.059-.088-6.079.941-6.934.705-.856-.236-3.334-.647-3.334-.647s-2.538-.823-3.63-1.147c-1.092-.323-1.092-.087-1.535.03-.443.118.237.412 0 .5-.235.088-.855-.058-1.564-.088-.708-.03.178-.412 0-.47-.177-.06-2.567-.03-4.309-.118-1.74-.088-2.537.47-4.189.5-1.653.029-.65-.147-.414-.324.237-.176.414-.353.62-1.175.207-.824-.502-.97-.708-1.06-.206-.087-.53-.264-1.564-.382-1.136-.131-2.28-.2-3.423-.206-1.18 0-2.803-.852-4.101-.911-1.299-.059-.355.264-.355.352 0 .09-.06.236-2.095 1-1.288.484-1.265.321-1.321.158-.032-.095-.091-.19-.449-.157-.974.087-2.627.587-2.627.587s.53.853 1.357 1.382c.827.53-.442.207-1.563.207s1.581 2.736-1.585 3.763c-3.167 1.028-11.488.411-13.111.147-.974-.159-.944.618-.944.618l.148.647-1.033.616c-1.033.619-.68 0-1.064-.88-.382-.883-1.592.734-1.592.734s-.178 0-1.919.177-.53-.06-.796-.824c-.266-.765-.206-.088-.561.118-.354.205-.856.205-1.858.264-1.005.06-.237.03-2.066.824-1.83.794-.59.765-.59.765s-.09.264-.414.675c-.325.412-.738.147-2.656-.352-1.917-.5-1.623.147-1.505.705.118.559.118.882-1.445.059-1.564-.823-1.18.294-1.417.559-.237.264-1.033.529-1.27.911-.235.382.768 1.353.768 1.353s-.943.118-1.71.03c-.768-.09-1.418.206-1.034.47.384.264-.177.323-1.18.323-1.004 0-.798-.205-1.357-.41-.562-.208-.798-.383-.916-.706-.117-.324-.442-.354-.442-.97 0-.619.384-.208-.177-.914-.561-.705.088-.47 1.061-.205.974.264 1.388.236 2.125.236.74 0 1.033 0 2.007-.088.974-.09.856-.148 1.476-.706.619-.56.324-.5.384-.647.059-.148-.739-.882-.739-.882s-1.505-.647-2.448-.883c-.945-.234-1.86-.852-3.247-.94-1.387-.09-1.062-.207-1.948-.295-.884-.087-.56-.118-1.15-.41-.59-.296.03-.442-.383-.648-.16-.08-.455-.04-.744-.003-.458.062-.896.124-.732-.291.265-.676-.531.176-.827.176-.294 0-.678-.412-1.682-.5-1.003-.088-.472.118-1.18.206-.708.089-1.24.207-1.741.412-.502.206-.768.324-1.327.265-.278-.029-.417.184-.57.397-.157.22-.325.442-.67.396-.68-.087-.118-.323-.591-.529-.472-.205-.531-.028-.648 0-.118.029-.473.735-1.034.824-.299.047-.32.027-.361.007-.035-.018-.085-.036-.346-.007-.561.059-.149.264-.443.529-.296.264-2.213 1.117-2.833 1.47-.62.353 0 0-.915.44-.914.442-1.476.854-2.744 1.942-1.27 1.087-1.063.53-1.357.853-.296.323-6.27 2.708-6.552 2.91-.531.383-.65.147-.826.617-.085.227-.294.188-.486.148-.208-.042-.4-.084-.4.206 0 .558-1.12.352-1.12.352s-.856.5-1.27.765c-.412.264-.353 1.088-.353 1.088s-.296.411-.856.588-.09.206.176.411c.266.207.208.236.178.441-.03.206-.413.206-.974.265-.561.059-.206.412.353.53.562.117.325.117.06.5-.266.381-.384.088-.797.587-.412.5.689.686.689.686s.55.472 1.81.511c1.258.04 1.141-.745 1.613-1.254.3-.325.537-.316.812-.307.156.004.326.01.526-.047.55-.157.432-.43.787-.863.354-.43.235.354.511.745.275.393.119.275-.118.745s-.237.588-.237 1.02c0 .431.158.667.276 1.412.119.744 2.952 1.656 2.952 1.656h1.81c.943 0 .806-1.142.787-1.612-.02-.47.452-.718.63-1.345.175-.628.195-.251.609-.801.271-.362.27-.301.323-.24.027.031.068.063.168.036.296-.079.836-.66 1.073-.807.235-.147.235-.15.737-.238.502-.089 0-.53 0-.53s.206-.177.414-.324c.206-.148.294-.266.412-.559.119-.295-.295-.588-.295-.588l-.825-.59.235-1.116s.885-1.147 1.092-1.235c.206-.088.383-.205 1.357-.911.974-.706.945-.47 1.594-.647.65-.177 1.446-.618 1.446-.618s1.033-.293 1.27-.47c.234-.177-.119-.56-.178-.824-.06-.264.412-.323.62-.47.207-.147.354.085.766-.357.414-.441.59.644.59.644h1.682l.739.062s.118.458-.09.605c-.206.148-2.006.625-2.006.625s-1.505 1.24-2.42 1.445c-.914.206-.855.414-1.269.797-.412.382 0 1.162 0 1.162s-.353.582-.678 1.198c-.325.619.482.937.757 1.075.276.138 2.007.254 2.007.254s.688-.04 1.692-.06c1.003-.02.452-.08 1.437-.392.983-.314 2.596-.55 2.596-.55s1.2.314 1.928.725-1.083.47-1.338.47c-.256 0-1.22.492-1.22.492s-.55.02-1.141 0c-.59-.02-.904-.177-1.85-.177-.943 0-1.06.157-1.69.332-.63.177-.728.354-1.064.785-.333.432.305 1.04.779 1.333.471.294 0 .235-.15.5-.146.264-.116.382-.824 1.088-.709.706-.325-.059-.798-.382-.472-.324-.796-.706-1.505-.706-.708 0-1.357 1.412-1.535 1.53-.176.116-.235.646-.235.646s-.56.735-.56 1.323.069.784.069.784-.158.313-.592.343c-.432.029-.864.166-.864.166s-.316.588-.355.746c-.024.1-.097.087-.269.077a2.516 2.516 0 0 0-.4.001c-.472.04-1.101-.078-1.22-.157-.118-.079.198-.706-.787-.824-.983-.116-1.573.824-2.753 1.06-1.181.234-2.922.804-3.129.804-.206 0-.265-.266-.56-.765-.295-.5-.501-.382-.59-.354-.089.03-.354 0-1.032.177-.68.177-.237.088-1.241.56-1.003.47-.384.087-.65.087-.265 0-.205 0-.943-.352-.738-.354-.206-.148-.383-.413a5.999 5.999 0 0 0-.443-.557s-.678-.03-.945 0c-.266.028-.117.205-.206.616-.088.411-.325.411-.885.824-.56.411-.56.234-1.624.558-1.062.323-.825.53-.825.53s-.178-.148-.739-.295c-.56-.146-.59.03-1.12.147-.532.118-.887.323-1.653.795-.767.47-.118.264-.502.97-.383.706-.708.47-1.594.97-.884.5-1.888 1.323-2.566 1.412-.68.088-.65.147-1.358.206-.708.059-.857 1.206-.857 1.206s-.353.588-.737.94c-.238.218-.474.143-.691.07-.134-.046-.258-.093-.37-.07-.296.059-.62.205-.74.47-.116.264 0 .264-.293.883-.296.618-.178-.03-.531-.088-.355-.059-.798-.03-.886-.265-.09-.235.088-.235.118-.53.03-.293-.295-.059-.826.148-.531.206-.207.735-.355 1.33-.147.597-.275.61-1.338.65-1.062.04-.511-.118-.511-.432 0-.313-.275-.195-.59-.195-.314 0-1.18.352-1.535.43-.354.079-.904.942-.904.942s.787.43 1.338.43c.55 0 .51.628.59.785.079.156.079.822.079.822s-.198.667-.04 1.06c.158.391.827.706.393 1.058-.432.353-.079.393-.079 1.06 0 .362-.092.155-.235-.052-.118-.172-.272-.346-.434-.185-.353.353-.04.392-.195 1.255-.158.863-.158.668-.277 1.57-.118.901-1.809 2.196-1.809 2.196H53.17c-.235 0-.884-.364-1.888-.482-1.003-.116 0-.166-2.066-.46-2.066-.294-2.773-.01-2.773-.01l-1.417.964s-1.004 1.336-1.535 1.806c-.53.47-.412 1.226-.708 2.286-.294 1.058-.53 1.053-.886 1.936-.353.882-.294.761-1.947 2.527-1.652 1.763.059 1.528-.884 2.468-.945.941.53 1.588 1.77 1.647 1.239.057 3.009 1.47 3.364 1.47.353 0 .708.292 1.416.47.709.176 1.003 0 1.18-.589.178-.588.768-.118.768-.118s1.003-.118 1.12-.88c.12-.766.297-.413.415-.589.117-.177 1.652-.412 1.652-.412s.59-.47.59-1.176.355-.413 1.12-.883c.768-.47-.057-1.47 0-2.058.038-.365.143-.322.33-.28.115.027.26.053.438-.013.473-.177.178-.123.178-.123l.059.056h1.357c1.24 0 .472-1.702.472-1.702s0-.44.118-.85c.118-.412.768-.309.945-.427.176-.116.413-.153 1.121-.153s.943-.518.943-.518.414-.671.592-.907c.176-.234.943-.482.943-.482s.237-.594.413-.887c.177-.295.06-.473.177-1.179.119-.706.06-.414.414-.648.354-.236.354-.179 1.062-.708.455-.34.325-.243.348-.146.01.054.07.109.301.087.65-.058 1.062.47 1.062.47s.592.177 1.653.47c1.062.295.709.295 1.121-.116.414-.412.974-.647 1.27-1 .294-.353.236-.088.884-.5.65-.412.208-.088.532-.5.325-.412.176-.235 1.15-.323.974-.089.916-.5 1.24-.089.325.413.56.56 1.15.677.592.118.09.53.09 1s.06.705.384 1.557c.324.853.619.97 1.357 1.294.737.323.413.382 1.033 1.47.43.755.646.647 1.092.539.197-.047.44-.096.766-.068 1.063.089.561 1.06 1.24 1.234.679.177.501.266.501.706 0 .442 0 .736.856.647.857-.088.886 1.514.886 1.676 0 .162.25.97-.266 1.28-.517.309-.162 1.132.354.94.517-.19.605-.631.605-.631s.202-.324 1.028-.676c.827-.354.432-.432.432-.432l-.353-1.137s-.355-.509-.669-.902c-.315-.391.432-.861.432-.861l1.457.116s.353.432.747.784c.393.354.55.472.787.472.236 0 .59-.432.59-.432s0-.274-1.377-1.725c-.885-.932-.893-.845-.952-.757-.034.05-.082.098-.307-.027-.63-.354-1.416-.785-1.416-.785l-.866-.861s-.55-.041-.866-.197c-.314-.157-.747-.627-.747-.627s-.355-.393-.905-.824c-.55-.43 0-.314 0-.587 0-.276.04-.354.04-.903 0-.548-.277-.47-.906-.823-.63-.353-1.023-.94-.766-1.607.255-.667.647-.588 0-1.333-.65-.745.608-.354 1.985-.275 1.377.078.906.902 1.693.51s.393-.235.511.392.197.824.316 1.764c.116.942.55.824 1.77 1.06 1.22.234.708.47 1.337 1.136.63.666 1.023.47 1.496.94.472.472.393.314 1.338.902.943.588.393.549.746.863.355.313-.038.47-.353.901-.316.432-.158 2.393.276 2.98.432.588.04.315.471.863.433.55.276.47.393.862.118.393.158.393.63 1.099.352.523.593.485.791.447.069-.014.132-.027.193-.017.237.04.511 0 1.101-.117.59-.118 1.14.235 1.14.235s.906.04 1.143.235c.235.196 1.377.666 1.533.314.158-.352.552-.236.513-.627-.04-.392-.434-.903-.434-.903s-.55-.745-.943-1.449c-.395-.706-1.18-.863-1.377-1.765-.198-.901.747-.706.668-.431-.078.274.354.863 1.141.667.787-.197.472-.393.197-.942-.142-.283.02-.242.264-.201.23.038.53.076.72-.151.393-.47.433-.157.905-.04.471.118.471-.235.787-.427.314-.192 1.1.349 1.1.349s.591.196 1.102.47c.513.275.513.236.984.196.472-.039.788-.157 1.692-.745.905-.588.236-.039 1.26 0 1.022.04 1.022 0 2.202 0s.67.433.512.51c-.087.044-.163.027-.334.01a4.073 4.073 0 0 0-.65-.01c-.708.039-.118 1.035-.157 1.423-.04.387-1.456.883-1.456.883h-2.32c-1.378 0-1.025.925-.67 1.238.354.314.158.248.04.64-.119.392-1.103.26-1.103.26s-.786.347-.511.777c.158.247.443.236.857.226.31-.008.695-.017 1.15.084 1.063.236.256 1.342.166 1.841-.087.5.208.617 1.24.617 1.034 0 .767.146 1.122.647.194.275.31.211.476.148.137-.052.308-.105.586.028.62.294 0 .882.68.882.677 0 .973.03 1.947.148.974.116.324-.295.443-1.06.117-.765.796-.675 1.976-.029 1.18.647 1.505 1.205 1.83 1.294.324.088 1.475-.03 1.859-.03.384 0 1.504-.793 2.656-1.381 1.15-.588.62 0 1.623.323 1.004.323.412-.354 1.063-.618.647-.265 0 .736.057 1.324.06.588-.057.441-.235.97-.177.53-.206.647.295.706.502.059-.325.793 0 1.646.324.852-.207.736-.443 1.383-.235.647-1.18 2.205-1.21 3.41-.03 1.205-.797 2.764-1.269 3.205-.471.441-.737.206-2.45.382-.915.094-1.323.062-1.574.03-.217-.027-.315-.055-.52 0-.443.117-.678-.089-.678-.648 0-.302-.2-.225-.502-.146-.253.066-.578.131-.915-.03-.738-.353-.471.119-1.446.119-.974 0-.088.44-.65.44-.56 0-.265 0-1.327.705-1.063.706-.53.06-2.774-.234-2.242-.295-.827.116-2.833-.588-2.007-.706-1.417-.471-3.424-.471-2.005 0-.294-.06-.471-1.058-.105-.597-.085-.482-.24-.368-.103.079-.288.158-.645.014-.5-.2-.775-.154-1.25-.109a8.114 8.114 0 0 1-1.642-.007c-1.83-.177-.296-.236-.413-.59-.118-.352-.177-.47-.826-.822-.65-.354-.827 0-2.244 0-1.416 0-1.12.234-2.419.822-1.298.59-1.18 1.412-1.061 2.118.116.705.235 1.234.175 2-.059.764-1.829 1.47-3.776.47-1.948-1-2.125-1.529-3.128-1.529-1.004 0-2.184-1.118-2.478-1.881-.296-.765-.886-1.06-.945-1.294-.06-.236-2.833-.53-2.833-.53l-3.01-.53s-.532-.175-1.298-.47c-.767-.294-.886-.588-1.712-2.058-.827-1.47 1.004-1.47 1.004-1.47s.235-.412 1.651-1.706c1.417-1.293-.353-.764-.826-1.765-.472-.999-2.124-1.43-2.124-1.43h-2.006s-1.535-.314-3.13.45c-1.592.766-1.357-.008-2.065-.42-.707-.412-2.183.436-5.547.495s-5.075 2.658-6.296 3.01c-1.22.354-1.573.212-1.967-.258-.393-.47-1.85.145-1.85.145s-3.068-.988-3.423.972c-.353 1.96-2.675 2.861-4.642 3.806-1.968.944-3.452 5.611-3.895 7.522-.443 1.912-2.834 4.293-4.132 4.469-1.298.177-2.272 1.794-2.626 2.94-.353 1.147-.855.912-1.563 2.088-.709 1.176-1.682 3.411-2.184 3.97-.502.558-.443.44-.59 1.058-.148.617-.531 1.97-1.595 4.264-1.061 2.293-.855 3.558-.767 4.322.09.765.592 2-.058 2.118-.649.116-.09.852.117 2.675.208 1.823-.088 5.264-.206 5.852-.118.588-.178 1.617-.206 2.47-.03.852-1.564 1.588-.945 2.734.62 1.147 1.092 1.911.68 2.53-.413.616 0 1.998 0 1.998s.177.618.324 1.352c.147.736.59 1.089.945.854.353-.236.412.176.294.676s-.118.706.206 1.294c.325.587.443.205.739.529.294.323.029.559.619 1.236.59.675.56 1.263 1.122 1.558.56.293.59 1.235.85 1.851.26.619.124.442.034 1.119-.088.675 0 .411.178 1.087.177.677.412.795.945 1.265.53.47-.178.734.708 1.116.884.383.441.265.796.942.354.676.443.529 1.475 1.294 1.033.765 8.026 2.91 8.814 2.714.787-.195 1.337.079 2.36.275.658.126.73.106.834.086.057-.01.124-.02.308-.007.51.04.315.04 1.18.47.866.43.393.118.905.078.511-.039.354-.314.59-.745.237-.43.433-.157.944-.43.512-.275.433-.275 1.102-.745.67-.47.983-.315 1.496-.295.511.02.825-.098.904-.608.079-.51.423-.293.63-.529.206-.236.354-.177.855-.146.502.028.798-.177.798-.177s.412-.06.825-.06c.414 0 .767.324.767-.233 0-.56.59-.295.384 0-.206.293.502 0 .827 0 .324 0 .353 0 1.475.911 1.121.911.678.94.856 1.205.177.264.324.559.708.323.384-.234-.118.588 0 1.088.118.5 0 .236.235.677.237.44.443.47.916.912.472.44.531.382.915.234.202-.077.362-.073.53-.068.151.003.307.006.503-.049.412-.117.265-.412.678 0 .414.412.217-.362.414-.559.112-.113.174-.03.372.052.144.06.362.122.73.105.865-.039.431-.353.431-.745 0-.393.472.628.985.785.51.155.59.588.471.94-.118.353.67.47 1.378.47.708 0 .393.824.866 1.177.471.352.314.234.195.822-.116.588.119 1.687-.235 2.275-.355.588.08.47-.079 1.294-.157.823.08 1.097.119 2.509.04 1.411.58 5.283 1.318 6.077.737.793.59 1.764 1.15 1.794.56.028 1.004.205 1.004.822 0 .618.56.618 1.563 1.619 1.004.999 1.476 1.587 2.185 2.587.708 1 .059.822 1.002 1.94.945 1.118 1.772 3 2.538 4.175.767 1.177 4.427 9.174 3.837 10.175-.59.999-1.417 1.411-1.512 3.116-.096 1.706.271 3.411.036 4.353-.236.94.768 2.41.768 2.41s.235 1 1.239 2.647c1.002 1.646 4.838 5.351 6.432 6.704 1.595 1.353 1.18 3.058 2.362 4.88 1.18 1.825 2.714 3.881 3.954 5.411 1.24 1.53 1.415 1 2.36 1.94.945.942 4.485 4.882 4.9 5.53.412.646-.709.587 0 1.352.706.765.884 1.294 1.533 1.117.649-.177.355.118 1.18.536.827.419.591.11 1.3-.3.708-.413.53-.06 1.533.234 1.004.294.237-.47.827-.881.59-.413.53 0 1.004.118.472.116.59.116.943.249.354.131.296-.015 1.24-.074.944-.06 0 0 .59.059s.354-.06.473-.352c.117-.295.825-.295.825-.295l1.771-.647s.531-.588 1.121-1.53c.59-.94.393-1.195 1.378-1.39.982-.196.177-.51.452-1.04.276-.529.453-.843.866-1.763.412-.922.491-1.098 1.259-1.157.767-.059.265-.412.154-.913-.112-.498.23-.793.82-1.704.59-.912-.108-.599-.03-1.657.043-.59.038-.523-.077-.455-.09.053-.252.106-.514-.172-.59-.627.315-.94.315-.94l1.023-.784 2.282-.433.67-.43s.236-.746.118-1.098c-.119-.353-.158-1.02-.158-1.02s.237-.784.237-1.136c0-.354-.08-.51-.395-.942-.314-.43 0-.313.118-1.058.119-.745-.787-1.803-1.022-2.627-.236-.823 0-.393.63-.941.63-.549.314-.51.746-.94.434-.433.787-.745 1.693-1.294.905-.549-.827.195.412-.981 1.24-1.176.296-.47 1.948-1.412 1.653-.94 2.125-.763 2.125-.763l1.357-1.06 1.298-.998.413-1.47.886-.766s.059-.47-.237-1.47-.532-1.587-.414-5.468c.071-2.346.056-2.2-.045-2.056-.067.095-.17.19-.311-.415-.2-.865-.175-.752-.307-.638-.103.086-.297.172-.758-.185-1.063-.823.11-1.529-.008-2.587-.118-1.06-.841-2.589-.841-2.589s-.277-1.058.195-1.764c.472-.706-2.076-.47-2.076-.47v-4.235l2.07-1.522s1.18-1.52 1.298-2.344c.119-.823.375-.574 1.437-1.632.58-.577.543-.517.428-.456-.096.051-.248.1-.14-.22.237-.705 1.644-.648 1.644-.648s1.223-.352 1.931-2.352c0 0 2.204-3.057 4.329-4.939 2.123-1.883 4.018-2.705 10.155-9.763 6.138-7.057 2.275-14.72 1.327-14.736-.73-.012-1.575-.024-2.464.112-2.046.314-4.17.784-4.17.784s-2.518.393-4.014.393c-1.494 0-2.281-1.098-2.281-3.765 0-2.664-3.423-6.94-3.423-6.94l-6.256-1.84s-.708-2.197-1.258-4.47c-.553-2.274-.631-2.274-2.755-3.843-2.125-1.567-2.046-2.745-1.967-5.254.079-2.508-.886-2.959-1.594-3.547-.709-.588-2.301-2.058-2.479-2.823-.177-.765-.118-.647.354-1.412.473-.764-1.18-2.235-1.18-2.235s-1.003-1.351-1.711-3.234c-.472-1.255 1.14-1.392 4.838-.411 0 0 .237 2.117 2.656 5.057 2.42 2.94 1.772 2.058 2.893 4.176 1.12 2.117.118 1.881 1.475 4.117 1.358 2.233 2.538 2 3.895 4.35 1.358 2.354 1.948 3.764 3.246 5.47 1.299 1.705 1.713.235 1.713 1.117 0 .881.176 3.294.53 4.116.354.823 1.534 4.176 3.6 4.47 2.066.294 1.594-1.647 3.247-1.824 1.652-.175.766 1.765 2.242.943 1.476-.823 1.298-.764 2.3-.706 1.005.06 1.123-.294 2.952-2.176 1.26-1.297 1.317-1.17 2.37-1.041.474.057 1.15.115 2.234.04 3.482-.234 1.671-2.056 1.671-2.056s.63-1.333 3.15-2.588c1.32-.659 1.622-.627 1.828-.594.187.029.293.06 1.003-.426 1.495-1.019.079-1.254 1.024-1.49.945-.234 1.416 0 2.125-1.568.499-1.104 2.675-1.49 2.439-3.529-.237-2.038 0-1.568 1.495-.941 1.494.627.235-1.019 1.101-3.215.866-2.194.945-2.979.472-3.606-.472-.627-2.597-1.49-2.597-1.49s-1.573-1.019-3.619-2.039c-2.046-1.019-.63-.627-1.18-1.567-.552-.942-3.148-.629-3.778.313-.63.941 0 .941-1.101 1.724-1.101.784-1.101.472-2.283.236-1.18-.236-1.338.391-2.439.47-1.1.078-.866-.706-1.416-1.882-.551-1.176-3.148-2.509-3.148-2.509l-.118-2.078-1.73-1.45c-1.733-1.45-1.18-2.195-1.18-2.195l-2.086-1.099s-1.811-3.372-.158-3.215c1.652.158 1.022-.273 1.18-1.333.09-.606.31-.247.82.11.381.267.924.534 1.698.4 1.81-.313.237.236 1.103 1.49.864 1.254 2.123 3.608 4.287 4.313 2.165.706 1.928 1.49 1.928 1.49s.511.55 2.165.94c1.653.392 1.456.197 4.29-.352 2.83-.55 1.927.274 3.42 2.43.885 1.276 3.76.95 5.786 1.334.904.17 1.509.269 1.906.322-.035.054.003.15.178.305 1.063.94 1.614-.354 1.614-.354s.392.393.669.393c.276 0 2.006-.863 3.62-.941 1.612-.079 3.698-.822 4.878 0 1.18.823.905 1.49 1.888 1.215.985-.274.787 1.02 1.496 2.666.708 1.647 1.928.354 1.928.354s.118.902.51 1.333c.395.43 1.654 1.058 2.992.9 1.338-.155.826.158.471.472-.353.313-1.809 2.155.433 4.194 2.243 2.039 2.006.471 3.58.196 1.575-.275 1.89 1.921 2.44 3.412.552 1.49.04 2.626 1.928 8.037 1.89 5.41 13.182 8.311 13.456 6.194.276-2.116-.274-2.9-.236-3.882.04-.979.197-.666.905-.666s.59-.785.827-1.333c.136-.318.26-.201.4-.086.103.084.214.169.348.086.313-.197.904-.588.982-1.333.08-.745.866-1.498.866-1.498s.59-1.717.983-2.462c.395-.745.63-.9 1.221-1.45.59-.55 1.22-.784 1.18-1.568-.04-.785 0-.315.433-.315s.63.04.866-.078c.236-.116 1.14-1.45 1.14-1.45s.119-.666.119-1.568c0-.903.118-.431.432-1.098.315-.666.236-.471.513-1.372.274-.902.785.667.785.667l.945.234 2.4-.064s2.085-.734 2.046.717c-.04 1.45.866.165.866.165s.118.492 0 .962c-.118.472 1.259 1.169 1.259 1.169l.708.937c3.83 5.694 5.797 8.176 5.902 7.445.157-1.098 1.061.745 1.535 2 .471 1.254.963 3.116 1.377 5.82.412 2.706 2.123 2.099 2.4 1.668.275-.432.315.43.315 1.058 0 .627-.04.824.274 1.176.316.353 1.417.196 1.654.666.235.472.669 1.766.669 1.766s.195.822.314 1.881c.118 1.058 2.715 2 2.99.98.131-.484.305-.474.533-.463.252.012.569.024.962-.635.747-1.254.826-2.666 1.063-3.684.235-1.02.156-1.726.156-2.354 0-.627-.156-2.194-.393-3.449-.235-1.255-.314-.863-1.022-3.371-.708-2.51-2.204-5.608-2.636-6.431-.434-.822-.237-2-.118-3.372.118-1.372 4.052-3.606 4.17-5.724.117-2.117 1.26-1.803 2.382-3.057 1.122-1.255 0-2.666 0-2.666s-.414-2.196-.335-3.53l-.001.001z"/>
            <path fill="#8487B4" fill-rule="nonzero" d="M214.31 49.478c-.519.219-1.303.063-1.574-.393-.434-.73.869-1.525.708-2.822-.196-1.59-2.375-2.202-2.123-3.06.115-.398.69-.611 1.1-.626 1.3-.044 2.464 1.859 2.755 3.45.203 1.11.155 3.02-.866 3.45m-24.1 10.311c-.051.398-.805.567-1.033.618-.684.154-1.104.006-2.625-.295-1.348-.266-1.714-.288-2.095-.087-.09.047-.584.307-.738.823-.304 1.01.986 1.994.68 2.38-.174.219-.692.055-.768.031-.953-.3-1.14-1.58-1.152-1.676-.049-.42.013-.846.178-1.235.068-.161.36-.86.974-1.147.625-.293.975.126 2.803.5 1.298.266 1.96.392 2.508.03.334-.222.55-.565.856-.501.236.051.443.33.412.559m-28.74 1.03c-.108.007-.381.02-1.064-.178-.678-.195-1.016-.293-1.033-.47-.017-.2.385-.423.709-.5.46-.107.847.06 1.328.265.344.148.886.38.856.588-.034.232-.763.291-.797.294m.207 3.647c-.064.318-.452.538-.768.558-.462.029-.91-.364-.943-.735-.035-.373.373-.46.382-.852.015-.582-.87-.801-.825-1.353.023-.293.297-.563.443-.53.147.035.133.378.206.706.276 1.256 1.634 1.56 1.505 2.206m-3.217 0a.532.532 0 0 1-.531 0c-.302-.187-.169-.615-.295-1.706-.084-.733-.183-.87-.059-1.147.238-.528.935-.76 1.033-.647.106.124-.584.558-.53 1.206.036.455.395.49.559 1.117.094.358.143.976-.177 1.177m-2.98 15.82c-.142.334-.765.462-2.008.704-1.94.38-2.58.21-2.862.118a3.988 3.988 0 0 1-1.002-.499c-.68-.465-.665-.762-1.092-1.088-.554-.423-1.197-.4-1.784-.375-.58.024-1.104.047-1.433-.361-.17-.231-.3-.49-.384-.765-.091-.292-.08-.444-.117-.793-.121-1.107-.43-1.409-.208-1.705.176-.236.439-.136.59-.413.099-.177.044-.311 0-.734a6.345 6.345 0 0 1-.03-.74l-.176-.084.147-.352c.047.007.032.157.029.435.517.067 1.922-.45 1.89-.7-.021-.172-.708-.062-1.682-.559a3.36 3.36 0 0 1-.708-.47c-.381-.338-.515-.63-.709-.911-.355-.519-.499-.4-1.592-1.324-.637-.538-.44-.452-1.417-1.323-.282-.25-.581-.51-.915-.941-.229-.295-.344-.443-.414-.618-.324-.818.244-1.534-.059-1.793-.088-.077-.182-.053-.31-.027a.922.922 0 0 1-.427-.003c-.53-.132-1.007-.72-.974-1.235.017-.258.144-.248.502-.911.343-.638.284-.757.531-1 .197-.193.426-.285.886-.47.544-.22.63-.164.974-.353.301-.168.218-.204.708-.56.608-.44.74-.388 1.003-.705.136-.163.192-.289.383-.411.22-.14.439-.165.562-.177 1.368-.131 2.507.03 2.507.03.4.056.6.085.798.147.35.112 1.148.366 1.415.999.19.452-.08.64.148 1.088.172.337.514.608.886.706.287.076.504.026.692-.024.201-.053.367-.107.547-.005.417.238.537 1.11.235 1.353-.335.269-1.193-.24-1.829-.618-1.081-.643-1.459-1.206-1.947-1.058-.18.054-.143.134-.59.558-.64.607-.88.597-1.21 1-.12.147-.553.673-.503 1.205.064.665.83.804 2.243 1.824 1.46 1.052 2.333 1.682 2.51 2.646.039.22.081.67.412 1.087.274.348.716.633.855.53.078-.056.028-.2 0-.44-.047-.423-.04-1.22.266-1.382.297-.157.835.3 1.033.47.56.477.458.758.944 1.058.413.254.633.143.886.441.214.252.326.653.176.824l-.384.087c-.961-.053-1.513-.083-1.947.088a1.56 1.56 0 0 0-.737.648c-.222.392-.296.98-.06 1.146.2.14.433-.147 1.003-.147.425 0 .968.16 1.035.442.04.174-.105.372-.326.675-.207.284-.308.324-.295.413.038.245.845.057 1.417.411.728.45.34 1.324 1.033 2.941.517 1.21 1.083 1.533.884 2m-26.784-10.185c-.55.471-2.479 1.334-3.03.941-.3-.214-.927-.007-1.469.198-.45.172-.842.343-.93.272-.197-.156-2.322-.116-2.44-.666-.118-.549-1.573-.274-1.612-.783-.04-.511-2.204.116-2.362-.745-.158-.863-3.816-.079-5.312 1.018-1.495 1.1-3.698 1.06-4.603.745-.904-.314-3.698-2.39-3.266-2.666.434-.275 0-1.45.63-1.645.63-.197.866-.863.748-1.294-.119-.432 0-.59.59-.903.59-.314 0-.784.236-1.293.126-.272.33-.198.542-.123.185.065.374.13.52-.034.315-.353.276-.197.708-.392.432-.196 0-.666 0-1.372 0-.706.187-1.271.906-.824.943.588.904-.43 1.77-.745.866-.313.63 0 1.063.47.432.472.59.55 1.612.51 1.024-.038 3.305-.078 4.171-.55.865-.47.67-.39 2.242-.86 1.575-.47 1.535-.236 2.833-.667 1.299-.432 2.244.078 1.733.313-.513.235-2.48 1.06-2.047 1.53.433.47.038.156-.512.587-.55.43-.944 1.097-3.5 1.058-2.56-.038-.867-.274-2.834-.9-1.967-.628-1.889.156-1.928 1.096-.04.942.393 2.236 2.046 1.726 1.652-.51 1.22-.196 1.691-1.059.272-.496.7-.343 1.305-.192.449.112.993.225 1.647.074 1.533-.352.235.55 2.636 1.412 2.4.863 1.377.902 3.147 2.314 1.77 1.411 1.652.352 3.069 1.293 1.416.94.55 1.686 0 2.156M110.83 189.99c-.413-.705-.825-1.999-.825-1.999l-1.299-2.235-.591-2-.472-2.175s.237-.941 0-2.353c0 0 .827.942 1.063 1.764.236.824.117 2.294.117 3.411 0 1.118-.117 1.353 1.417 1.706 1.535.352.59.47 1.063 1.94.472 1.471.707.823.944 3.117.236 2.295-1.003-.47-1.417-1.175m3.07-18.31l1.573-1.332s1.692.038 2.322.43c0 0 .59 1.098 1.928 1.059 1.337-.04-1.102.587-1.378 2.235-.168 1-.276.9-.46.8-.119-.064-.268-.13-.485.102-.55.588-.116.549.119 1.058.236.51 0 .549-.314 1.097-.316.549-.513.236-2.007.157-1.395-.072-1.215.434-1.184.502l.004.008-.004-.008-1.06-2.265-.353-2.04 1.299-1.802m7.233 26.954c-.355.822-1.286-.118-.46 1.175.827 1.294 1.364 1.117 1.364 1.94 0 .825-.291 2.647-1.118 1.001-.826-1.647-.068-.471-.8-2.589-.733-2.115-.79-.47-.79-3.057 0-2.587.058-2.058-.354-2.94-.414-.882-.438-.882-.438-.882 1.298-.06 1.803.882 1.803.882v2.647s1.147.999.793 1.823m138.582-91.997c.077-1.333 1.1-4.156-.866-8.938-1.968-4.784-3.13-6.156-3.365-8.038-.236-1.881-.885-.941-2.951-4.528-2.066-3.588-1.24-3.588-1.003-4.92.235-1.334-.473-.55-1.18-1.177-.708-.627-.787-.548-.787-.236 0 .315-.472.706-.708.55-.237-.157-.945-1.804-.945-1.804l-.865-.94c-.866-.942-1.26-.706-.787-1.49.472-.785.079-.47 0-1.255-.079-.784-.473-1.568-.473-2.274s.866 1.099 1.34 1.726c.47.627 3.303.861 2.201-1.805-1.1-2.666-.157-2.509-3.147-7.448-2.99-4.94-7.711-11.448-10.86-14.429-3.147-2.979-2.91-2.509-4.564-4.155-1.651-1.647-4.8-4.39-6.845-6.507-2.046-2.118-1.89-1.805-.866-1.49 1.022.312 3.384.705-1.417-2.588-4.8-3.293-14.036-10.537-14.301-10.977-.267-.442-.857-.03-1.594-.618-.737-.588-2.272-1.147-3.511-1.383-1.24-.234-3.277-1.351-3.336-1.44-.059-.088-6.079.941-6.934.705-.856-.236-3.334-.647-3.334-.647s-2.538-.823-3.63-1.147c-1.092-.323-1.092-.087-1.535.03-.443.118.237.412 0 .5-.235.088-.855-.058-1.564-.088-.708-.03.178-.412 0-.47-.177-.06-2.567-.03-4.309-.118-1.74-.088-2.537.47-4.189.5-1.653.029-.65-.147-.414-.324.237-.176.414-.353.62-1.175.207-.824-.502-.97-.708-1.06-.206-.087-.53-.264-1.564-.382-1.136-.131-2.28-.2-3.423-.206-1.18 0-2.803-.852-4.101-.911-1.299-.059-.355.264-.355.352 0 .09-.06.236-2.095 1-1.288.484-1.265.321-1.321.158-.032-.095-.091-.19-.449-.157-.974.087-2.627.587-2.627.587s.53.853 1.357 1.382c.827.53-.442.207-1.563.207s1.581 2.736-1.585 3.763c-3.167 1.028-11.488.411-13.111.147-.974-.159-.944.618-.944.618l.148.647-1.033.616c-1.033.619-.68 0-1.064-.88-.382-.883-1.592.734-1.592.734s-.178 0-1.919.177-.53-.06-.796-.824c-.266-.765-.206-.088-.561.118-.354.205-.856.205-1.858.264-1.005.06-.237.03-2.066.824-1.83.794-.59.765-.59.765s-.09.264-.414.675c-.325.412-.738.147-2.656-.352-1.917-.5-1.623.147-1.505.705.118.559.118.882-1.445.059-1.564-.823-1.18.294-1.417.559-.237.264-1.033.529-1.27.911-.235.382.768 1.353.768 1.353s-.943.118-1.71.03c-.768-.09-1.418.206-1.034.47.384.264-.177.323-1.18.323-1.004 0-.798-.205-1.357-.41-.562-.208-.798-.383-.916-.706-.117-.324-.442-.354-.442-.97 0-.619.384-.208-.177-.914-.561-.705.088-.47 1.061-.205.974.264 1.388.236 2.125.236.74 0 1.033 0 2.007-.088.974-.09.856-.148 1.476-.706.619-.56.324-.5.384-.647.059-.148-.739-.882-.739-.882s-1.505-.647-2.448-.883c-.945-.234-1.86-.852-3.247-.94-1.387-.09-1.062-.207-1.948-.295-.884-.087-.56-.118-1.15-.41-.59-.296.03-.442-.383-.648-.16-.08-.455-.04-.744-.003-.458.062-.896.124-.732-.291.265-.676-.531.176-.827.176-.294 0-.678-.412-1.682-.5-1.003-.088-.472.118-1.18.206-.708.089-1.24.207-1.741.412-.502.206-.768.324-1.327.265-.278-.029-.417.184-.57.397-.157.22-.325.442-.67.396-.68-.087-.118-.323-.591-.529-.472-.205-.531-.028-.648 0-.118.029-.473.735-1.034.824-.299.047-.32.027-.361.007-.035-.018-.085-.036-.346-.007-.561.059-.149.264-.443.529-.296.264-2.213 1.117-2.833 1.47-.62.353 0 0-.915.44-.914.442-1.476.854-2.744 1.942-1.27 1.087-1.063.53-1.357.853-.296.323-6.27 2.708-6.552 2.91-.531.383-.65.147-.826.617-.085.227-.294.188-.486.148-.208-.042-.4-.084-.4.206 0 .558-1.12.352-1.12.352s-.856.5-1.27.765c-.412.264-.353 1.088-.353 1.088s-.296.411-.856.588-.09.206.176.411c.266.207.208.236.178.441-.03.206-.413.206-.974.265-.561.059-.206.412.353.53.562.117.325.117.06.5-.266.381-.384.088-.797.587-.412.5.689.686.689.686s.55.472 1.81.511c1.258.04 1.141-.745 1.613-1.254.3-.325.537-.316.812-.307.156.004.326.01.526-.047.55-.157.432-.43.787-.863.354-.43.235.354.511.745.275.393.119.275-.118.745s-.237.588-.237 1.02c0 .431.158.667.276 1.412.119.744 2.952 1.656 2.952 1.656h1.81c.943 0 .806-1.142.787-1.612-.02-.47.452-.718.63-1.345.175-.628.195-.251.609-.801.271-.362.27-.301.323-.24.027.031.068.063.168.036.296-.079.836-.66 1.073-.807.235-.147.235-.15.737-.238.502-.089 0-.53 0-.53s.206-.177.414-.324c.206-.148.294-.266.412-.559.119-.295-.295-.588-.295-.588l-.825-.59.235-1.116s.885-1.147 1.092-1.235c.206-.088.383-.205 1.357-.911.974-.706.945-.47 1.594-.647.65-.177 1.446-.618 1.446-.618s1.033-.293 1.27-.47c.234-.177-.119-.56-.178-.824-.06-.264.412-.323.62-.47.207-.147.354.085.766-.357.414-.441.59.644.59.644h1.682l.739.062s.118.458-.09.605c-.206.148-2.006.625-2.006.625s-1.505 1.24-2.42 1.445c-.914.206-.855.414-1.269.797-.412.382 0 1.162 0 1.162s-.353.582-.678 1.198c-.325.619.482.937.757 1.075.276.138 2.007.254 2.007.254s.688-.04 1.692-.06c1.003-.02.452-.08 1.437-.392.983-.314 2.596-.55 2.596-.55s1.2.314 1.928.725-1.083.47-1.338.47c-.256 0-1.22.492-1.22.492s-.55.02-1.141 0c-.59-.02-.904-.177-1.85-.177-.943 0-1.06.157-1.69.332-.63.177-.728.354-1.064.785-.333.432.305 1.04.779 1.333.471.294 0 .235-.15.5-.146.264-.116.382-.824 1.088-.709.706-.325-.059-.798-.382-.472-.324-.796-.706-1.505-.706-.708 0-1.357 1.412-1.535 1.53-.176.116-.235.646-.235.646s-.56.735-.56 1.323.069.784.069.784-.158.313-.592.343c-.432.029-.864.166-.864.166s-.316.588-.355.746c-.024.1-.097.087-.269.077a2.516 2.516 0 0 0-.4.001c-.472.04-1.101-.078-1.22-.157-.118-.079.198-.706-.787-.824-.983-.116-1.573.824-2.753 1.06-1.181.234-2.922.804-3.129.804-.206 0-.265-.266-.56-.765-.295-.5-.501-.382-.59-.354-.089.03-.354 0-1.032.177-.68.177-.237.088-1.241.56-1.003.47-.384.087-.65.087-.265 0-.205 0-.943-.352-.738-.354-.206-.148-.383-.413a5.999 5.999 0 0 0-.443-.557s-.678-.03-.945 0c-.266.028-.117.205-.206.616-.088.411-.325.411-.885.824-.56.411-.56.234-1.624.558-1.062.323-.825.53-.825.53s-.178-.148-.739-.295c-.56-.146-.59.03-1.12.147-.532.118-.887.323-1.653.795-.767.47-.118.264-.502.97-.383.706-.708.47-1.594.97-.884.5-1.888 1.323-2.566 1.412-.68.088-.65.147-1.358.206-.708.059-.857 1.206-.857 1.206s-.353.588-.737.94c-.238.218-.474.143-.691.07-.134-.046-.258-.093-.37-.07-.296.059-.62.205-.74.47-.116.264 0 .264-.293.883-.296.618-.178-.03-.531-.088-.355-.059-.798-.03-.886-.265-.09-.235.088-.235.118-.53.03-.293-.295-.059-.826.148-.531.206-.207.735-.355 1.33-.147.597-.275.61-1.338.65-1.062.04-.511-.118-.511-.432 0-.313-.275-.195-.59-.195-.314 0-1.18.352-1.535.43-.354.079-.904.942-.904.942s.787.43 1.338.43c.55 0 .51.628.59.785.079.156.079.822.079.822s-.198.667-.04 1.06c.158.391.827.706.393 1.058-.432.353-.079.393-.079 1.06 0 .362-.092.155-.235-.052-.118-.172-.272-.346-.434-.185-.353.353-.04.392-.195 1.255-.158.863-.158.668-.277 1.57-.118.901-1.809 2.196-1.809 2.196H53.17c-.235 0-.884-.364-1.888-.482-1.003-.116 0-.166-2.066-.46-2.066-.294-2.773-.01-2.773-.01l-1.417.964s-1.004 1.336-1.535 1.806c-.53.47-.412 1.226-.708 2.286-.294 1.058-.53 1.053-.886 1.936-.353.882-.294.761-1.947 2.527-1.652 1.763.059 1.528-.884 2.468-.945.941.53 1.588 1.77 1.647 1.239.057 3.009 1.47 3.364 1.47.353 0 .708.292 1.416.47.709.176 1.003 0 1.18-.589.178-.588.768-.118.768-.118s1.003-.118 1.12-.88c.12-.766.297-.413.415-.589.117-.177 1.652-.412 1.652-.412s.59-.47.59-1.176.355-.413 1.12-.883c.768-.47-.057-1.47 0-2.058.038-.365.143-.322.33-.28.115.027.26.053.438-.013.473-.177.178-.123.178-.123l.059.056h1.357c1.24 0 .472-1.702.472-1.702s0-.44.118-.85c.118-.412.768-.309.945-.427.176-.116.413-.153 1.121-.153s.943-.518.943-.518.414-.671.592-.907c.176-.234.943-.482.943-.482s.237-.594.413-.887c.177-.295.06-.473.177-1.179.119-.706.06-.414.414-.648.354-.236.354-.179 1.062-.708.455-.34.325-.243.348-.146.01.054.07.109.301.087.65-.058 1.062.47 1.062.47s.592.177 1.653.47c1.062.295.709.295 1.121-.116.414-.412.974-.647 1.27-1 .294-.353.236-.088.884-.5.65-.412.208-.088.532-.5.325-.412.176-.235 1.15-.323.974-.089.916-.5 1.24-.089.325.413.56.56 1.15.677.592.118.09.53.09 1s.06.705.384 1.557c.324.853.619.97 1.357 1.294.737.323.413.382 1.033 1.47.43.755.646.647 1.092.539.197-.047.44-.096.766-.068 1.063.089.561 1.06 1.24 1.234.679.177.501.266.501.706 0 .442 0 .736.856.647.857-.088.886 1.514.886 1.676 0 .162.25.97-.266 1.28-.517.309-.162 1.132.354.94.517-.19.605-.631.605-.631s.202-.324 1.028-.676c.827-.354.432-.432.432-.432l-.353-1.137s-.355-.509-.669-.902c-.315-.391.432-.861.432-.861l1.457.116s.353.432.747.784c.393.354.55.472.787.472.236 0 .59-.432.59-.432s0-.274-1.377-1.725c-.885-.932-.893-.845-.952-.757-.034.05-.082.098-.307-.027-.63-.354-1.416-.785-1.416-.785l-.866-.861s-.55-.041-.866-.197c-.314-.157-.747-.627-.747-.627s-.355-.393-.905-.824c-.55-.43 0-.314 0-.587 0-.276.04-.354.04-.903 0-.548-.277-.47-.906-.823-.63-.353-1.023-.94-.766-1.607.255-.667.647-.588 0-1.333-.65-.745.608-.354 1.985-.275 1.377.078.906.902 1.693.51s.393-.235.511.392.197.824.316 1.764c.116.942.55.824 1.77 1.06 1.22.234.708.47 1.337 1.136.63.666 1.023.47 1.496.94.472.472.393.314 1.338.902.943.588.393.549.746.863.355.313-.038.47-.353.901-.316.432-.158 2.393.276 2.98.432.588.04.315.471.863.433.55.276.47.393.862.118.393.158.393.63 1.099.352.523.593.485.791.447.069-.014.132-.027.193-.017.237.04.511 0 1.101-.117.59-.118 1.14.235 1.14.235s.906.04 1.143.235c.235.196 1.377.666 1.533.314.158-.352.552-.236.513-.627-.04-.392-.434-.903-.434-.903s-.55-.745-.943-1.449c-.395-.706-1.18-.863-1.377-1.765-.198-.901.747-.706.668-.431-.078.274.354.863 1.141.667.787-.197.472-.393.197-.942-.142-.283.02-.242.264-.201.23.038.53.076.72-.151.393-.47.433-.157.905-.04.471.118.471-.235.787-.427.314-.192 1.1.349 1.1.349s.591.196 1.102.47c.513.275.513.236.984.196.472-.039.788-.157 1.692-.745.905-.588.236-.039 1.26 0 1.022.04 1.022 0 2.202 0s.67.433.512.51c-.087.044-.163.027-.334.01a4.073 4.073 0 0 0-.65-.01c-.708.039-.118 1.035-.157 1.423-.04.387-1.456.883-1.456.883h-2.32c-1.378 0-1.025.925-.67 1.238.354.314.158.248.04.64-.119.392-1.103.26-1.103.26s-.786.347-.511.777c.158.247.443.236.857.226.31-.008.695-.017 1.15.084 1.063.236.256 1.342.166 1.841-.087.5.208.617 1.24.617 1.034 0 .767.146 1.122.647.194.275.31.211.476.148.137-.052.308-.105.586.028.62.294 0 .882.68.882.677 0 .973.03 1.947.148.974.116.324-.295.443-1.06.117-.765.796-.675 1.976-.029 1.18.647 1.505 1.205 1.83 1.294.324.088 1.475-.03 1.859-.03.384 0 1.504-.793 2.656-1.381 1.15-.588.62 0 1.623.323 1.004.323.412-.354 1.063-.618.647-.265 0 .736.057 1.324.06.588-.057.441-.235.97-.177.53-.206.647.295.706.502.059-.325.793 0 1.646.324.852-.207.736-.443 1.383-.235.647-1.18 2.205-1.21 3.41-.03 1.205-.797 2.764-1.269 3.205-.471.441-.737.206-2.45.382-.915.094-1.323.062-1.574.03-.217-.027-.315-.055-.52 0-.443.117-.678-.089-.678-.648 0-.302-.2-.225-.502-.146-.253.066-.578.131-.915-.03-.738-.353-.471.119-1.446.119-.974 0-.088.44-.65.44-.56 0-.265 0-1.327.705-1.063.706-.53.06-2.774-.234-2.242-.295-.827.116-2.833-.588-2.007-.706-1.417-.471-3.424-.471-2.005 0-.294-.06-.471-1.058-.105-.597-.085-.482-.24-.368-.103.079-.288.158-.645.014-.5-.2-.775-.154-1.25-.109a8.114 8.114 0 0 1-1.642-.007c-1.83-.177-.296-.236-.413-.59-.118-.352-.177-.47-.826-.822-.65-.354-.827 0-2.244 0-1.416 0-1.12.234-2.419.822-1.298.59-1.18 1.412-1.061 2.118.116.705.235 1.234.175 2-.059.764-1.829 1.47-3.776.47-1.948-1-2.125-1.529-3.128-1.529-1.004 0-2.184-1.118-2.478-1.881-.296-.765-.886-1.06-.945-1.294-.06-.236-2.833-.53-2.833-.53l-3.01-.53s-.532-.175-1.298-.47c-.767-.294-.886-.588-1.712-2.058-.827-1.47 1.004-1.47 1.004-1.47s.235-.412 1.651-1.706c1.417-1.293-.353-.764-.826-1.765-.472-.999-2.124-1.43-2.124-1.43h-2.006s-1.535-.314-3.13.45c-1.592.766-1.357-.008-2.065-.42-.707-.412-2.183.436-5.547.495s-5.075 2.658-6.296 3.01c-1.22.354-1.573.212-1.967-.258-.393-.47-1.85.145-1.85.145s-3.068-.988-3.423.972c-.353 1.96-2.675 2.861-4.642 3.806-1.968.944-3.452 5.611-3.895 7.522-.443 1.912-2.834 4.293-4.132 4.469-1.298.177-2.272 1.794-2.626 2.94-.353 1.147-.855.912-1.563 2.088-.709 1.176-1.682 3.411-2.184 3.97-.502.558-.443.44-.59 1.058-.148.617-.531 1.97-1.595 4.264-1.061 2.293-.855 3.558-.767 4.322.09.765.592 2-.058 2.118-.649.116-.09.852.117 2.675.208 1.823-.088 5.264-.206 5.852-.118.588-.178 1.617-.206 2.47-.03.852-1.564 1.588-.945 2.734.62 1.147 1.092 1.911.68 2.53-.413.616 0 1.998 0 1.998s.177.618.324 1.352c.147.736.59 1.089.945.854.353-.236.412.176.294.676s-.118.706.206 1.294c.325.587.443.205.739.529.294.323.029.559.619 1.236.59.675.56 1.263 1.122 1.558.56.293.59 1.235.85 1.851.26.619.124.442.034 1.119-.088.675 0 .411.178 1.087.177.677.412.795.945 1.265.53.47-.178.734.708 1.116.884.383.441.265.796.942.354.676.443.529 1.475 1.294 1.033.765 8.026 2.91 8.814 2.714.787-.195 1.337.079 2.36.275.658.126.73.106.834.086.057-.01.124-.02.308-.007.51.04.315.04 1.18.47.866.43.393.118.905.078.511-.039.354-.314.59-.745.237-.43.433-.157.944-.43.512-.275.433-.275 1.102-.745.67-.47.983-.315 1.496-.295.511.02.825-.098.904-.608.079-.51.423-.293.63-.529.206-.236.354-.177.855-.146.502.028.798-.177.798-.177s.412-.06.825-.06c.414 0 .767.324.767-.233 0-.56.59-.295.384 0-.206.293.502 0 .827 0 .324 0 .353 0 1.475.911 1.121.911.678.94.856 1.205.177.264.324.559.708.323.384-.234-.118.588 0 1.088.118.5 0 .236.235.677.237.44.443.47.916.912.472.44.531.382.915.234.202-.077.362-.073.53-.068.151.003.307.006.503-.049.412-.117.265-.412.678 0 .414.412.217-.362.414-.559.112-.113.174-.03.372.052.144.06.362.122.73.105.865-.039.431-.353.431-.745 0-.393.472.628.985.785.51.155.59.588.471.94-.118.353.67.47 1.378.47.708 0 .393.824.866 1.177.471.352.314.234.195.822-.116.588.119 1.687-.235 2.275-.355.588.08.47-.079 1.294-.157.823.08 1.097.119 2.509.04 1.411.58 5.283 1.318 6.077.737.793.59 1.764 1.15 1.794.56.028 1.004.205 1.004.822 0 .618.56.618 1.563 1.619 1.004.999 1.476 1.587 2.185 2.587.708 1 .059.822 1.002 1.94.945 1.118 1.772 3 2.538 4.175.767 1.177 4.427 9.174 3.837 10.175-.59.999-1.417 1.411-1.512 3.116-.096 1.706.271 3.411.036 4.353-.236.94.768 2.41.768 2.41s.235 1 1.239 2.647c1.002 1.646 4.838 5.351 6.432 6.704 1.595 1.353 1.18 3.058 2.362 4.88 1.18 1.825 2.714 3.881 3.954 5.411 1.24 1.53 1.415 1 2.36 1.94.945.942 4.485 4.882 4.9 5.53.412.646-.709.587 0 1.352.706.765.884 1.294 1.533 1.117.649-.177.355.118 1.18.536.827.419.591.11 1.3-.3.708-.413.53-.06 1.533.234 1.004.294.237-.47.827-.881.59-.413.53 0 1.004.118.472.116.59.116.943.249.354.131.296-.015 1.24-.074.944-.06 0 0 .59.059s.354-.06.473-.352c.117-.295.825-.295.825-.295l1.771-.647s.531-.588 1.121-1.53c.59-.94.393-1.195 1.378-1.39.982-.196.177-.51.452-1.04.276-.529.453-.843.866-1.763.412-.922.491-1.098 1.259-1.157.767-.059.265-.412.154-.913-.112-.498.23-.793.82-1.704.59-.912-.108-.599-.03-1.657.043-.59.038-.523-.077-.455-.09.053-.252.106-.514-.172-.59-.627.315-.94.315-.94l1.023-.784 2.282-.433.67-.43s.236-.746.118-1.098c-.119-.353-.158-1.02-.158-1.02s.237-.784.237-1.136c0-.354-.08-.51-.395-.942-.314-.43 0-.313.118-1.058.119-.745-.787-1.803-1.022-2.627-.236-.823 0-.393.63-.941.63-.549.314-.51.746-.94.434-.433.787-.745 1.693-1.294.905-.549-.827.195.412-.981 1.24-1.176.296-.47 1.948-1.412 1.653-.94 2.125-.763 2.125-.763l1.357-1.06 1.298-.998.413-1.47.886-.766s.059-.47-.237-1.47-.532-1.587-.414-5.468c.071-2.346.056-2.2-.045-2.056-.067.095-.17.19-.311-.415-.2-.865-.175-.752-.307-.638-.103.086-.297.172-.758-.185-1.063-.823.11-1.529-.008-2.587-.118-1.06-.841-2.589-.841-2.589s-.277-1.058.195-1.764c.472-.706-2.076-.47-2.076-.47v-4.235l2.07-1.522s1.18-1.52 1.298-2.344c.119-.823.375-.574 1.437-1.632.58-.577.543-.517.428-.456-.096.051-.248.1-.14-.22.237-.705 1.644-.648 1.644-.648s1.223-.352 1.931-2.352c0 0 2.204-3.057 4.329-4.939 2.123-1.883 4.018-2.705 10.155-9.763 6.138-7.057 2.275-14.72 1.327-14.736-.73-.012-1.575-.024-2.464.112-2.046.314-4.17.784-4.17.784s-2.518.393-4.014.393c-1.494 0-2.281-1.098-2.281-3.765 0-2.664-3.423-6.94-3.423-6.94l-6.256-1.84s-.708-2.197-1.258-4.47c-.553-2.274-.631-2.274-2.755-3.843-2.125-1.567-2.046-2.745-1.967-5.254.079-2.508-.886-2.959-1.594-3.547-.709-.588-2.301-2.058-2.479-2.823-.177-.765-.118-.647.354-1.412.473-.764-1.18-2.235-1.18-2.235s-1.003-1.351-1.711-3.234c-.472-1.255 1.14-1.392 4.838-.411 0 0 .237 2.117 2.656 5.057 2.42 2.94 1.772 2.058 2.893 4.176 1.12 2.117.118 1.881 1.475 4.117 1.358 2.233 2.538 2 3.895 4.35 1.358 2.354 1.948 3.764 3.246 5.47 1.299 1.705 1.713.235 1.713 1.117 0 .881.176 3.294.53 4.116.354.823 1.534 4.176 3.6 4.47 2.066.294 1.594-1.647 3.247-1.824 1.652-.175.766 1.765 2.242.943 1.476-.823 1.298-.764 2.3-.706 1.005.06 1.123-.294 2.952-2.176 1.26-1.297 1.317-1.17 2.37-1.041.474.057 1.15.115 2.234.04 3.482-.234 1.671-2.056 1.671-2.056s.63-1.333 3.15-2.588c1.32-.659 1.622-.627 1.828-.594.187.029.293.06 1.003-.426 1.495-1.019.079-1.254 1.024-1.49.945-.234 1.416 0 2.125-1.568.499-1.104 2.675-1.49 2.439-3.529-.237-2.038 0-1.568 1.495-.941 1.494.627.235-1.019 1.101-3.215.866-2.194.945-2.979.472-3.606-.472-.627-2.597-1.49-2.597-1.49s-1.573-1.019-3.619-2.039c-2.046-1.019-.63-.627-1.18-1.567-.552-.942-3.148-.629-3.778.313-.63.941 0 .941-1.101 1.724-1.101.784-1.101.472-2.283.236-1.18-.236-1.338.391-2.439.47-1.1.078-.866-.706-1.416-1.882-.551-1.176-3.148-2.509-3.148-2.509l-.118-2.078-1.73-1.45c-1.733-1.45-1.18-2.195-1.18-2.195l-2.086-1.099s-1.811-3.372-.158-3.215c1.652.158 1.022-.273 1.18-1.333.09-.606.31-.247.82.11.381.267.924.534 1.698.4 1.81-.313.237.236 1.103 1.49.864 1.254 2.123 3.608 4.287 4.313 2.165.706 1.928 1.49 1.928 1.49s.511.55 2.165.94c1.653.392 1.456.197 4.29-.352 2.83-.55 1.927.274 3.42 2.43.885 1.276 3.76.95 5.786 1.334.904.17 1.509.269 1.906.322-.035.054.003.15.178.305 1.063.94 1.614-.354 1.614-.354s.392.393.669.393c.276 0 2.006-.863 3.62-.941 1.612-.079 3.698-.822 4.878 0 1.18.823.905 1.49 1.888 1.215.985-.274.787 1.02 1.496 2.666.708 1.647 1.928.354 1.928.354s.118.902.51 1.333c.395.43 1.654 1.058 2.992.9 1.338-.155.826.158.471.472-.353.313-1.809 2.155.433 4.194 2.243 2.039 2.006.471 3.58.196 1.575-.275 1.89 1.921 2.44 3.412.552 1.49.04 2.626 1.928 8.037 1.89 5.41 13.182 8.311 13.456 6.194.276-2.116-.274-2.9-.236-3.882.04-.979.197-.666.905-.666s.59-.785.827-1.333c.136-.318.26-.201.4-.086.103.084.214.169.348.086.313-.197.904-.588.982-1.333.08-.745.866-1.498.866-1.498s.59-1.717.983-2.462c.395-.745.63-.9 1.221-1.45.59-.55 1.22-.784 1.18-1.568-.04-.785 0-.315.433-.315s.63.04.866-.078c.236-.116 1.14-1.45 1.14-1.45s.119-.666.119-1.568c0-.903.118-.431.432-1.098.315-.666.236-.471.513-1.372.274-.902.785.667.785.667l.945.234 2.4-.064s2.085-.734 2.046.717c-.04 1.45.866.165.866.165s.118.492 0 .962c-.118.472 1.259 1.169 1.259 1.169l.708.937c3.83 5.694 5.797 8.176 5.902 7.445.157-1.098 1.061.745 1.535 2 .471 1.254.963 3.116 1.377 5.82.412 2.706 2.123 2.099 2.4 1.668.275-.432.315.43.315 1.058 0 .627-.04.824.274 1.176.316.353 1.417.196 1.654.666.235.472.669 1.766.669 1.766s.195.822.314 1.881c.118 1.058 2.715 2 2.99.98.131-.484.305-.474.533-.463.252.012.569.024.962-.635.747-1.254.826-2.666 1.063-3.684.235-1.02.156-1.726.156-2.354 0-.627-.156-2.194-.393-3.449-.235-1.255-.314-.863-1.022-3.371-.708-2.51-2.204-5.608-2.636-6.431-.434-.822-.237-2-.118-3.372.118-1.372 4.052-3.606 4.17-5.724.117-2.117 1.26-1.803 2.382-3.057 1.122-1.255 0-2.666 0-2.666s-.414-2.196-.335-3.53l-.001.001z"/>
            <path d="M133.109 265.272c73.514 0 133.11-59.383 133.11-132.636 0 73.253-59.596 132.636-133.11 132.636m131.192-155.195c-.027-.163-.056-.322-.084-.483.028.16.057.321.084.483"/>
            <path fill="#FFFFFE" fill-rule="nonzero" d="M49.99 29.032C72.116 11.382 100.02.626 130.422.026c-30.404.6-58.306 11.356-80.434 29.006"/>
            <path fill="#B6B8DB" fill-rule="nonzero" d="M224.13 37.683l-.093-.003a138.051 138.051 0 0 0-3.067-2.208c-.5-.712-1.01-1.421-1.524-2.124.787.57 1.526 1.094 2.182 1.545 3.312 2.271 3.216 2.79 2.502 2.79"/>
            <path fill="#8487B4" fill-rule="nonzero" d="M102 165h23v39h-23v-39zm55-122h64v28h-64V43z"/>
        </g>
        <path fill="#6EC0B0" fill-rule="nonzero" d="M292.848 70.405a2 2 0 1 1 .347 3.984l-.996.087a2 2 0 0 1-.347-3.985l.996-.086zm11.045-.751a2 2 0 0 1 .216 3.994l-.998.054a2 2 0 0 1-.217-3.994l.999-.054zm11.07-.356a2 2 0 0 1 .063 4l-1 .016a2 2 0 0 1-.063-4l1-.016zm11.1.115a2 2 0 1 1-.12 3.998l-.999-.03a2 2 0 0 1 .12-3.998l1 .03h-.001zm11.084.694a2 2 0 0 1-.349 3.985l-.996-.087a2 2 0 0 1 .349-3.985l.996.087zm11.063 1.448a2 2 0 1 1-.65 3.947l-.987-.163a2 2 0 1 1 .65-3.947l.987.163zm10.947 2.489a2 2 0 0 1-1.073 3.853l-.964-.268a2 2 0 0 1 1.073-3.853l.964.268zm10.578 4.043a2 2 0 0 1-1.712 3.614l-.904-.428a2 2 0 1 1 1.713-3.615l.903.429zm9.525 6.597a2 2 0 1 1-2.716 2.937l-.734-.679a2 2 0 1 1 2.715-2.937l.735.679zm6.15 10.282a2 2 0 0 1-3.808 1.225l-.306-.952a2 2 0 0 1 3.808-1.225l.306.952zm.004 11.934a2 2 0 0 1-3.92-.789l.196-.98a2 2 0 1 1 3.922.789l-.198.98zm-4.404 10.706a2 2 0 0 1-3.509-1.921l.48-.877a2 2 0 0 1 3.509 1.92l-.48.878zm-6.505 9.335a2 2 0 0 1-3.13-2.49l.622-.783a2 2 0 1 1 3.13 2.49l-.622.783zm-15.733 15.822a2 2 0 0 1-2.623-3.02l.755-.656a2 2 0 0 1 2.623 3.02l-.755.656zm-8.646 6.996a2 2 0 0 1-2.446-3.165l.791-.611a2 2 0 0 1 2.446 3.165l-.791.611zm-8.972 6.543a2 2 0 1 1-2.298-3.274l.818-.574a2 2 0 1 1 2.299 3.273l-.819.575zm-9.23 6.167a2 2 0 0 1-2.171-3.359l.84-.543a2 2 0 1 1 2.171 3.36l-.84.542zm-9.42 5.832a2 2 0 0 1-2.061-3.429l.857-.515a2 2 0 1 1 2.06 3.428l-.857.516h.001zm-9.591 5.542a2 2 0 1 1-1.962-3.487l.872-.49a2 2 0 1 1 1.961 3.486l-.871.49v.001zm-9.732 5.278a2 2 0 0 1-1.87-3.536l.883-.467a2 2 0 1 1 1.87 3.535l-.883.468zm-9.806 5.013a2 2 0 1 1-1.787-3.579l.894-.446a2 2 0 1 1 1.787 3.578l-.894.447zm-9.904 4.786a2 2 0 0 1-1.708-3.617l.904-.427a2 2 0 1 1 1.708 3.616l-.904.428zm-10.028 4.589a2 2 0 0 1-1.634-3.651l.912-.409a2 2 0 1 1 1.635 3.651l-.913.409zm-10.144 4.4a2 2 0 1 1-1.563-3.681l.92-.391a2 2 0 0 1 1.564 3.682l-.92.39h-.001zm-10.203 4.2a2 2 0 1 1-1.495-3.71l.928-.373a2 2 0 0 1 1.494 3.71l-.927.374v-.001zm-10.283 4.016a2 2 0 1 1-1.428-3.736l.935-.357a2 2 0 0 1 1.428 3.736l-.935.357zm-10.349 3.834a2 2 0 0 1-1.362-3.76l.94-.342a2 2 0 0 1 1.363 3.761l-.94.34-.001.001zm-10.408 3.654a2 2 0 1 1-1.299-3.783l.946-.325a2 2 0 0 1 1.3 3.783l-.947.325zm-10.481 3.484a2 2 0 0 1-1.236-3.805l.951-.309a2 2 0 0 1 1.236 3.805l-.951.309zm-10.537 3.308a2 2 0 1 1-1.172-3.825l.956-.293a2 2 0 0 1 1.172 3.825l-.956.293zm-10.576 3.126a2 2 0 0 1-1.107-3.844l.96-.277a2 2 0 0 1 1.108 3.844l-.961.277zm-10.634 2.945a2 2 0 0 1-1.04-3.863l.966-.26a2 2 0 0 1 1.04 3.863l-.966.26zm-10.686 2.757a2 2 0 1 1-.97-3.88l.97-.243a2 2 0 0 1 .97 3.88l-.97.243zm-10.73 2.561a2 2 0 1 1-.899-3.898l.975-.224a2 2 0 1 1 .898 3.897l-.974.225zm-10.8 2.36a2 2 0 0 1-.822-3.914l.978-.205a2 2 0 1 1 .823 3.914l-.978.206-.001-.001zm-10.833 2.143a2 2 0 1 1-.742-3.931l.983-.186a2 2 0 0 1 .742 3.93l-.983.187zm-10.863 1.908a2 2 0 0 1-.656-3.946l.986-.164a2 2 0 1 1 .656 3.946l-.986.164zm-10.932 1.664a2 2 0 1 1-.563-3.96l.99-.14a2 2 0 0 1 .563 3.96l-.99.14zm-10.96 1.39a2 2 0 0 1-.46-3.973l.993-.115a2 2 0 1 1 .461 3.973l-.993.115h-.001zm-11.015 1.09a2 2 0 0 1-.345-3.984l.996-.087a2 2 0 0 1 .346 3.985l-.997.087v-.001zm-11.045.749a2 2 0 1 1-.216-3.995l.999-.053a2 2 0 1 1 .215 3.994l-.998.054zm-11.072.352a2 2 0 0 1-.062-4l1-.015a2 2 0 0 1 .062 4l-1 .015zm-11.08-.118a2 2 0 0 1 .12-3.998l1 .03a2 2 0 1 1-.12 3.998l-1-.03zm-11.091-.699a2 2 0 1 1 .35-3.985l.997.088a2 2 0 1 1-.35 3.985l-.997-.088zM37.66 241.18a2 2 0 0 1 .652-3.947l.987.163a2 2 0 0 1-.653 3.947l-.986-.163zm-10.95-2.499a2 2 0 1 1 1.076-3.852l.964.27a2 2 0 1 1-1.077 3.852l-.963-.27zm-10.576-4.056a2 2 0 0 1 1.719-3.612l.903.43a2 2 0 1 1-1.719 3.611l-.903-.43v.001zm-9.509-6.618a2 2 0 0 1 2.724-2.93l.732.681a2 2 0 0 1-2.723 2.93l-.733-.68v-.001zm-6.103-10.26a2 2 0 0 1 3.81-1.218l.305.953a2 2 0 0 1-3.81 1.218l-.305-.953zm.013-11.935a2 2 0 1 1 3.92.794l-.198.98a2 2 0 0 1-3.92-.794l.198-.98zM4.95 195.11a2 2 0 0 1 3.507 1.924l-.481.876a2 2 0 0 1-3.507-1.923l.48-.877h.001zm6.51-9.331a2 2 0 1 1 3.128 2.491l-.622.783a2 2 0 1 1-3.13-2.492l.623-.782h.001zm7.592-8.322a2 2 0 1 1 2.842 2.815l-.704.71a2 2 0 0 1-2.842-2.814l.704-.71v-.001zm8.137-7.49a2 2 0 1 1 2.623 3.02l-.755.656a2 2 0 0 1-2.623-3.02l.755-.656zm8.649-6.996a2 2 0 1 1 2.445 3.166l-.791.611a2 2 0 0 1-2.446-3.165l.792-.612zm8.976-6.545a2 2 0 0 1 2.298 3.274l-.818.575A2 2 0 0 1 43.996 157l.818-.575v.001z"/>
        <path fill="#6EC0B0" fill-rule="nonzero" d="M68.08 109.842a2 2 0 0 1 3.277-2.293l.573.82a2 2 0 1 1-3.277 2.292l-.573-.819zm-6.173-9.19a2 2 0 1 1 3.351-2.184l.546.838a2 2 0 1 1-3.35 2.184l-.547-.838zm-5.843-9.408a2 2 0 0 1 3.432-2.055l.514.858a2 2 0 1 1-3.432 2.055l-.514-.858zm-5.45-9.671a2 2 0 0 1 3.522-1.896l.474.881a2 2 0 1 1-3.523 1.896l-.474-.881h.001zm-4.941-9.946a2 2 0 1 1 3.625-1.69l.423.906a2 2 0 1 1-3.626 1.69l-.422-.906zm-4.278-10.305a2 2 0 1 1 3.743-1.41l.353.936a2 2 0 1 1-3.743 1.41l-.353-.936zm-3.318-10.724a2 2 0 0 1 3.874-.998l.25.969a2 2 0 0 1-3.874.997l-.25-.968zM36.29 39.415a2 2 0 1 1 3.987-.324l.08.996a2 2 0 1 1-3.986.325l-.081-.997zm.951-11.547a2 2 0 1 1 3.901.883l-.22.975a2 2 0 1 1-3.902-.883l.221-.975zM43.07 17.4a2 2 0 0 1 2.964 2.686l-.671.74a2 2 0 0 1-2.965-2.685l.672-.74V17.4zm10.333-5.97a2 2 0 1 1 1.277 3.79l-.948.32a2 2 0 0 1-1.277-3.791l.948-.32v.001zm11.473-1.54a2 2 0 1 1 .09 4l-.999.022a2 2 0 0 1-.09-3.999l1-.023h-.001zm11.337.966a2 2 0 1 1-.591 3.956l-.99-.148a2 2 0 0 1 .592-3.956l.99.148h-.001zm11.004 2.411a2 2 0 0 1-1.015 3.87l-.967-.255a2 2 0 0 1 1.015-3.869l.967.254zm10.565 3.303a2 2 0 1 1-1.304 3.782l-.945-.326a2 2 0 0 1 1.303-3.782l.946.326zm10.382 3.99a2 2 0 1 1-1.518 3.7l-.925-.379a2 2 0 1 1 1.518-3.7l.925.38v-.001zm10.152 4.498a2 2 0 0 1-1.686 3.627l-.907-.421a2 2 0 0 1 1.686-3.627l.907.421zm9.956 4.91a2 2 0 1 1-1.823 3.56l-.89-.456a2 2 0 1 1 1.823-3.56l.89.456zm9.76 5.243a2 2 0 0 1-1.938 3.499l-.875-.485a2 2 0 0 1 1.939-3.499l.875.485h-.001zm9.595 5.535a2 2 0 0 1-2.038 3.441l-.86-.51a2 2 0 0 1 2.038-3.44l.86.509zm9.438 5.789a2 2 0 1 1-2.127 3.387l-.847-.531a2 2 0 0 1 2.127-3.388l.847.532zm9.244 5.985a2 2 0 1 1-2.206 3.337l-.834-.551a2 2 0 0 1 2.206-3.337l.834.551zm9.096 6.184a2 2 0 0 1-2.278 3.288l-.822-.569a2 2 0 0 1 2.278-3.288l.822.57v-.001zm8.989 6.39a2 2 0 0 1-2.345 3.241l-.81-.586a2 2 0 0 1 2.344-3.24l.81.585h.001zm8.883 6.585a2 2 0 0 1-2.407 3.194l-.799-.602a2 2 0 0 1 2.407-3.194l.799.602zm8.739 6.736a2 2 0 0 1-2.466 3.15l-.787-.617a2 2 0 0 1 2.466-3.15l.787.617zm8.619 6.897a2 2 0 0 1-2.522 3.105l-.776-.63a2 2 0 1 1 2.521-3.105l.777.63zm8.494 7.046a2 2 0 0 1-2.575 3.06l-.765-.643a2 2 0 0 1 2.575-3.061l.765.644zm8.369 7.186a2 2 0 0 1-2.627 3.017l-.754-.657a2 2 0 0 1 2.627-3.016l.754.656zm8.257 7.336a2 2 0 1 1-2.676 2.972l-.743-.669a2 2 0 0 1 2.676-2.972l.743.669zm8.134 7.47a2 2 0 0 1-2.727 2.928l-.731-.681a2 2 0 1 1 2.726-2.928l.732.682v-.001zm7.995 7.597a2 2 0 1 1-2.775 2.88l-.72-.693a2 2 0 0 1 2.775-2.88l.72.693zm7.867 7.737a2 2 0 0 1-2.824 2.832l-.708-.707a2 2 0 0 1 2.824-2.831l.708.706zm7.731 7.875a2 2 0 0 1-2.875 2.781l-.695-.719a2 2 0 1 1 2.875-2.78l.695.718zm7.583 8.013a2 2 0 0 1-2.926 2.727l-.682-.732a2 2 0 0 1 2.927-2.727l.681.732zm7.444 8.172a2 2 0 0 1-2.978 2.67l-.668-.745a2 2 0 0 1 2.979-2.67l.667.745zm7.272 8.31a2 2 0 0 1-3.033 2.609l-.652-.758a2 2 0 0 1 3.033-2.608l.652.758v-.001zm7.084 8.454a2 2 0 1 1-3.089 2.542l-.635-.772a2 2 0 1 1 3.089-2.542l.635.772zm6.907 8.636a2 2 0 1 1-3.148 2.467l-.617-.787a2 2 0 0 1 3.148-2.467l.617.787zm6.684 8.796a2 2 0 1 1-3.21 2.385l-.597-.803a2 2 0 1 1 3.21-2.385l.597.803zm6.452 8.994a2 2 0 0 1-3.278 2.292l-.573-.82a2 2 0 1 1 3.278-2.292l.573.82zm6.17 9.192a2 2 0 1 1-3.35 2.183l-.547-.837a2 2 0 0 1 3.352-2.184l.546.838h-.001zm5.841 9.412a2 2 0 1 1-3.432 2.054l-.513-.858a2 2 0 0 1 3.432-2.054l.513.858zm5.438 9.655a2 2 0 1 1-3.522 1.894l-.474-.88a2 2 0 0 1 3.523-1.895l.473.88v.001zm4.94 9.954a2 2 0 1 1-3.625 1.69l-.423-.907a2 2 0 0 1 3.626-1.69l.423.907h-.001zm4.273 10.306a2 2 0 0 1-3.744 1.408l-.352-.935a2 2 0 1 1 3.743-1.409l.353.936zm3.31 10.732a2 2 0 0 1-3.874.994l-.248-.969a2 2 0 0 1 3.874-.993l.249.968h-.001zm1.775 11.187a2 2 0 0 1-3.987.318l-.08-.997a2 2 0 1 1 3.988-.318l.08.997h-.001zm-.976 11.544a2 2 0 0 1-3.899-.894l.224-.974a2 2 0 0 1 3.899.893l-.224.975zm-5.834 10.415a2 2 0 0 1-2.96-2.69l.673-.74a2 2 0 0 1 2.96 2.69l-.673.74zm-10.343 5.957a2 2 0 1 1-1.272-3.792l.948-.319a2 2 0 0 1 1.272 3.793l-.948.318zm-11.475 1.528a2 2 0 0 1-.088-4l1-.021a2 2 0 1 1 .088 3.999l-1 .022zm-11.336-.972a2 2 0 0 1 .593-3.956l.99.149a2 2 0 1 1-.594 3.955l-.989-.148zm-11.003-2.414a2 2 0 1 1 1.017-3.87l.967.255a2 2 0 0 1-1.017 3.869l-.967-.254zm-10.555-3.303a2 2 0 0 1 1.304-3.781l.945.326a2 2 0 0 1-1.303 3.781l-.946-.326zm-10.383-3.992a2 2 0 0 1 1.519-3.7l.925.38a2 2 0 0 1-1.519 3.7l-.925-.38zm-10.156-4.501a2 2 0 1 1 1.686-3.627l.907.421a2 2 0 0 1-1.687 3.627l-.906-.421z"/>
        <path fill="#6EC0B0" fill-rule="nonzero" d="M167.033 297.071c-.716.845-1.93.962-2.712.263-.782-.699-.835-1.95-.12-2.794l.648-.765c.716-.844 1.93-.962 2.712-.263.782.7.835 1.95.12 2.795l-.648.764zm-7.067 8.034c-.74.824-1.949.905-2.7.182-.751-.723-.76-1.977-.02-2.8l.67-.746c.74-.823 1.949-.905 2.7-.181.751.723.76 1.977.02 2.8l-.67.745zm-7.078 7.039c-.767.798-1.968.837-2.683.086-.714-.75-.672-2.006.095-2.804l.694-.723c.767-.799 1.968-.838 2.683-.087.714.75.672 2.007-.095 2.805l-.694.723zm-8.096 7.044c-.797.768-1.986.755-2.655-.028-.67-.782-.566-2.04.23-2.807l.723-.695c.797-.767 1.986-.755 2.655.028.67.783.566 2.04-.23 2.807l-.723.695zm-8.12 7.053c-.832.727-2.002.65-2.614-.171-.612-.822-.433-2.078.399-2.806l.753-.658c.832-.728 2.002-.651 2.614.17.612.823.433 2.079-.399 2.806l-.753.659zm-9.16 6.064c-.874.672-2.014.511-2.547-.36-.533-.872-.257-2.123.615-2.795l.79-.609c.874-.672 2.014-.51 2.547.36.533.872.257 2.123-.615 2.796l-.79.608zm-8.962 5.725c-1.04.526-2.365.116-2.96-.917-.597-1.032-.237-2.295.802-2.82l.94-.477c1.04-.526 2.365-.115 2.96.917.597 1.032.237 2.295-.802 2.821l-.94.476zm-9.752 3.747c-1.034.22-2.24-.386-2.696-1.355-.455-.969.013-1.933 1.047-2.153l.935-.2c1.034-.22 2.24.387 2.696 1.356.455.968-.013 1.932-1.047 2.153l-.935.2v-.001zm-11.7.972c-1.098-.04-2.058-.897-2.144-1.915-.086-1.019.735-1.812 1.834-1.772l.995.036c1.099.04 2.06.897 2.145 1.915.086 1.018-.735 1.811-1.834 1.772l-.995-.036h-.001zm-11.041-3.3a2 2 0 1 1 1.887-3.523l.881.472a2 2 0 1 1-1.887 3.523l-.881-.472zm-8.526-8.03c-.646-.89-.445-2.014.449-2.51.893-.496 2.14-.176 2.786.714l.585.805c.646.89.445 2.013-.449 2.51-.893.495-2.14.176-2.786-.714l-.585-.806v.001zm-4.185-10.644c-.394-.98.144-1.907 1.202-2.07 1.059-.163 2.236.5 2.63 1.48l.358.886c.394.98-.144 1.907-1.202 2.07-1.059.164-2.236-.499-2.63-1.479l-.358-.887zm-2.624-10.227c-.143-1.155.704-2.158 1.893-2.24 1.19-.082 2.27.789 2.414 1.944l.13 1.046c.144 1.156-.703 2.159-1.892 2.24-1.19.082-2.27-.788-2.414-1.944l-.13-1.046h-.001zm-.597-11.543c.07-1.1.954-2.027 1.975-2.07 1.02-.044 1.79.811 1.72 1.911l-.063.995c-.07 1.1-.954 2.027-1.975 2.071-1.02.044-1.79-.812-1.72-1.911l.063-.996zm1.025-10.165c.138-1.097 1.08-1.947 2.104-1.899 1.023.048 1.74.976 1.603 2.073l-.125.992c-.138 1.097-1.08 1.947-2.104 1.9-1.023-.049-1.74-.977-1.603-2.073l.125-.993zm1.024-10.123c.191-1.09 1.175-1.878 2.199-1.76 1.023.117 1.698 1.096 1.507 2.186l-.172.987c-.191 1.09-1.175 1.878-2.199 1.76-1.023-.117-1.698-1.096-1.508-2.186l.173-.987zm1.022-11.097c.234-1.082 1.251-1.819 2.273-1.646 1.022.173 1.661 1.19 1.428 2.273l-.211.98c-.234 1.081-1.251 1.819-2.273 1.646-1.022-.173-1.661-1.19-1.428-2.273l.211-.98zm2.02-10.079c.27-1.074 1.315-1.767 2.334-1.548 1.02.218 1.628 1.266 1.359 2.34l-.244.972c-.269 1.074-1.314 1.767-2.333 1.549-1.02-.219-1.628-1.267-1.359-2.34l.244-.973h-.001zm3.02-10.066c.3-1.066 1.367-1.72 2.384-1.463 1.017.257 1.598 1.33 1.298 2.395l-.272.965c-.3 1.065-1.367 1.72-2.384 1.463-1.017-.258-1.598-1.33-1.298-2.396l.272-.964zm3.018-10.058c.327-1.057 1.414-1.678 2.428-1.386 1.013.291 1.57 1.385 1.243 2.442l-.297.957c-.327 1.057-1.414 1.677-2.428 1.386-1.013-.292-1.57-1.385-1.243-2.442l.297-.957zm3.017-10.051c.352-1.05 1.456-1.639 2.466-1.317 1.01.322 1.545 1.434 1.193 2.482l-.319.95c-.352 1.049-1.456 1.638-2.466 1.316-1.01-.322-1.545-1.433-1.193-2.482l.319-.95v.001zm3.016-10.046c.375-1.041 1.494-1.602 2.501-1.252 1.007.35 1.52 1.476 1.146 2.517l-.34.942c-.374 1.04-1.493 1.601-2.5 1.252-1.007-.35-1.52-1.477-1.146-2.517l.34-.942h-.001zm3.016-10.042c.395-1.033 1.53-1.567 2.533-1.192s1.496 1.515 1.1 2.548l-.357.935c-.395 1.033-1.53 1.566-2.533 1.191-1.003-.374-1.496-1.515-1.1-2.548l.357-.934zm4.016-10.04c.414-1.024 1.561-1.532 2.561-1.134 1 .398 1.474 1.552 1.06 2.576l-.377.928c-.414 1.025-1.561 1.532-2.561 1.134-1-.398-1.474-1.551-1.06-2.576l.377-.927v-.001zm4.015-9.036c.434-1.017 1.593-1.5 2.589-1.08.996.421 1.452 1.586 1.018 2.602l-.393.92c-.434 1.017-1.593 1.5-2.589 1.08-.996-.42-1.452-1.585-1.018-2.602l.393-.92zm4.015-10.035c.452-1.008 1.622-1.468 2.614-1.026.992.441 1.43 1.617.979 2.625l-.409.913c-.452 1.009-1.622 1.468-2.614 1.027-.992-.442-1.43-1.617-.979-2.626l.409-.913zm4.015-9.033c.47-1 1.65-1.436 2.639-.975.988.462 1.409 1.647.94 2.648l-.425.905c-.47 1-1.65 1.437-2.639.975-.988-.461-1.409-1.647-.94-2.647l.425-.906zm5.015-10.031a1.993 1.993 0 0 1 2.662-.925 1.99 1.99 0 0 1 .902 2.668l-.44.898a1.993 1.993 0 0 1-2.662.925 1.99 1.99 0 0 1-.902-2.668l.44-.898zm5.015-9.03a1.996 1.996 0 0 1 2.684-.876c.98.5 1.367 1.703.864 2.687l-.454.89a1.996 1.996 0 0 1-2.684.876 1.996 1.996 0 0 1-.864-2.687l.454-.89zm4.016-9.03a2 2 0 0 1 3.532 1.878l-.47.883a2 2 0 0 1-3.532-1.878l.47-.883zm5.03-9.022a1.996 1.996 0 0 1 2.711-.785c.963.536 1.31 1.75.775 2.714l-.485.875a1.996 1.996 0 0 1-2.71.786 1.996 1.996 0 0 1-.775-2.715l.485-.875h-.001zm6.032-9.021a1.99 1.99 0 0 1 2.716-.744 1.993 1.993 0 0 1 .72 2.724l-.498.867a1.99 1.99 0 0 1-2.716.743 1.993 1.993 0 0 1-.72-2.723l.498-.867zm5.032-9.022c.568-.948 1.786-1.262 2.72-.7.936.56 1.234 1.784.667 2.732l-.513.859c-.568.948-1.786 1.261-2.72.7-.936-.561-1.234-1.785-.667-2.733l.513-.858zm5.034-9.022c.584-.938 1.803-1.232 2.724-.656.92.576 1.194 1.803.61 2.741l-.528.85c-.584.938-1.803 1.232-2.724.656-.92-.576-1.194-1.803-.61-2.742l.528-.849zm6.036-9.023c.6-.927 1.82-1.2 2.726-.61.905.591 1.152 1.822.552 2.75l-.544.84c-.6.928-1.82 1.201-2.726.61-.905-.59-1.152-1.822-.552-2.75l.544-.84zm6.037-9.023c.617-.917 1.839-1.168 2.728-.562.889.607 1.109 1.841.491 2.758l-.559.83c-.617.917-1.839 1.169-2.728.562-.889-.606-1.109-1.84-.491-2.758l.559-.83zm6.04-8.024c.635-.905 1.856-1.134 2.728-.511.871.623 1.063 1.861.427 2.766l-.575.82c-.635.904-1.856 1.133-2.728.51-.871-.622-1.063-1.86-.427-2.765l.575-.82zm6.042-8.025c.654-.892 1.875-1.097 2.728-.457.852.64 1.013 1.882.36 2.774l-.592.807c-.654.893-1.875 1.097-2.728.457-.852-.64-1.013-1.881-.36-2.773l.592-.808zm6.047-9.027c.673-.877 1.893-1.056 2.725-.398.831.658.96 1.903.286 2.781l-.61.795c-.672.878-1.892 1.056-2.724.398-.831-.658-.96-1.903-.286-2.78l.61-.796h-.001zm7.052-8.028c.694-.862 1.911-1.012 2.72-.334.807.678.9 1.926.206 2.788l-.628.78c-.694.863-1.911 1.012-2.72.335-.807-.678-.9-1.926-.206-2.788l.628-.781zm7.058-8.031c.716-.844 1.93-.962 2.711-.262.782.699.835 1.95.12 2.794l-.649.765c-.716.844-1.93.961-2.712.262-.781-.7-.834-1.95-.118-2.795l.648-.764zm7.067-7.034c.74-.823 1.948-.904 2.7-.181.75.723.759 1.977.019 2.8l-.67.746c-.74.823-1.95.904-2.7.18-.751-.723-.76-1.977-.02-2.8l.67-.745h.001zm7.078-8.039c.767-.798 1.968-.836 2.682-.085.714.75.672 2.006-.096 2.805l-.694.722c-.767.798-1.968.837-2.682.086s-.672-2.007.095-2.805l.695-.723zm8.095-7.044c.798-.767 1.986-.755 2.656.029.669.783.565 2.04-.232 2.807l-.722.695c-.798.767-1.986.754-2.656-.029-.669-.783-.565-2.04.232-2.807l.722-.695zm8.12-6.053c.833-.727 2.003-.65 2.615.172.611.823.432 2.079-.4 2.806l-.754.658c-.832.727-2.002.65-2.614-.172-.611-.822-.432-2.078.4-2.805l.754-.659h-.001zm9.162-6.064c.873-.672 2.013-.51 2.545.362.533.872.257 2.123-.616 2.795l-.791.608c-.873.672-2.013.51-2.545-.362-.533-.872-.257-2.123.616-2.795l.791-.608zm8.963-5.725c1.04-.525 2.364-.114 2.959.919.595 1.033.234 2.295-.806 2.82l-.94.476c-1.04.525-2.365.113-2.96-.92-.595-1.032-.234-2.295.806-2.82l.94-.475h.001zm9.753-3.747c1.034-.219 2.24.39 2.693 1.359.454.969-.017 1.932-1.05 2.151l-.937.198c-1.034.22-2.24-.389-2.693-1.358-.454-.97.017-1.932 1.05-2.151l.937-.199zM255.789.1c1.1.041 2.057.901 2.14 1.92.082 1.018-.742 1.81-1.841 1.767l-.995-.038c-1.1-.042-2.057-.902-2.14-1.92-.082-1.018.742-1.81 1.841-1.768l.995.038V.1zm11.038 3.3a1.999 1.999 0 1 1-1.892 3.519l-.88-.474a1.999 1.999 0 1 1 1.892-3.519l.88.474zm8.525 9.03c.645.89.442 2.013-.452 2.508-.894.494-2.142.173-2.786-.717l-.584-.806c-.645-.89-.442-2.014.452-2.508.894-.495 2.142-.174 2.786.717l.584.806zm4.184 9.642c.394.98-.145 1.906-1.204 2.069-1.058.162-2.236-.5-2.63-1.481l-.356-.887c-.394-.98.145-1.907 1.204-2.069 1.058-.162 2.236.5 2.63 1.48l.356.888zm2.624 11.226c.143 1.156-.705 2.158-1.894 2.24-1.19.08-2.27-.79-2.414-1.946l-.13-1.046c-.143-1.155.705-2.158 1.894-2.239 1.19-.081 2.27.79 2.414 1.945l.13 1.046zm.597 10.543c-.07 1.1-.955 2.026-1.975 2.07-1.02.044-1.791-.813-1.72-1.912l.063-.996c.07-1.1.955-2.026 1.975-2.07 1.02-.043 1.791.813 1.72 1.913l-.063.995zm-1.025 10.165c-.139 1.096-1.08 1.946-2.104 1.898-1.023-.048-1.741-.976-1.603-2.073l.125-.992c.139-1.097 1.08-1.947 2.104-1.899 1.023.049 1.741.976 1.603 2.073l-.125.993zm-1.024 11.123c-.191 1.09-1.176 1.878-2.2 1.76-1.023-.117-1.697-1.097-1.507-2.187l.173-.986c.191-1.09 1.176-1.879 2.2-1.76 1.023.117 1.697 1.096 1.507 2.186l-.173.987z"/>
        <path fill="#FFC520" fill-rule="nonzero" d="M140.845 232.3c10.268 29.235 42.599 44.507 72.213 34.111 29.615-10.396 45.298-42.524 35.03-71.76-10.269-29.235-42.6-44.507-72.214-34.111-29.615 10.396-45.298 42.524-35.03 71.76h.001z"/>
        <path fill="#CCD4D6" fill-rule="nonzero" d="M214.37 271.305c-32.181 11.079-67.204-5.562-78.356-37.31a60.312 60.312 0 0 1-3.255-24.615 117.424 117.424 0 0 1 21.762-42.378 62.478 62.478 0 0 1 20.041-11.356c32.18-11.08 67.204 5.562 78.356 37.31a60.271 60.271 0 0 1 2.751 29.057 68.452 68.452 0 0 0-6.929 7.475c3.41-11.028 3.447-23.163-.652-34.836-10.23-29.125-42.36-44.393-71.881-34.228l-.333.116c-29.615 10.396-45.298 42.524-35.03 71.76 10.23 29.124 42.359 44.39 71.881 34.227l.333-.116c9.894-3.473 18.235-9.374 24.57-16.78a67.527 67.527 0 0 0-2.6 9.79c-5.787 5.02-12.611 9.06-20.295 11.759l-.363.125"/>
        <path fill="#F1A553" fill-rule="nonzero" d="M212.856 266.834c-29.814 10.264-62.224-5.046-72.51-34.325-10.322-29.391 5.554-61.727 35.461-72.225l.337-.118c29.814-10.265 62.224 5.046 72.51 34.325 4.12 11.736 4.066 23.941.608 35.038a57.318 57.318 0 0 1-11.244 20.275c-6.406 7.459-14.833 13.405-24.825 16.914l-.337.116M177.95 165.412l-.303.106c-27.014 9.482-41.366 38.65-32.059 65.15 9.275 26.402 38.533 40.193 65.464 30.92l.304-.105c27.013-9.483 41.365-38.652 32.058-65.152-9.275-26.4-38.533-40.192-65.464-30.919"/>
        <path fill="#FFB63F" fill-rule="nonzero" d="M212.885 266.438c-29.614 10.395-61.946-4.878-72.215-34.113-10.267-29.236 5.416-61.363 35.03-71.76 29.615-10.396 61.946 4.877 72.215 34.112 10.267 29.236-5.416 61.364-35.03 71.76v.001zm-40.938-116.56c-35.593 12.495-54.442 51.11-42.102 86.247 12.342 35.138 51.2 53.493 86.794 41 35.592-12.496 54.441-51.11 42.102-86.248-12.343-35.137-51.201-53.493-86.794-41v.001z"/>
        <path fill="#6EC0B0" fill-rule="nonzero" d="M208.142 189.654a7.03 7.03 0 0 1 3.38-2.467 6.94 6.94 0 0 1 4.97.126c1.75.709 2.994 2.094 3.647 3.989.287.834.423 1.821.44 3.07l-.555 32.354a6.812 6.812 0 0 1-1.656 4.441 8.456 8.456 0 0 1-3.755 2.547c-1.495.514-3.016.618-4.517.292a6.849 6.849 0 0 1-4.005-2.498l-9.525-12.18-.229 15.625a7.108 7.108 0 0 1-1.668 4.365 8.214 8.214 0 0 1-3.688 2.535c-1.495.515-3.017.616-4.518.29a6.823 6.823 0 0 1-3.978-2.462l-20.448-25.192a8.876 8.876 0 0 1-1.43-2.571c-.672-1.954-.504-3.874.527-5.557a7.438 7.438 0 0 1 4.005-3.203 7.5 7.5 0 0 1 4.199-.219c1.524.355 2.827 1.226 3.844 2.54l10.313 13.251.267-16.916c.01-1.595.468-3.034 1.371-4.239a7.03 7.03 0 0 1 3.381-2.467 6.893 6.893 0 0 1 4.176-.12c1.444.405 2.68 1.284 3.684 2.58l10.321 13.495.075-17.166c.01-1.6.469-3.037 1.372-4.243z"/>
        <path fill="#FFCE42" fill-rule="nonzero" d="M345.888 144.208c2.129 6.063 8.761 9.256 14.814 7.13 6.052-2.124 9.233-8.763 7.103-14.827-2.129-6.064-8.761-9.257-14.814-7.131-6.052 2.125-9.232 8.764-7.103 14.828z"/>
        <path fill="#CCD4D6" fill-rule="nonzero" d="M360.975 152.354c-6.577 2.264-13.762-1.215-16.074-7.8a12.669 12.669 0 0 1-.69-5.1c.858-3.19 2.36-6.17 4.415-8.756a12.605 12.605 0 0 1 4.018-2.307l.074-.026c6.577-2.265 13.762 1.215 16.075 7.8.702 2 .874 4.058.59 6.02-.51.48-.982.995-1.412 1.54a11.6 11.6 0 0 0-.166-7.214c-2.12-6.04-8.712-9.232-14.746-7.155l-.068.024c-6.052 2.125-9.232 8.764-7.103 14.828 2.12 6.04 8.712 9.232 14.746 7.155l.068-.024a11.546 11.546 0 0 0 5.014-3.452c-.224.659-.4 1.336-.524 2.025a12.611 12.611 0 0 1-4.143 2.416l-.074.026"/>
        <path fill="#F1A553" fill-rule="nonzero" d="M360.66 151.426c-6.093 2.098-12.741-1.103-14.874-7.176-2.14-6.096 1.08-12.777 7.192-14.923l.068-.024c6.094-2.098 12.742 1.103 14.875 7.175a11.62 11.62 0 0 1 .157 7.257 11.776 11.776 0 0 1-2.282 4.188 11.702 11.702 0 0 1-5.066 3.48l-.07.023m-7.24-21.035l-.061.021c-5.521 1.939-8.432 7.966-6.502 13.462 1.923 5.476 7.925 8.36 13.43 6.464l.061-.021c5.521-1.939 8.432-7.966 6.502-13.462-1.923-5.476-7.925-8.36-13.43-6.464"/>
        <path fill="#FFB63F" fill-rule="nonzero" d="M360.666 151.344c-6.052 2.125-12.685-1.067-14.814-7.131-2.129-6.064 1.052-12.703 7.104-14.828s12.685 1.068 14.814 7.131c2.13 6.064-1.051 12.703-7.104 14.828zm-8.488-24.176c-7.275 2.555-11.097 10.533-8.538 17.822 2.559 7.288 10.53 11.125 17.805 8.57 7.274-2.554 11.096-10.532 8.538-17.82-2.56-7.289-10.531-11.126-17.805-8.572z"/>
        <path fill="#FFCE42" fill-rule="nonzero" d="M165.644 62.26c2.053 5.848 8.449 8.926 14.285 6.877 5.836-2.05 8.903-8.45 6.85-14.298-2.053-5.847-8.449-8.926-14.285-6.877-5.836 2.05-8.903 8.451-6.85 14.298z"/>
        <path fill="#CCD4D6" fill-rule="nonzero" d="M180.192 70.115c-6.342 2.184-13.27-1.17-15.5-7.52-.572-1.63-.78-3.3-.665-4.919a23.296 23.296 0 0 1 4.258-8.443 12.155 12.155 0 0 1 3.946-2.25c6.342-2.183 13.27 1.172 15.5 7.522.677 1.929.843 3.913.569 5.805-.493.462-.947.96-1.361 1.486.663-2.2.66-4.622-.16-6.957-2.046-5.825-8.401-8.903-14.22-6.9l-.065.023c-5.836 2.05-8.903 8.451-6.85 14.298 2.045 5.825 8.4 8.903 14.22 6.9l.065-.023a11.133 11.133 0 0 0 4.835-3.329 13.52 13.52 0 0 0-.505 1.953 12.16 12.16 0 0 1-3.995 2.33l-.072.024"/>
        <path fill="#F1A553" fill-rule="nonzero" d="M179.89 69.221c-5.877 2.023-12.288-1.063-14.344-6.92-2.064-5.878 1.04-12.32 6.934-14.39l.067-.023c5.875-2.023 12.287 1.063 14.343 6.92.824 2.347.824 4.784.152 6.997a11.356 11.356 0 0 1-2.201 4.038 11.284 11.284 0 0 1-4.885 3.355l-.067.023m-6.981-20.284l-.06.02c-5.324 1.87-8.13 7.682-6.27 12.982 1.855 5.28 7.643 8.06 12.95 6.233l.06-.02c5.324-1.87 8.13-7.682 6.27-12.982-1.855-5.28-7.643-8.06-12.95-6.233"/>
        <path fill="#FFB63F" fill-rule="nonzero" d="M179.895 69.142c-5.837 2.05-12.232-1.03-14.286-6.877-2.052-5.847 1.014-12.249 6.85-14.298 5.837-2.05 12.232 1.03 14.286 6.877 2.053 5.847-1.014 12.249-6.85 14.298zm-8.186-23.313c-7.014 2.464-10.7 10.158-8.233 17.185 2.468 7.028 10.155 10.728 17.17 8.266 7.013-2.464 10.7-10.158 8.232-17.185-2.468-7.028-10.154-10.728-17.169-8.266z"/>
        <path fill="#FFCE42" fill-rule="nonzero" d="M284.553 178.078c2.814 8.013 11.578 12.232 19.576 9.424 7.997-2.808 12.2-11.58 9.387-19.594-2.814-8.013-11.578-12.232-19.576-9.423-7.998 2.808-12.2 11.58-9.387 19.593z"/>
        <path fill="#CCD4D6" fill-rule="nonzero" d="M304.49 188.843c-8.692 2.992-18.186-1.605-21.241-10.307a16.74 16.74 0 0 1-.911-6.74 31.924 31.924 0 0 1 5.834-11.57 16.657 16.657 0 0 1 5.407-3.082c8.691-2.993 18.186 1.605 21.241 10.306.9 2.55 1.167 5.28.78 7.955a18.4 18.4 0 0 0-1.865 2.037c.942-3.12.865-6.46-.22-9.534-2.802-7.982-11.512-12.2-19.485-9.455-.03.01-.06.02-.09.032-7.998 2.808-12.2 11.58-9.387 19.593 2.803 7.983 11.513 12.2 19.486 9.455l.09-.031a15.257 15.257 0 0 0 6.625-4.562 18.535 18.535 0 0 0-.691 2.676 16.665 16.665 0 0 1-5.475 3.193l-.098.034"/>
        <path fill="#F1A553" fill-rule="nonzero" d="M304.075 187.617c-8.052 2.772-16.838-1.457-19.656-9.482-2.829-8.055 1.426-16.885 9.503-19.72.03-.012.06-.022.09-.032 8.052-2.773 16.838 1.457 19.657 9.482a15.364 15.364 0 0 1 .207 9.589 15.561 15.561 0 0 1-3.016 5.534 15.463 15.463 0 0 1-6.694 4.598l-.091.031m-9.568-27.797l-.082.029c-7.295 2.561-11.141 10.526-8.591 17.789 2.541 7.236 10.472 11.046 17.746 8.542l.082-.029c7.295-2.561 11.142-10.526 8.591-17.789-2.541-7.236-10.472-11.046-17.746-8.542"/>
        <path fill="#FFB63F" fill-rule="nonzero" d="M304.082 187.51c-7.998 2.807-16.762-1.412-19.576-9.425-2.813-8.013 1.39-16.785 9.387-19.594 7.998-2.808 16.762 1.411 19.576 9.424 2.813 8.013-1.39 16.785-9.387 19.594v.001zm-11.217-31.948c-9.613 3.376-14.664 13.92-11.283 23.55 3.382 9.63 13.916 14.701 23.528 11.326 9.613-3.376 14.664-13.919 11.283-23.55-3.382-9.63-13.916-14.701-23.528-11.326z"/>
        <g fill-rule="nonzero">
            <path fill="#FFCE42" d="M36.553 24.078c2.814 8.013 11.578 12.232 19.576 9.424 7.997-2.808 12.2-11.58 9.387-19.594C62.702 5.895 53.938 1.676 45.94 4.485c-7.998 2.808-12.2 11.58-9.387 19.593z"/>
            <path fill="#CCD4D6" d="M56.49 34.843c-8.692 2.992-18.186-1.605-21.241-10.307a16.74 16.74 0 0 1-.911-6.74 31.924 31.924 0 0 1 5.834-11.57 16.657 16.657 0 0 1 5.407-3.082C54.27.15 63.765 4.749 66.82 13.45c.9 2.55 1.167 5.28.78 7.955a18.4 18.4 0 0 0-1.865 2.037c.942-3.12.865-6.46-.22-9.534-2.802-7.982-11.512-12.2-19.485-9.455-.03.01-.06.02-.09.032-7.998 2.808-12.2 11.58-9.387 19.593 2.803 7.983 11.513 12.2 19.486 9.455l.09-.031a15.257 15.257 0 0 0 6.625-4.562 18.535 18.535 0 0 0-.691 2.676 16.665 16.665 0 0 1-5.475 3.193l-.098.034"/>
            <path fill="#F1A553" d="M56.075 33.617c-8.052 2.772-16.838-1.457-19.656-9.482-2.829-8.055 1.426-16.885 9.503-19.72.03-.012.06-.022.09-.032C54.065 1.61 62.85 5.84 65.67 13.865a15.364 15.364 0 0 1 .207 9.589 15.561 15.561 0 0 1-3.016 5.534 15.463 15.463 0 0 1-6.694 4.598l-.091.031M46.507 5.82l-.082.029C39.13 8.41 35.284 16.375 37.834 23.638c2.541 7.236 10.472 11.046 17.746 8.542l.082-.029c7.295-2.561 11.142-10.526 8.591-17.789C61.712 7.126 53.781 3.316 46.507 5.82"/>
            <path fill="#FFB63F" d="M56.082 33.51c-7.998 2.807-16.762-1.412-19.576-9.425-2.813-8.013 1.39-16.785 9.387-19.594 7.998-2.808 16.762 1.411 19.576 9.424 2.813 8.013-1.39 16.785-9.387 19.594v.001zM44.865 1.561c-9.613 3.376-14.664 13.92-11.283 23.55 3.382 9.63 13.916 14.701 23.528 11.326 9.613-3.376 14.664-13.919 11.283-23.55-3.383-9.629-13.916-14.7-23.528-11.325v-.001z"/>
        </g>
        <g fill-rule="nonzero">
            <path fill="#FFCE42" d="M60.132 292.155c2.205 6.28 9.074 9.587 15.343 7.386 6.268-2.201 9.562-9.077 7.357-15.357-2.205-6.28-9.074-9.588-15.343-7.387-6.269 2.202-9.562 9.077-7.357 15.358z"/>
            <path fill="#CCD4D6" d="M75.758 300.592c-6.813 2.345-14.254-1.258-16.649-8.078a13.121 13.121 0 0 1-.714-5.283 25.021 25.021 0 0 1 4.573-9.068 13.055 13.055 0 0 1 4.238-2.417c6.812-2.345 14.254 1.258 16.649 8.078a13.1 13.1 0 0 1 .61 6.235 14.421 14.421 0 0 0-1.46 1.597 12.014 12.014 0 0 0-.173-7.472c-2.197-6.257-9.023-9.563-15.273-7.411l-.07.024c-6.269 2.202-9.562 9.077-7.357 15.358 2.197 6.256 9.023 9.562 15.272 7.41l.07-.024a11.958 11.958 0 0 0 5.194-3.576 14.522 14.522 0 0 0-.542 2.098 13.062 13.062 0 0 1-4.292 2.502c-.025.01-.05.018-.076.027"/>
            <path fill="#F1A553" d="M75.432 299.631c-6.31 2.173-13.197-1.142-15.406-7.432-2.217-6.314 1.118-13.234 7.449-15.457l.07-.024c6.312-2.173 13.198 1.142 15.407 7.432.885 2.52.885 5.138.163 7.515a12.197 12.197 0 0 1-2.365 4.338 12.12 12.12 0 0 1-5.246 3.604l-.072.024m-7.498-21.786l-.065.022c-5.718 2.007-8.732 8.25-6.733 13.943 1.991 5.671 8.208 8.657 13.908 6.694l.065-.022c5.718-2.008 8.733-8.25 6.734-13.943-1.992-5.671-8.209-8.657-13.91-6.694"/>
            <path fill="#FFB63F" d="M75.438 299.546c-6.269 2.201-13.138-1.106-15.343-7.386s1.089-13.156 7.357-15.357c6.269-2.201 13.138 1.105 15.344 7.386 2.205 6.28-1.09 13.156-7.358 15.357zm-8.792-25.04c-7.534 2.647-11.493 10.91-8.843 18.459 2.651 7.548 10.907 11.522 18.441 8.877 7.534-2.646 11.493-10.91 8.843-18.458-2.65-7.548-10.907-11.522-18.44-8.877l-.001-.001z"/>
        </g>
        <g fill-rule="nonzero">
            <path fill="#FFCE42" d="M41.777 158.162c1.445 4.115 5.945 6.282 10.052 4.84 4.107-1.443 6.265-5.947 4.82-10.062-1.444-4.115-5.945-6.282-10.052-4.84-4.107 1.443-6.265 5.948-4.82 10.062z"/>
            <path fill="#CCD4D6" d="M52.015 163.69c-4.464 1.536-9.339-.824-10.908-5.293a8.597 8.597 0 0 1-.468-3.46 16.393 16.393 0 0 1 2.996-5.942 8.554 8.554 0 0 1 2.727-1.565l.05-.018c4.463-1.537 9.338.824 10.907 5.293.462 1.31.6 2.71.401 4.085a9.449 9.449 0 0 0-.958 1.045 7.871 7.871 0 0 0-.112-4.895c-1.44-4.1-5.912-6.265-10.007-4.855l-.046.016c-4.107 1.442-6.265 5.947-4.82 10.061 1.44 4.1 5.912 6.265 10.006 4.855l.046-.016a7.834 7.834 0 0 0 3.403-2.342 9.59 9.59 0 0 0-.356 1.374 8.558 8.558 0 0 1-2.811 1.64l-.05.017"/>
            <path fill="#F1A553" d="M51.802 163.06c-4.135 1.424-8.647-.748-10.094-4.869-1.453-4.136.732-8.67 4.88-10.126l.047-.017c4.134-1.423 8.646.749 10.093 4.87a7.89 7.89 0 0 1 .107 4.924 7.991 7.991 0 0 1-1.55 2.842 7.94 7.94 0 0 1-3.437 2.36l-.046.017m-4.913-14.274l-.042.014c-3.747 1.316-5.722 5.405-4.412 9.135 1.305 3.716 5.377 5.672 9.112 4.386l.043-.014c3.746-1.316 5.721-5.405 4.411-9.135-1.305-3.716-5.377-5.672-9.112-4.386"/>
            <path fill="#FFB63F" d="M51.805 163.005c-4.107 1.442-8.607-.724-10.052-4.84-1.445-4.114.713-8.619 4.82-10.061 4.107-1.442 8.608.725 10.053 4.84 1.444 4.114-.714 8.619-4.82 10.061h-.001zm-5.76-16.405c-4.936 1.733-7.53 7.147-5.794 12.093 1.737 4.945 7.146 7.55 12.082 5.816 4.936-1.733 7.53-7.147 5.794-12.093-1.737-4.945-7.146-7.55-12.082-5.816z"/>
        </g>
        <g fill-rule="nonzero">
            <path fill="#FFCE42" d="M271.777 287.162c1.445 4.115 5.945 6.282 10.052 4.84 4.107-1.443 6.265-5.947 4.82-10.062-1.444-4.115-5.945-6.282-10.052-4.84-4.107 1.443-6.265 5.948-4.82 10.062z"/>
            <path fill="#CCD4D6" d="M282.015 292.69c-4.464 1.536-9.339-.824-10.908-5.293a8.597 8.597 0 0 1-.468-3.46 16.393 16.393 0 0 1 2.996-5.942 8.554 8.554 0 0 1 2.727-1.565l.05-.018c4.463-1.537 9.338.824 10.907 5.293.462 1.31.6 2.71.401 4.085a9.449 9.449 0 0 0-.958 1.045 7.871 7.871 0 0 0-.112-4.895c-1.44-4.1-5.912-6.265-10.007-4.855l-.046.016c-4.107 1.442-6.265 5.947-4.82 10.061 1.44 4.1 5.912 6.265 10.006 4.855l.046-.016a7.834 7.834 0 0 0 3.403-2.342 9.59 9.59 0 0 0-.356 1.374 8.558 8.558 0 0 1-2.811 1.64l-.05.017"/>
            <path fill="#F1A553" d="M281.802 292.06c-4.135 1.424-8.647-.748-10.094-4.869-1.453-4.136.732-8.67 4.88-10.126l.047-.017c4.134-1.423 8.646.749 10.093 4.87a7.89 7.89 0 0 1 .107 4.924 7.991 7.991 0 0 1-1.55 2.842 7.94 7.94 0 0 1-3.437 2.36l-.046.017m-4.913-14.274l-.042.014c-3.747 1.316-5.722 5.405-4.412 9.135 1.305 3.716 5.377 5.672 9.112 4.386l.043-.014c3.746-1.316 5.721-5.405 4.411-9.135-1.305-3.716-5.377-5.672-9.112-4.386"/>
            <path fill="#FFB63F" d="M281.805 292.005c-4.107 1.442-8.607-.724-10.052-4.84-1.445-4.114.713-8.619 4.82-10.061 4.107-1.442 8.608.725 10.053 4.84 1.444 4.114-.714 8.619-4.82 10.061h-.001zm-5.76-16.405c-4.936 1.733-7.53 7.147-5.794 12.093 1.737 4.945 7.146 7.55 12.082 5.816 4.936-1.733 7.53-7.147 5.794-12.093-1.737-4.945-7.146-7.55-12.082-5.816z"/>
        </g>
        <g fill="#FFF7E1" fill-rule="nonzero">
            <path d="M51.543 22.722L45.043 20l6.5 10 6.5-10-6.5 2.722zm0-7.444L45.043 18l6.5-10 6.5 10-6.5-2.722z"/>
            <path d="M46.044 19.002L51.539 21l5.505-2.002L51.539 17z"/>
        </g>
        <path fill="#FFF7E1" fill-rule="nonzero" d="M304.65 174.719a2.819 2.819 0 0 0-1.061-1.077c-.308-.183-.755-.352-1.337-.504.543-.19.98-.43 1.312-.72.33-.29.584-.625.76-1.005a2.82 2.82 0 0 0 .265-1.201 2.78 2.78 0 0 0-.499-1.6c-.333-.487-.808-.86-1.426-1.119-.359-.15-.804-.252-1.318-.316V165h-1.742v2.104h-1.12V165h-1.742v2.104h-3.698v1.77h.49c.326 0 .548.03.664.091a.53.53 0 0 1 .245.248c.049.104.071.345.071.724v7.135c0 .372-.024.613-.071.72a.497.497 0 0 1-.245.247c-.116.058-.338.088-.665.088h-.49v1.77h3.699V182h1.741v-2.103h1.12V182h1.742v-2.208c.563-.075 1.036-.19 1.413-.345.727-.3 1.29-.736 1.688-1.308.39-.547.6-1.203.598-1.876a3.097 3.097 0 0 0-.394-1.544zm-7.057-5.552h1.365c.797 0 1.35.05 1.66.152.309.1.545.271.709.509.163.238.245.525.245.863 0 .323-.086.609-.259.857-.172.248-.43.433-.771.555-.342.122-.87.183-1.584.183h-1.365v-3.119zm3.855 7.905a1.71 1.71 0 0 1-.886.628c-.347.1-.784.152-1.313.152h-.908c-.303 0-.488-.017-.556-.05a.299.299 0 0 1-.147-.18c-.025-.067-.04-.295-.045-.688v-2.77h1.61c.707 0 1.232.069 1.577.203.343.134.602.333.774.596.172.263.258.584.258.964.001.445-.121.826-.364 1.145z"/>
        <text fill="#FFF7E1" font-family="material" font-size="18" transform="translate(61 279)">
            <tspan x=".044" y="15"></tspan>
        </text>
        <text fill="#FFF5DB" font-family="HelveticaNeue-Bold, Helvetica Neue" font-size="18" font-weight="bold" transform="translate(352 128)">
            <tspan x=".044" y="18">$</tspan>
        </text>
        <g fill="#FFF5DB" font-family="HelveticaNeue-Bold, Helvetica Neue" font-size="12" font-weight="bold">
            <text transform="translate(46 148)">
                <tspan x=".044" y="12">$</tspan>
            </text>
        </g>
        <g fill="#FFF7E1" fill-rule="nonzero">
            <path d="M180.956 60.408a.32.32 0 0 0-.226-.081h-1.588a.32.32 0 0 0-.226.081.252.252 0 0 0-.088.192v1.542h-4.059v-3.23h2.99a.325.325 0 0 0 .221-.08.246.246 0 0 0 .093-.193v-1.116a.243.243 0 0 0-.093-.196.337.337 0 0 0-.22-.077h-2.99v-1.832c0-.432.17-.781.509-1.048.34-.268.788-.401 1.343-.401.294 0 .598.051.912.153.314.103.54.194.676.273.138.08.223.134.255.162a.29.29 0 0 0 .226.06.316.316 0 0 0 .215-.103l1.01-1.082a.24.24 0 0 0 .069-.192.241.241 0 0 0-.098-.175A5.465 5.465 0 0 0 176.603 52c-1.249 0-2.277.315-3.084.946-.807.63-1.21 1.432-1.21 2.404v1.9h-.932a.332.332 0 0 0-.226.077.248.248 0 0 0-.088.196v1.116c0 .074.03.138.088.192a.32.32 0 0 0 .226.081h.931v3.264h-.95a.325.325 0 0 0-.221.081.247.247 0 0 0-.093.192v1.278c0 .08.029.145.088.196.063.053.143.08.225.077h9.373a.331.331 0 0 0 .226-.077.248.248 0 0 0 .088-.196V60.6a.25.25 0 0 0-.088-.192z"/>
        </g>
        <g fill="#FFF7E1" fill-rule="nonzero">
            <path d="M281.99 286.605a.181.181 0 0 0-.134-.054h-.953a.184.184 0 0 0-.189.182v1.029h-2.435v-2.154h1.794c.05 0 .097-.019.132-.054a.172.172 0 0 0 .056-.128v-.744a.17.17 0 0 0-.056-.13.19.19 0 0 0-.132-.052h-1.794v-1.221c0-.288.102-.521.306-.7.204-.177.472-.266.806-.266.176 0 .359.034.547.102.188.068.323.129.406.182.082.053.133.089.153.108a.163.163 0 0 0 .135.04.182.182 0 0 0 .13-.069l.605-.721a.171.171 0 0 0 .041-.128.166.166 0 0 0-.058-.117c-.589-.473-1.245-.71-1.971-.71-.749 0-1.366.21-1.85.63a2.032 2.032 0 0 0-.727 1.603v1.267h-.558a.19.19 0 0 0-.136.051.174.174 0 0 0-.053.13v.745a.182.182 0 0 0 .189.182h.558v2.176h-.57a.184.184 0 0 0-.133.054.172.172 0 0 0-.055.128v.852c0 .053.017.097.052.13.036.035.08.052.136.052h5.624c.054 0 .1-.017.135-.051a.174.174 0 0 0 .053-.13v-2.086a.175.175 0 0 0-.053-.128h-.001z"/>
        </g>
    </g>
</svg>
