<?xml version="1.0" encoding="UTF-8"?>
<svg viewBox="0 0 1000 120" xmlns="http://www.w3.org/2000/svg" xmlns:xlink="http://www.w3.org/1999/xlink">
<defs>
<path id="a" d="m138.59 1.9127l-18.703 87.43h-22.621l18.711-87.43h22.613zm95.158 56.452l11.906-32.828 6.8538 32.828h-18.76zm25.238 30.979h20.919l-18.26-87.43h-19.304c-4.3424 0-8.0032 2.523-9.6282 6.4119l-33.937 81.019h23.744l4.7182-13.062h29.016l2.733 13.062zm-59.036-28.548c0.10107-23.073-31.907-24.347-31.686-34.657 0.069977-3.1347 3.0556-6.4676 9.5932-7.3216 3.2358-0.42245 12.173-0.7503 22.298 3.9109l3.9744-18.539c-5.4465-1.9762-12.445-3.8759-21.161-3.8759-22.354 0-38.091 11.886-38.216 28.899-0.14902 12.593 11.23 19.61 19.803 23.797 8.808 4.2841 11.763 7.0326 11.73 10.865-0.066086 5.869-7.0287 8.4555-13.538 8.5566-11.371 0.17754-17.971-3.0738-23.23-5.5243l-4.0949 19.159c5.2793 2.4259 15.035 4.5407 25.151 4.6444 23.762 0 39.302-11.733 39.376-29.915zm-93.679-58.883l-36.646 87.43h-23.907l-18.033-69.776c-1.095-4.2958-2.0449-5.8728-5.3739-7.6793-5.4361-2.9533-14.414-5.7212-22.312-7.4408l0.5326-2.5347h38.488c4.9022 0 9.316 3.2617 10.429 8.9129l9.5246 50.594 23.541-59.507h23.757z"/>
<linearGradient id="c" x1="50%" x2="50%" y2="100%">
<stop stop-color="#FFF" offset="0"/>
<stop offset="1"/>
</linearGradient>
<linearGradient id="b" x1="100%" x2="0%" y1="50%" y2="50%">
<stop stop-color="#024DA0" offset="0"/>
<stop stop-color="#231F5E" offset="1"/>
</linearGradient>
</defs>
<g>
<title>background</title>
<rect x="-1" y="-1" width="1002" height="122" fill="none"/>
</g>
<g>
<title>Layer 1</title>
<g fill="none" fill-rule="evenodd">
<rect x="324.6" y="1.8" width="146.8" height="120.4"/>
<g fill-rule="nonzero">
<path d="m293.9 107.1v-6c0-2.3-1.4-3.8-3.8-3.8-1.2 0-2.5 0.39999-3.4 1.7-0.70001-1.1-1.7-1.7-3.2-1.7-1 0-2 0.3-2.8 1.4v-1.2h-2.1v9.6h2.1v-5.3c0-1.7 0.89999-2.5 2.3-2.5s2.1 0.89999 2.1 2.5v5.3h2.1v-5.3c0-1.7 1-2.5 2.3-2.5 1.4 0 2.1 0.89999 2.1 2.5v5.3h2.3zm31.1-9.6h-3.4v-2.9h-2.1v2.9h-1.9v1.9h1.9v4.4c0 2.2 0.89999 3.5 3.3 3.5 0.90002 0 1.9-0.3 2.6-0.7l-0.60001-1.8c-0.59998 0.39999-1.3 0.5-1.8 0.5-1 0-1.4-0.60001-1.4-1.6v-4.3h3.4v-1.9zm17.8-0.2c-1.2 0-2 0.60001-2.5 1.4v-1.2h-2.1v9.6h2.1v-5.4c0-1.6 0.70001-2.5 2-2.5 0.40002 0 0.90002 0.10001 1.3 0.20001l0.60001-2c-0.40002-0.10001-1-0.10001-1.4-0.10001zm-26.9 1c-1-0.7-2.4-1-3.9-1-2.4 0-4 1.2-4 3.1 0 1.6 1.2 2.5 3.3 2.8l1 0.10001c1.1 0.2 1.7 0.5 1.7 1 0 0.7-0.79999 1.2-2.2 1.2-1.4 0-2.5-0.5-3.2-1l-1 1.6c1.1 0.8 2.6 1.2 4.1 1.2 2.8 0 4.4-1.3 4.4-3.1 0-1.7-1.3-2.6-3.3-2.9l-1-0.10001c-0.89999-0.099991-1.6-0.29999-1.6-0.89999 0-0.7 0.69998-1.1 1.8-1.1 1.2 0 2.4 0.5 3 0.8l0.89999-1.7zm55.8-1c-1.2 0-2 0.60001-2.5 1.4v-1.2h-2.1v9.6h2.1v-5.4c0-1.6 0.69998-2.5 2-2.5 0.39999 0 0.89999 0.10001 1.3 0.20001l0.60001-2c-0.39999-0.10001-1-0.10001-1.4-0.10001zm-26.8 5c0 2.9 2 5 5.1 5 1.4 0 2.4-0.3 3.4-1.1l-1-1.7c-0.79999 0.60001-1.6 0.90001-2.5 0.90001-1.7 0-2.9-1.2-2.9-3.1 0-1.8 1.2-3 2.9-3.1 0.89999 0 1.7 0.3 2.5 0.90001l1-1.7c-1-0.8-2-1.1-3.4-1.1-3.1 0-5.1 2.1-5.1 5zm19.4 0v-4.8h-2.1v1.2c-0.70001-0.89999-1.7-1.4-3-1.4-2.7 0-4.8 2.1-4.8 5s2.1 5 4.8 5c1.4 0 2.4-0.5 3-1.4v1.2h2.1v-4.8zm-7.7 0c0-1.7 1.1-3.1 2.9-3.1 1.7 0 2.9 1.3 2.9 3.1 0 1.7-1.2 3.1-2.9 3.1-1.8-0.10001-2.9-1.4-2.9-3.1zm-25.1-5c-2.8 0-4.8 2-4.8 5s2 5 4.9 5c1.4 0 2.8-0.39999 3.9-1.3l-1-1.5c-0.79999 0.60001-1.8 1-2.8 1-1.3 0-2.6-0.59999-2.9-2.3h7.1v-0.79999c0.10001-3.1-1.7-5.1-4.4-5.1zm0 1.8c1.3 0 2.2 0.8 2.4 2.3h-5c0.20001-1.3 1.1-2.3 2.6-2.3zm52.1 3.2v-8.6h-2.1v5c-0.70001-0.89999-1.7-1.4-3-1.4-2.7 0-4.8 2.1-4.8 5s2.1 5 4.8 5c1.4 0 2.4-0.5 3-1.4v1.2h2.1v-4.8zm-7.7 0c0-1.7 1.1-3.1 2.9-3.1 1.7 0 2.9 1.3 2.9 3.1 0 1.7-1.2 3.1-2.9 3.1-1.8-0.10001-2.9-1.4-2.9-3.1zm-70.2 0v-4.8h-2.1v1.2c-0.70001-0.89999-1.7-1.4-3-1.4-2.7 0-4.8 2.1-4.8 5s2.1 5 4.8 5c1.4 0 2.4-0.5 3-1.4v1.2h2.1v-4.8zm-7.8 0c0-1.7 1.1-3.1 2.9-3.1 1.7 0 2.9 1.3 2.9 3.1 0 1.7-1.2 3.1-2.9 3.1-1.8-0.10001-2.9-1.4-2.9-3.1z" fill="#000"/>
<rect x="315.2" y="24.6" width="31.5" height="56.6" fill="#FF5F00"/>
<path d="m317.2 52.9c0-11.5 5.4-21.7 13.7-28.3-6.1-4.8-13.8-7.7-22.2-7.7-19.9 0-36 16.1-36 36s16.1 36 36 36c8.4 0 16.1-2.9 22.2-7.7-8.3-6.5-13.7-16.8-13.7-28.3z" fill="#EB001B"/>
<path d="m389.2 52.9c0 19.9-16.1 36-36 36-8.4 0-16.1-2.9-22.2-7.7 8.4-6.6 13.7-16.8 13.7-28.3s-5.4-21.7-13.7-28.3c6.1-4.8 13.8-7.7 22.2-7.7 19.9 0 36 16.2 36 36z" fill="#F79E1B"/>
</g>
<rect x="403" y="1" width="147.78" height="121.64"/>
<path d="m453.73 107.11v-6.0496c0.071228-1.0266-0.30212-2.0342-1.0249-2.7657-0.72266-0.73149-1.7249-1.1161-2.7506-1.0556-1.3553-0.089005-2.6516 0.56781-3.3828 1.714-0.66675-1.1121-1.8875-1.7698-3.1815-1.714-1.1267-0.057053-2.1993 0.48769-2.8191 1.4317v-1.1897h-2.0941v9.6289h2.1143v-5.3337c-0.094849-0.66814 0.11499-1.3436 0.57156-1.84 0.4566-0.49634 1.1117-0.76105 1.7844-0.72104 1.3894 0 2.0941 0.90744 2.0941 2.5408v5.3539h2.1143v-5.3337c-0.087341-0.66661 0.12506-1.3377 0.58002-1.8322 0.45483-0.49448 1.1053-0.76143 1.7759-0.72882 1.4297 0 2.1143 0.90744 2.1143 2.5408v5.3539h2.1042zm11.78-4.8094v-4.8094h-2.1143v1.1696c-0.7204-0.93103-1.8451-1.4567-3.0204-1.4116-2.7802 0-5.0341 2.2571-5.0341 5.0413 0 2.7842 2.2538 5.0413 5.0341 5.0413 1.1753 0.04509 2.3-0.48056 3.0204-1.4116v1.1696h2.0942l0.020142-4.7892zm-7.7826 0c0.09314-1.5823 1.4321-2.7998 3.0137-2.7404 1.5817 0.059464 2.8257 1.3741 2.8002 2.9589s-1.3115 2.8585-2.8942 2.8667c-0.8103 0.019043-1.5911-0.30484-2.1507-0.89209-0.55957-0.58725-0.84607-1.3835-0.78918-2.1932h0.020142zm52.525-5.0413c0.68939-0.001785 1.3729 0.12825 2.0136 0.38313 0.61157 0.24528 1.1692 0.6084 1.6411 1.0688 0.46582 0.45621 0.83551 1.0013 1.0873 1.6031 0.526 1.2927 0.526 2.7403 0 4.0331-0.25153 0.60194-0.62128 1.1471-1.0873 1.6031-0.47192 0.46036-1.0295 0.82347-1.6411 1.0687-1.3276 0.51663-2.8003 0.51663-4.1279 0-0.6087-0.24503-1.163-0.60825-1.631-1.0687-0.46143-0.45782-0.82752-1.0027-1.0773-1.6031-0.52496-1.293-0.52496-2.7401 0-4.0331 0.24976-0.60043 0.61584-1.1453 1.0773-1.6031 0.46796-0.4605 1.0223-0.82373 1.631-1.0688 0.66382-0.27553 1.3757-0.41605 2.0942-0.41339l0.020142 0.030258zm0 2.0165c-0.41003-0.0056-0.8172 0.069763-1.1981 0.22182-0.35889 0.14407-0.68433 0.36026-0.95648 0.63521-0.27765 0.28944-0.49347 0.63252-0.63434 1.0083-0.30756 0.80505-0.30756 1.6955 0 2.5005 0.14062 0.37587 0.35644 0.71899 0.63434 1.0083 0.27191 0.27516 0.59747 0.49139 0.95648 0.63519 0.76697 0.30078 1.619 0.30078 2.3861 0 0.3761-0.13922 0.71899-0.35558 1.0068-0.63519 0.27826-0.28894 0.4942-0.63214 0.63428-1.0083 0.30756-0.80504 0.30756-1.6954 0-2.5005-0.14008-0.37613-0.35602-0.71933-0.63428-1.0083-0.28778-0.27962-0.63068-0.49599-1.0068-0.63521-0.37982-0.17413-0.79065-0.27013-1.2082-0.28232l0.020142 0.060501zm-33.365 3.0248c0-3.0248-1.8727-5.0413-4.5609-5.0413-2.7802 0.038971-5.0024 2.3277-4.9636 5.1119 0.03894 2.7842 2.3243 5.0097 5.1045 4.9707 1.4334 0.049042 2.8346-0.43188 3.9366-1.3511l-1.0068-1.5527c-0.79498 0.63852-1.7799 0.99332-2.7989 1.0083-1.4394 0.12396-2.7158-0.92189-2.8795-2.3593h7.1382c0.030273-0.25206 0.030273-0.50414 0.030273-0.78644zm-7.1584-0.84695c0.080811-1.3301 1.1967-2.3586 2.527-2.3291 0.63294-0.013504 1.2452 0.22539 1.7021 0.66409 0.45697 0.4387 0.72113 1.0413 0.73438 1.6751l-4.9636-0.010086zm15.968-1.5124c-0.91943-0.5302-1.9595-0.81488-3.0204-0.82678-1.1477 0-1.8323 0.42348-1.8323 1.1293 0 0.7058 0.72485 0.82678 1.631 0.94777l1.0068 0.14116c2.0941 0.30248 3.3627 1.1898 3.3627 2.8836 0 1.6939-1.6109 3.1458-4.3796 3.1458-1.4839 0.03952-2.9413-0.39868-4.1581-1.2502l1.0068-1.6334c0.92395 0.68645 2.0516 1.0416 3.2016 1.0083 1.4296 0 2.1948-0.42348 2.1948-1.1696 0-0.54446-0.54364-0.84694-1.6914-1.0083l-1.0068-0.14116c-2.1546-0.30248-3.3225-1.2704-3.3225-2.8433 0-1.9157 1.5706-3.0853 4.0272-3.0853 1.3749-0.046143 2.7343 0.30379 3.9165 1.0083l-0.93634 1.6939zm10.068-0.54446h-3.413v4.3456c0 1.0083 0.34228 1.6132 1.3894 1.6132 0.6535-0.021683 1.2909-0.209 1.8525-0.54446l0.60406 1.7947c-0.78497 0.4906-1.6924 0.74924-2.6177 0.74612-2.4767 0-3.3425-1.3309-3.3425-3.5693v-4.386h-1.9532v-1.9157h1.9532v-2.924h2.1143v2.924h3.413v1.9157zm7.239-2.1577c0.50794 0.001953 1.0118 0.090607 1.4901 0.26213l-0.64435 2.0165c-0.41614-0.16614-0.86096-0.24838-1.3088-0.24197-1.3693 0-2.0136 0.88727-2.0136 2.4803v5.3942h-2.0942v-9.6289h2.074v1.1696c0.5235-0.90057 1.497-1.4422 2.5372-1.4116l-0.040283-0.040314zm14.478 8.4694c0.13092-0.001602 0.26086 0.022369 0.38257 0.070587 0.11566 0.047256 0.2215 0.11563 0.31213 0.20164 0.088501 0.086929 0.16016 0.18948 0.21143 0.30248 0.10303 0.23801 0.10303 0.50812 0 0.74612-0.05127 0.11299-0.12292 0.21555-0.21143 0.30248-0.090637 0.086014-0.19647 0.1544-0.31213 0.20166-0.12048 0.053253-0.25079 0.080734-0.38257 0.080643-0.38953-0.00293-0.74249-0.2307-0.90613-0.58478-0.10181-0.23825-0.10181-0.50787 0-0.74612 0.05127-0.11299 0.12299-0.21555 0.21143-0.30248 0.090698-0.086014 0.19653-0.15439 0.31213-0.20164 0.10596-0.042206 0.21832-0.066071 0.33228-0.070587h0.050293zm0 1.704c0.10046 6.1e-4 0.20001-0.020004 0.29199-0.060486 0.086609-0.038742 0.16516-0.09346 0.23157-0.16133 0.17334-0.17485 0.24933-0.42415 0.203-0.66615-0.046265-0.242-0.20898-0.44548-0.43457-0.54376-0.092041-0.040222-0.19153-0.060806-0.29199-0.060501-0.10034 5.34e-4 -0.19958 0.021103-0.29199 0.060501-0.090454 0.03714-0.17261 0.091995-0.24158 0.16133-0.26111 0.28523-0.26111 0.72301 0 1.0083 0.14081 0.14279 0.33313 0.22275 0.53357 0.2218v0.040329zm0.060425-1.1998c0.093994-0.004547 0.18665 0.023987 0.26178 0.080673 0.0625 0.051819 0.096252 0.13066 0.090576 0.21173 0.00293 0.067719-0.022644 0.13356-0.070435 0.18149-0.058411 0.053085-0.13281 0.085037-0.21143 0.090744l0.29193 0.33273h-0.23157l-0.27185-0.33273h-0.090576v0.33273h-0.19128v-0.9276l0.42285 0.030228zm-0.2215 0.17142v0.24199h0.2215c0.039429 0.011765 0.081421 0.011765 0.12085 0 0.014343-0.028549 0.014343-0.06221 0-0.090744 0.014343-0.028549 0.014343-0.06221 0-0.090744-0.039429-0.011765-0.081421-0.011765-0.12085 0l-0.2215-0.060501z" fill="#000" fill-rule="nonzero"/>
<g fill-rule="nonzero">
<rect x="461.03" y="24.019" width="31.714" height="57.078" fill="#7673C0"/>
<path d="m463.05 52.563c-0.011841-11.14 5.0933-21.666 13.844-28.544-14.861-11.696-36.201-9.9922-49.024 3.9135-12.823 13.906-12.823 35.345 0 49.251 12.823 13.906 34.163 15.609 49.024 3.9135-8.7476-6.8757-13.852-17.398-13.844-28.534z" fill="#EB001B"/>
<path d="m532.07 75.047v-1.1292h0.47314v-0.24199h-1.1981v0.24199h0.47321v1.1696l0.25171-0.040344zm2.3257 0v-1.4116h-0.36243l-0.42285 1.0083-0.42285-1.0083h-0.37256v1.4116h0.26178v-1.0587l0.39264 0.91753h0.27185l0.39264-0.91753v1.0688l0.26178-0.010101zm1.1276-22.484c-0.003357 13.894-7.9257 26.566-20.404 32.639-12.478 6.0722-27.323 4.4785-38.232-4.1046 8.7437-6.8816 13.849-17.402 13.849-28.539 0-11.137-5.1052-21.657-13.849-28.539 10.909-8.5893 25.758-10.187 38.24-4.1136 12.482 6.073 20.406 18.75 20.406 32.648l-0.010071 0.010078z" fill="#00A1DF"/>
</g>
<rect x="756" width="247.92" height="104.71"/>
<path d="m790.08 63.735c-1.1448-0.67104-2.3772-1.205-3.6678-1.5892-1.2922-0.38004-2.6409-0.5712-3.9971-0.56657-0.84186-0.006989-1.6815 0.081192-2.5001 0.26256-0.6911 0.14864-1.3494 0.40572-1.9462 0.76004-0.51056 0.30388-0.94043 0.7101-1.2575 1.1884-0.30237 0.47252-0.45776 1.0128-0.4491 1.5616-0.022034 0.48613 0.11346 0.96727 0.38922 1.3819 0.28656 0.39233 0.67188 0.71475 1.1228 0.9397 0.56085 0.28352 1.1599 0.49727 1.7815 0.63567 0.78461 0.1819 1.5792 0.3249 2.3804 0.42839l1.8863 0.23492c1.0953 0.14125 2.1766 0.36305 3.2337 0.6633 1.0046 0.27841 1.9547 0.70293 2.8145 1.2575 0.81897 0.5321 1.4992 1.2261 1.9911 2.0314 0.52466 0.9136 0.78265 1.9375 0.74854 2.9711 0.026123 1.1843-0.27802 2.3549-0.8833 3.3995-0.58234 0.98274-1.3956 1.8327-2.3803 2.4874-1.0555 0.69748-2.2364 1.2168-3.4882 1.5339-1.3688 0.3555-2.7849 0.53227-4.2067 0.52512-0.96295-0.004379-1.924-0.078308-2.8744-0.2211-1.0142-0.1412-2.0151-0.35371-2.9941-0.63568-0.92834-0.28575-1.8297-0.64165-2.6947-1.0641-0.8548-0.40303-1.6539-0.89949-2.3804-1.4786l2.3804-3.2475c0.51465 0.42882 1.0825 0.79991 1.6916 1.1055 1.4019 0.70837 2.9185 1.203 4.4912 1.4648 0.79492 0.13676 1.6017 0.20613 2.4103 0.20728 0.83539 0.009872 1.6692-0.068954 2.4851-0.23492 0.71167-0.14328 1.3939-0.39052 2.0211-0.73239 0.54199-0.29443 1.0071-0.69548 1.3623-1.1746 0.3418-0.46921 0.51941-1.0239 0.50897-1.5892 0.021179-0.95648-0.56378-1.8365-1.4971-2.2525-1.4727-0.63287-3.053-1.0256-4.6708-1.1608l-2.1259-0.27638c-1.0177-0.13043-2.02-0.34786-2.9941-0.64948-0.93555-0.28438-1.8114-0.71437-2.5899-1.2713-0.77008-0.55325-1.3987-1.2563-1.8414-2.059-0.50549-0.92508-0.76221-1.9489-0.74854-2.9849-0.022583-1.1674 0.27075-2.3216 0.85327-3.358 0.56152-0.97551 1.3548-1.8212 2.3205-2.4736 1.0345-0.69282 2.1958-1.2078 3.4283-1.5201 1.3633-0.3573 2.7747-0.5341 4.1918-0.5251 1.8322-0.021973 3.6564 0.22525 5.4044 0.73239 1.5868 0.47481 3.0974 1.1441 4.4912 1.9899l-2.2007 3.3028zm14.896 1.9347c1.2296-0.010422 2.4481 0.21547 3.578 0.6633 1.0622 0.42429 2.0122 1.056 2.7845 1.8517 0.7973 0.83726 1.4123 1.8085 1.8115 2.8605 0.45111 1.185 0.67401 2.4337 0.65875 3.6897v0.71858 0.69095h-13.893c0.1001 0.70387 0.34387 1.3838 0.71863 2.0038 0.32324 0.53235 0.75537 1.0017 1.2725 1.3819 0.49542 0.3566 1.0592 0.62382 1.6617 0.78769 0.62219 0.16875 1.2678 0.25255 1.9163 0.24873 0.96173-0.006836 1.9146-0.17058 2.8145-0.48366 0.93988-0.32587 1.8149-0.79277 2.5899-1.3819l2.021 2.6947c-1.0576 0.85667-2.2963 1.5013-3.6378 1.8932-1.3158 0.36481-2.6832 0.54646-4.057 0.53894-1.3207 0.013062-2.6317-0.2074-3.8625-0.64949-1.1248-0.41525-2.1442-1.041-2.9941-1.8379-0.8653-0.8176-1.5381-1.7915-1.9762-2.8605-0.48346-1.1926-0.72205-2.4579-0.70361-3.7311-0.014343-1.2582 0.21899-2.5084 0.68866-3.6897 0.42267-1.0674 1.0745-2.045 1.9163-2.8743 0.84357-0.80731 1.8644-1.4387 2.9941-1.8517 1.173-0.44603 2.4292-0.67607 3.6978-0.67714v0.01384zm-0.07489 3.358c-0.66357-0.011734-1.3237 0.091385-1.9462 0.30403-0.56006 0.18932-1.0703 0.48604-1.4971 0.87058-0.42224 0.40077-0.76208 0.869-1.0031 1.3819-0.27039 0.54451-0.45691 1.1213-0.55389 1.7136h9.701c-0.11584-1.1682-0.64148-2.2695-1.4971-3.1369-0.85516-0.77632-2.0202-1.1915-3.2187-1.147l0.014954 0.013824zm21.693-3.358c1.3441-0.011688 2.6774 0.22316 3.9224 0.69095 1.1619 0.4558 2.1885 1.1618 2.9941 2.059l-2.6199 2.5703c-0.60236-0.56162-1.3003-1.0284-2.066-1.3819-0.76239-0.31448-1.5904-0.47017-2.4252-0.45604-0.75073-0.007233-1.495 0.12923-2.1858 0.40076-0.65845 0.2854-1.2449 0.69495-1.7216 1.2022-0.50958 0.50383-0.90637 1.0955-1.1677 1.7412-0.56079 1.4523-0.56079 3.0389 0 4.4912 0.25952 0.65059 0.65649 1.2471 1.1677 1.755 0.49292 0.48517 1.0893 0.87099 1.7516 1.1331 0.69074 0.27152 1.4349 0.40797 2.1857 0.40076 0.88171 0.00145 1.7522-0.18288 2.545-0.53894 0.75684-0.32669 1.4539-0.76028 2.0659-1.2852l2.53 2.6671c-0.84033 0.89848-1.8964 1.6035-3.0839 2.059-1.2392 0.46954-2.5679 0.7045-3.9073 0.69095-1.3836 0.01828-2.7574-0.21657-4.0421-0.69095-2.3593-0.87073-4.2087-2.623-5.0901-4.8228-0.93835-2.3265-0.93835-4.887 0-7.2135 0.88184-2.1758 2.712-3.9104 5.0452-4.7814 1.2976-0.48453 2.6873-0.72417 4.087-0.70479l0.014954 0.01384zm27.92 10.392c0.034546 1.2156-0.22095 2.4234-0.74847 3.5377-0.44818 0.92844-1.1127 1.7542-1.9462 2.4183-0.81226 0.62898-1.7545 1.0991-2.7695 1.3819-2.088 0.59009-4.3195 0.59009-6.4075 0-1.0193-0.2832-1.9664-0.7532-2.7845-1.3819-0.83874-0.65965-1.5043-1.4866-1.9462-2.4183-0.51782-1.1167-0.76807-2.3234-0.73358-3.5377v-9.9497h4.102v9.6733c-0.020813 0.71796 0.095703 1.4337 0.3443 2.1143 0.20734 0.52248 0.53998 0.99489 0.97308 1.3819 0.42456 0.36815 0.93762 0.63809 1.4971 0.78767 1.1719 0.3242 2.421 0.3242 3.593 0 0.55945-0.14958 1.0725-0.41952 1.497-0.78767 0.4331-0.38701 0.76581-0.85942 0.97308-1.3819 0.25397-0.67969 0.37561-1.3955 0.35931-2.1143v-9.6733h4.102l-0.10486 9.9497zm14.896-10.392c0.56665-0.002213 1.1326 0.039383 1.6916 0.12436 0.51184 0.075607 1.0136 0.20065 1.4971 0.37312l-0.97302 3.7311c-0.47351-0.21889-0.97723-0.37697-1.4971-0.46985-0.52655-0.10506-1.0632-0.1606-1.6019-0.16582-0.6145-0.007004-1.2246 0.096252-1.7965 0.304-0.53686 0.19685-1.0181 0.50403-1.4072 0.89824-0.40808 0.42658-0.71863 0.92479-0.91321 1.4648-0.22992 0.63205-0.34131 1.2957-0.32935 1.9623v9.4936h-4.1619v-17.274h4.0421v1.9485c0.57642-0.79392 1.3795-1.4252 2.3204-1.8241 0.98108-0.3969 2.0429-0.59482 3.1139-0.58041l0.015015 0.01384zm13.698 0c1.2296-0.010422 2.4481 0.21547 3.578 0.6633 1.0623 0.42429 2.0122 1.056 2.7845 1.8517 0.82373 0.83164 1.4644 1.8032 1.8863 2.8605 0.45081 1.1851 0.67377 2.4337 0.65875 3.6897v0.71858 0.69095h-13.983c0.10004 0.70387 0.34387 1.3838 0.71857 2.0038 0.32324 0.53235 0.75537 1.0017 1.2725 1.3819 0.49548 0.3566 1.0592 0.62382 1.6618 0.78769 0.62219 0.16875 1.2678 0.25255 1.9162 0.24873 0.96179-0.006836 1.9146-0.17058 2.8145-0.48366 0.93988-0.32587 1.8149-0.79277 2.5899-1.3819l2.036 2.6809c-1.0573 0.85701-2.2961 1.5017-3.6378 1.8932-1.3158 0.36484-2.6832 0.54648-4.0571 0.53896-1.3206 0.013062-2.6317-0.20738-3.8625-0.64949-1.1248-0.41524-2.1442-1.041-2.9941-1.8379-0.86523-0.81758-1.538-1.7915-1.9761-2.8605-0.48346-1.1926-0.72211-2.4579-0.70361-3.7311-0.014343-1.2582 0.21899-2.5084 0.6886-3.6897 0.41382-1.0651 1.0553-2.0426 1.8864-2.8743 0.84357-0.80731 1.8644-1.4387 2.9941-1.8518 1.1786-0.44308 2.4401-0.66844 3.7128-0.66332l0.014893 0.01384zm-0.074829 3.358c-0.66357-0.011734-1.3237 0.091385-1.9462 0.30403-0.56006 0.18932-1.0703 0.48604-1.4971 0.87058-0.42224 0.40077-0.76215 0.869-1.0031 1.3819-0.27026 0.54459-0.45666 1.1214-0.55389 1.7136h9.7309c-0.11584-1.1682-0.64148-2.2695-1.4971-3.1369-0.86237-0.78351-2.0399-1.1992-3.2486-1.147l0.014954 0.013824zm26.513-11.401c1.1837-0.003693 2.364 0.11684 3.5181 0.35931 1.0955 0.22972 2.1562 0.58241 3.1588 1.0502 0.95862 0.44804 1.8495 1.0102 2.6498 1.6721 0.78046 0.64032 1.4517 1.3857 1.9911 2.211l-3.6827 2.2663c-0.82153-1.1178-1.9265-2.0333-3.2188-2.6671-1.3837-0.6695-2.9294-1.0024-4.4912-0.96733-1.322-0.012833-2.634 0.21248-3.8625 0.66333-1.1259 0.43234-2.1446 1.0718-2.9941 1.8794-0.87793 0.83228-1.5653 1.8192-2.0211 2.902-0.97723 2.4056-0.97723 5.0566 0 7.4622 0.45575 1.0828 1.1431 2.0697 2.0211 2.902 0.84949 0.80757 1.8682 1.447 2.9941 1.8794 1.2285 0.45085 2.5405 0.67615 3.8625 0.66332 3.0402 0.061569 5.9077-1.3009 7.6201-3.6206l3.593 2.4322c-0.58441 0.79007-1.279 1.5056-2.066 2.1281-0.77228 0.64603-1.6269 1.2029-2.545 1.6583-0.97986 0.4538-2.0153 0.79713-3.0839 1.0226-3.075 0.62793-6.2822 0.40684-9.222-0.63568-3.4299-1.2387-6.1434-3.7435-7.4854-6.9095-1.4038-3.3618-1.4038-7.0853 0-10.447 1.342-3.166 4.0555-5.6708 7.4854-6.9095 1.8384-0.67366 3.8008-1.0116 5.7787-0.99498zm24.103 7.9874c1.3735-0.014633 2.7368 0.22014 4.0121 0.69095 1.1876 0.43738 2.2709 1.0853 3.1888 1.907 0.9043 0.81853 1.622 1.7958 2.1108 2.8744 1.0154 2.3132 1.0154 4.9003 0 7.2135-0.48883 1.0785-1.2065 2.0558-2.1108 2.8744-0.91785 0.82178-2.0012 1.4696-3.1888 1.907-2.5808 0.9256-5.4435 0.9256-8.0243 0-1.1891-0.43478-2.2729-1.083-3.1888-1.907-0.91272-0.79945-1.6453-1.7575-2.1558-2.8191-1.0154-2.3132-1.0154-4.9003 0-7.2135 0.48578-1.0766 1.1982-2.0536 2.0959-2.8744 0.91589-0.82404 1.9997-1.4722 3.1888-1.907 1.2977-0.48453 2.6873-0.72417 4.087-0.70479l-0.014954-0.041443zm0 3.5515c-0.79443-0.00766-1.5828 0.12846-2.3204 0.40076-0.69629 0.25653-1.3281 0.6422-1.8564 1.1332-0.52948 0.50006-0.94666 1.0918-1.2276 1.7412-0.59894 1.446-0.59894 3.0452 0 4.4912 0.28094 0.64938 0.69812 1.2411 1.2276 1.7412 0.52881 0.49034 1.1605 0.87593 1.8564 1.1331 1.4918 0.53937 3.1491 0.53937 4.6409 0 1.4139-0.51163 2.5392-1.5353 3.1139-2.8329 0.599-1.446 0.599-3.0452 0-4.4912-0.2832-0.65157-0.70581-1.2438-1.2425-1.7412-0.53485-0.49013-1.1713-0.87555-1.8714-1.1331-0.73297-0.27054-1.5161-0.40665-2.3055-0.40076l-0.014954-0.041473zm22.351-3.5515c2.2915-0.081833 4.484 0.86574 5.8834 2.5427v-10.779h4.0872v25.994h-4.0872v-2.0729c-0.65259 0.76946-1.4805 1.3969-2.4252 1.8379-1.0763 0.48212-2.2623 0.71907-3.4583 0.69096-2.4966 0.022003-4.8938-0.90205-6.632-2.5565-0.86792-0.83952-1.545-1.8309-1.9912-2.9158-0.96222-2.351-0.96222-4.9454 0-7.2964 0.45184-1.0699 1.1285-2.0468 1.9912-2.8743 1.7382-1.6544 4.1353-2.5785 6.632-2.5565v-0.013809zm0.49402 3.5515c-0.81378-0.011734-1.6207 0.13913-2.3654 0.44223-0.67194 0.27852-1.2736 0.68326-1.7665 1.1884-0.4892 0.51308-0.86548 1.1092-1.1078 1.755-0.52014 1.3876-0.52014 2.8963 0 4.2839 0.24231 0.64584 0.61859 1.2419 1.1078 1.755 0.49298 0.50516 1.0946 0.9099 1.7665 1.1884 1.4948 0.57425 3.1761 0.57425 4.6709 0 0.67432-0.2691 1.2809-0.66435 1.7814-1.1608 0.48755-0.47752 0.87354-1.0354 1.1379-1.6445 0.54688-1.4213 0.54688-2.9731 0-4.3944-0.25732-0.64439-0.64893-1.2359-1.1528-1.7412-0.50134-0.49553-1.1077-0.89064-1.7815-1.1608-0.71948-0.30263-1.4998-0.46268-2.2905-0.46985v-0.041473zm23.055-3.5515c1.2295-0.010818 2.4481 0.21509 3.5779 0.66332 1.0625 0.42389 2.0126 1.0557 2.7847 1.8517 0.79712 0.83728 1.4121 1.8085 1.8113 2.8605 0.45142 1.1849 0.67432 2.4337 0.65869 3.6897v0.7186 0.69095h-13.818c0.0979 0.70432 0.34192 1.3846 0.71863 2.0038 0.32288 0.53255 0.75513 1.0019 1.2726 1.3819 0.49512 0.35686 1.059 0.6241 1.6616 0.78767 0.62231 0.16855 1.2678 0.25235 1.9163 0.24875 0.96167-0.006851 1.9146-0.17061 2.8145-0.48367 0.93982-0.3261 1.8149-0.793 2.59-1.3819l2.036 2.6809c-1.0579 0.85635-2.2965 1.501-3.6379 1.8932-1.3157 0.36504-2.6831 0.54668-4.0569 0.53896-1.3207 0.013062-2.6317-0.20741-3.8625-0.64951-1.1248-0.41524-2.1443-1.041-2.9941-1.8379-0.86523-0.8176-1.538-1.7915-1.9761-2.8606-0.48352-1.1926-0.72205-2.4579-0.70361-3.7311-0.014404-1.2582 0.21899-2.5084 0.68872-3.6897 0.42297-1.0672 1.0747-2.0448 1.9161-2.8743 0.84363-0.80731 1.8645-1.4387 2.9943-1.8518 1.15-0.41159 2.3743-0.61795 3.6079-0.60803v-0.041443zm10.794 17.716v-0.82913h0.37415v-0.17964h-0.97302v0.17964h0.41919v0.8706l0.17969-0.041473zm1.8713 0v-1.0502h-0.29944l-0.34424 0.71858-0.34448-0.71858h-0.29932v1.0502h0.20947v-0.78767l0.31445 0.67712h0.2096l0.31433-0.67712v0.78767h0.23962zm-12.74-14.358c-0.66357-0.011734-1.3237 0.09137-1.946 0.30402-0.56018 0.18933-1.0703 0.48605-1.4971 0.87059-0.42236 0.40077-0.76221 0.869-1.0032 1.3819-0.27002 0.54463-0.45654 1.1214-0.55396 1.7136h9.701c-0.10632-1.1827-0.63257-2.3-1.4971-3.1784-0.86877-0.73753-2.0255-1.1167-3.2037-1.0502v-0.041443z" fill="#F79E1B" fill-rule="nonzero"/>
<path d="m803.51 47.774h-4.5811v-21.53l-8.2788 18.946h-4.8206l-8.2488-18.739v21.323h-4.611v-26.159h7.0213l8.2488 18.697 8.2339-18.697h7.0212l0.015015 26.159zm24.103 0h-4.2367v-2.1419c-0.6767 0.79826-1.5354 1.4493-2.5151 1.907-1.1147 0.49498-2.3415 0.73662-3.578 0.70479-2.5927 0.025436-5.0828-0.93393-6.8865-2.6533-0.8952-0.85944-1.5974-1.8739-2.0659-2.9849-0.99915-2.44-0.99915-5.1328 0-7.5728 0.46893-1.1108 1.171-2.1252 2.0659-2.9849 1.8037-1.7193 4.2938-2.6787 6.8865-2.6532 1.238-0.030258 2.4656 0.21626 3.578 0.71858 0.97937 0.46432 1.8376 1.1198 2.5151 1.9209v-2.1558h4.2367v17.896zm-9.8358-14.69c-0.84442-0.013275-1.6821 0.1423-2.4552 0.45602-0.69458 0.28867-1.3166 0.7075-1.8265 1.2299-0.50763 0.534-0.89905 1.1533-1.1527 1.8241-0.54065 1.4412-0.54065 3.0085 0 4.4497 0.2561 0.67274 0.65283 1.2925 1.1677 1.8241 0.50928 0.523 1.1314 0.94192 1.8264 1.2299 1.5518 0.59883 3.2987 0.59883 4.8505 0 0.69659-0.27992 1.3234-0.68915 1.8414-1.2022 0.5221-0.5264 0.92883-1.1411 1.1976-1.8103 0.56628-1.4752 0.56628-3.0851 0-4.5603-0.2688-0.66916-0.67554-1.2839-1.1976-1.8103-0.51856-0.5125-1.1451-0.92165-1.8414-1.2023-0.76135-0.29924-1.5831-0.44528-2.4103-0.42839zm29.253 1.2713c-0.35425-0.18796-0.71912-0.35863-1.0928-0.51131-0.48694-0.19539-0.987-0.36156-1.4971-0.49747-0.55078-0.1537-1.1106-0.27828-1.6768-0.37312-0.59253-0.10091-1.1939-0.15178-1.7965-0.15201-0.94666-0.049881-1.8884 0.15665-2.7097 0.59422-0.59595 0.32088-0.96112 0.91086-0.95807 1.5477-0.010925 0.2812 0.078491 0.55792 0.25446 0.78769 0.17804 0.22031 0.40857 0.39995 0.67364 0.52512 0.3222 0.15117 0.66443 0.26266 1.0181 0.33165 0.38922 0.082916 0.80835 0.15662 1.2575 0.2211l2.006 0.2764c1.7834 0.1705 3.4896 0.76048 4.9553 1.7135 1.2307 0.84326 1.931 2.193 1.8713 3.6068 0.008728 0.82063-0.19666 1.6311-0.59882 2.363-0.42059 0.7067-1.0092 1.3162-1.7216 1.7827-0.83582 0.55368-1.7745 0.96117-2.7696 1.2022-1.2204 0.30037-2.4798 0.4445-3.7427 0.42839-0.49902 0-1.0779-0.027634-1.7366-0.082916-0.71143-0.062408-1.417-0.17325-2.1108-0.33165-0.77728-0.17966-1.5381-0.41531-2.2755-0.70477-0.78247-0.30765-1.5215-0.70209-2.2007-1.1746l1.9611-2.9296c0.36163 0.25835 0.74176 0.4938 1.1378 0.70476 0.44373 0.23267 0.90979 0.42696 1.3923 0.5804 0.56067 0.17775 1.1366 0.3118 1.7216 0.40076 0.70776 0.10625 1.4239 0.1571 2.1409 0.15201 1.1344 0.059158 2.2667-0.14513 3.2935-0.59421 0.67395-0.28662 1.1104-0.90434 1.1228-1.5892-0.010376-0.52144-0.31757-0.99928-0.80841-1.2575-0.78394-0.40245-1.6512-0.64734-2.545-0.71858l-2.021-0.24875c-1.7839-0.13348-3.4885-0.73792-4.9104-1.7412-1.1156-0.86974-1.7388-2.1628-1.6916-3.51-0.012207-0.83112 0.18237-1.6537 0.56885-2.4045 0.3706-0.71228 0.91974-1.3328 1.6019-1.8103 0.75592-0.51698 1.6085-0.90112 2.5151-1.1332 1.0864-0.27985 2.2106-0.4148 3.3384-0.40076 1.4545-0.007645 2.9039 0.15959 4.3116 0.4975 1.2534 0.2872 2.4506 0.75346 3.548 1.3819l-1.8265 3.0678zm20.091-0.93968h-7.4854v7.7939c-0.001038 0.52707 0.095215 1.0505 0.28442 1.5477 0.13763 0.38463 0.36218 0.7379 0.65869 1.0364 0.2691 0.26613 0.60254 0.46976 0.97314 0.59421 0.38867 0.13004 0.79919 0.19553 1.2126 0.19347 0.69177-0.00502 1.3767-0.1268 2.021-0.35928 0.65832-0.2265 1.2903-0.51355 1.8864-0.85678l1.6766 3.1231c-0.82446 0.50888-1.7083 0.93071-2.6348 1.2575-1.0582 0.36226-2.1801 0.54031-3.3085 0.52512-1.8863 0.10126-3.7357-0.51266-5.12-1.6997-1.3611-1.4584-2.0301-3.3606-1.8563-5.2789v-7.863h-3.8475v-3.5515h3.8475v-5.417h4.2516v5.417h7.4854l-0.044922 3.5377zm13.024-4.0213c1.2751-0.014847 2.5396 0.21576 3.7127 0.67712 1.1024 0.43965 2.0883 1.095 2.8894 1.9208 0.82953 0.8694 1.47 1.8781 1.8863 2.9711 0.46466 1.2299 0.69269 2.5254 0.67364 3.8279v0.74623 0.70476h-14.417c0.1051 0.72847 0.35913 1.4319 0.74854 2.0728 0.34045 0.53345 0.78748 1.0024 1.3174 1.3819 0.51367 0.36864 1.0976 0.64516 1.7216 0.81532 0.64624 0.177 1.317 0.26547 1.9911 0.26256 1.0223 0.002274 2.0367-0.16628 2.9941-0.49748 0.96899-0.32246 1.8742-0.78928 2.6797-1.3819l2.1108 2.7638c-1.0974 0.88742-2.3818 1.5555-3.7726 1.9623-1.3639 0.38071-2.7817 0.57167-4.2067 0.56657-1.3922 0.044739-2.7805-0.1618-4.087-0.60805-1.1805-0.42628-2.2515-1.0759-3.1438-1.907-0.89825-0.84927-1.5966-1.8608-2.051-2.9711-0.50256-1.2366-0.75134-2.5487-0.73352-3.8693-0.017822-1.3047 0.22058-2.6016 0.70361-3.8279 0.43945-1.1084 1.1166-2.1237 1.9911-2.9849 0.84216-0.82584 1.8619-1.4801 2.9941-1.9208 1.2676-0.47871 2.6277-0.71381 3.9971-0.69095v-0.013809zm-0.07489 3.4824c-0.68927-0.011703-1.3748 0.096115-2.021 0.31784-0.56195 0.20523-1.0717 0.51578-1.4971 0.91206-0.43506 0.39986-0.7898 0.86772-1.048 1.3819-0.29688 0.57338-0.50354 1.183-0.61377 1.8103h10.06c-0.13452-1.2179-0.70325-2.3601-1.6168-3.2475-0.87085-0.78316-2.0483-1.207-3.2637-1.1746zm23.953-3.4824c0.58655-0.003418 1.1725 0.038177 1.7516 0.12437 0.51184 0.082184 1.0134 0.21181 1.4971 0.38693l-1.0181 3.8693c-0.47357-0.22179-0.97699-0.38443-1.497-0.48366-0.54657-0.10625-1.1033-0.16179-1.6617-0.16583-0.63525-0.005554-1.2656 0.10237-1.8564 0.31782-0.57129 0.20164-1.0839 0.52338-1.4971 0.93971-0.42706 0.44191-0.75293 0.95897-0.95813 1.5201-0.23883 0.65418-0.35535 1.3411-0.3443 2.0314v9.8529h-4.2368v-17.965h4.1918v2.0176c0.59314-0.8028 1.4105-1.4426 2.3654-1.8517 1.0156-0.40349 2.1132-0.60138 3.2187-0.58041l0.044922-0.013809zm14.477 0c1.3956-0.013168 2.7801 0.23114 4.072 0.71858 1.2307 0.4655 2.32 1.2007 3.1738 2.142l-2.7097 2.6671c-0.62824-0.56415-1.3511-1.0308-2.1409-1.3819-0.79053-0.32727-1.6486-0.49229-2.515-0.48366-0.77637-0.006821-1.546 0.13431-2.2606 0.41457-0.69067 0.26994-1.3127 0.67001-1.8264 1.1746-0.52423 0.5249-0.93115 1.1401-1.1976 1.8103-0.5838 1.5056-0.5838 3.1514 0 4.657 0.26678 0.67006 0.67377 1.2852 1.1976 1.8103 0.51392 0.50429 1.1359 0.90431 1.8264 1.1746 0.71466 0.28026 1.4843 0.42139 2.2606 0.41458 0.90002 0.007889 1.7903-0.17162 2.6049-0.52513 0.78748-0.35454 1.5099-0.82082 2.1409-1.3819l2.6049 2.6947c-0.87176 0.93539-1.9691 1.669-3.2037 2.142-1.2866 0.48779-2.6662 0.73216-4.0571 0.71858-1.4349 0.018646-2.8597-0.2256-4.1917-0.71858-2.4372-0.89664-4.3545-2.6966-5.2847-4.961-0.9729-2.4111-0.9729-5.065 0-7.4761 0.93018-2.2644 2.8475-4.0644 5.2847-4.961 1.3336-0.46289 2.7528-0.67889 4.1768-0.63568l0.044861-0.013809zm29.747 18.379h-4.2367v-2.1419c-0.67664 0.79826-1.5353 1.4493-2.5151 1.907-1.1147 0.49498-2.3414 0.73662-3.578 0.70479-2.5927 0.025436-5.0827-0.93393-6.8865-2.6533-0.8952-0.85944-1.5974-1.8739-2.066-2.9849-0.99902-2.44-0.99902-5.1328 0-7.5728 0.46899-1.1108 1.1711-2.1252 2.066-2.9849 1.8038-1.7193 4.2938-2.6787 6.8865-2.6532 1.238-0.030258 2.4656 0.21626 3.578 0.71858 0.97937 0.46432 1.8376 1.1198 2.5151 1.9209v-2.1558h4.2367v17.896zm-9.8207-14.69c-0.84448-0.013275-1.682 0.1423-2.4552 0.45602-0.69458 0.28867-1.3165 0.7075-1.8264 1.2299-0.50763 0.534-0.89905 1.1533-1.1528 1.8241-0.54065 1.4412-0.54065 3.0085 0 4.4497 0.25372 0.67075 0.64514 1.2901 1.1528 1.8241 0.50958 0.52269 1.1317 0.94157 1.8264 1.2299 1.5521 0.5973 3.2984 0.5973 4.8505 0 0.69641-0.28026 1.3231-0.68945 1.8414-1.2022 0.52399-0.52512 0.93085-1.1402 1.1976-1.8103 0.56879-1.4748 0.56879-3.0855 0-4.5603-0.26678-0.67007-0.67364-1.2852-1.1976-1.8103-0.51849-0.5125-1.1452-0.92165-1.8414-1.2023-0.75226-0.295-1.5631-0.44095-2.3804-0.42839h-0.014954zm25.884-3.6759c0.58667-0.003418 1.1725 0.038193 1.7516 0.12437 0.51184 0.082184 1.0134 0.21182 1.4971 0.38695l-1.0179 3.8693c-0.47363-0.22177-0.97705-0.38442-1.4971-0.48366-0.54663-0.10605-1.1033-0.16161-1.6619-0.16582-0.63525-0.005905-1.2656 0.10204-1.8563 0.31782-0.57129 0.20163-1.0839 0.52339-1.4969 0.9397-0.42725 0.44192-0.75305 0.95897-0.95825 1.5201-0.23877 0.65419-0.35522 1.3411-0.34424 2.0314v9.8529h-4.2368v-17.965h4.2368v2.0176c0.5946-0.81029 1.4177-1.4553 2.3804-1.8656 1.0157-0.40308 2.1132-0.60097 3.2186-0.58041h-0.015015zm13.893 0c1.238-0.030258 2.4656 0.21628 3.5779 0.71858 0.97925 0.46471 1.8374 1.1201 2.5151 1.9209v-11.18h4.2367v26.906h-4.2367v-2.1419c-0.67676 0.79826-1.5353 1.4493-2.5151 1.907-1.1146 0.49498-2.3414 0.73662-3.5779 0.70479-2.5928 0.025436-5.0828-0.93393-6.8865-2.6533-0.91113-0.85599-1.6287-1.8706-2.1108-2.9849-0.99927-2.44-0.99927-5.1328 0-7.5728 0.46887-1.1108 1.171-2.1252 2.0659-2.9849 1.8037-1.7193 4.2937-2.6787 6.8865-2.6532l0.044922 0.013809zm15.27 16.721c0.16919-0.003677 0.33716 0.024536 0.49414 0.082916 0.15064 0.058182 0.28809 0.14264 0.40418 0.24875 0.11389 0.10271 0.20544 0.22469 0.26941 0.35928 0.13159 0.2823 0.13159 0.60211 0 0.88442-0.064331 0.13443-0.15576 0.25635-0.26941 0.3593-0.1167 0.10558-0.25378 0.18996-0.40418 0.24875-0.15552 0.063873-0.32398 0.096832-0.49414 0.096725-0.50415 0.006561-0.96362-0.2654-1.1677-0.69095-0.13147-0.28232-0.13147-0.60211 0-0.88442 0.12805-0.27733 0.37048-0.49614 0.67371-0.60805 0.16077-0.064209 0.33386-0.097153 0.50903-0.096725h-0.015015zm0 2.0314c0.12866 0.001556 0.25623-0.021973 0.37427-0.069092 0.11206-0.046738 0.21362-0.11235 0.29944-0.19345 0.37097-0.34929 0.37097-0.90826 0-1.2575-0.085327-0.081635-0.18713-0.14732-0.29944-0.19348-0.12329-0.023453-0.25073-0.023453-0.37427 0-0.12354-0.022339-0.25073-0.022339-0.37427 0-0.26965 0.12074-0.46265 0.35103-0.52136 0.62234-0.058838 0.2713 0.023315 0.55237 0.22205 0.75957 0.085693 0.08136 0.18726 0.147 0.29932 0.19347 0.11841 0.067017 0.25134 0.10945 0.38928 0.12437l-0.015015 0.013809zm0-1.3819c0.12354-0.006302 0.2456 0.027969 0.34436 0.096741 0.0802 0.060867 0.12451 0.15303 0.11975 0.24873 0.005371 0.082123-0.027344 0.16249-0.089844 0.22112-0.07373 0.063782-0.1687 0.10274-0.26941 0.11055l0.37427 0.40074h-0.29944l-0.34424-0.40074h-0.10486v0.40074h-0.23962v-1.0641l0.50903-0.013809zm-0.28442 0.19347v0.27638h0.28442c0.04895 0.013062 0.10083 0.013062 0.14978 0 0.018677-0.034821 0.018677-0.075729 0-0.11055 0.021362-0.03421 0.021362-0.076355 0-0.11055-0.04895-0.012344-0.10071-0.012344-0.14978 0l-0.28442-0.055283zm-14.552-13.819c-0.84448-0.013275-1.682 0.1423-2.4551 0.45602-0.69458 0.28867-1.3166 0.7075-1.8264 1.2299-0.50781 0.53398-0.89917 1.1533-1.1528 1.8241-0.54077 1.4412-0.54077 3.0085 0 4.4497 0.25366 0.67076 0.64502 1.2901 1.1528 1.8241 0.50952 0.5227 1.1316 0.94159 1.8264 1.2299 1.552 0.59729 3.2983 0.59729 4.8505 0 0.69641-0.28027 1.3231-0.68947 1.8414-1.2023 0.5752-0.54887 1.019-1.2033 1.3024-1.9208 0.5675-1.475 0.5675-3.0853 0-4.5603-0.26672-0.67006-0.67371-1.2852-1.1976-1.8103-0.51856-0.51248-1.1453-0.92163-1.8413-1.2023-0.76489-0.28465-1.5864-0.41652-2.4104-0.38693l-0.089844 0.069092z" fill="#EB001B" fill-rule="nonzero"/>
<path d="m635.91 60.158l-9.0521 24.411-0.96552-4.9598c-2.2543-6.0822-7.1352-12.463-12.819-15.049l8.2813 31.346 9.7895-0.004761 14.558-35.744h-9.7923" fill="#1B548E"/>
<polyline points="643.67 95.943 649.45 60.124 658.7 60.124 652.91 95.943 643.67 95.943" fill="#1B548E"/>
<path d="m686.46 61.007c-1.8275-0.72226-4.7109-1.5072-8.288-1.5072-9.1489 0-15.576 4.8629-15.632 11.818-0.058899 5.1518 4.5959 8.0256 8.095 9.7372 3.6113 1.7515 4.8173 2.8757 4.8059 4.4429-0.035156 2.3996-2.889 3.4935-5.5414 3.4935-3.6968 0-5.6669-0.5398-8.6976-1.8722l-1.2012-0.57115-1.2944 8.0161c2.1639 0.99786 6.1583 1.8627 10.31 1.9073 9.7087 0 16.026-4.8078 16.101-12.232 0.03894-4.0865-2.4319-7.1798-7.7729-9.7334-3.2235-1.6602-5.2173-2.7607-5.1879-4.4438 0.002808-1.4863 1.6725-3.0791 5.2991-3.0791 3.0287-0.050369 5.2069 0.64433 6.9214 1.3771l0.82489 0.41054 1.2582-7.7643m23.72-0.84581h-7.1447c-2.2153 0-3.8755 0.63103-4.8534 2.9727l-13.729 32.82h9.7134s1.5881-4.4172 1.9473-5.3856c1.0596 0 10.494 0.021851 11.84 0.021851 0.28607 1.2487 1.1262 5.3637 1.1262 5.3637h8.5883l-7.4887-35.793zm-11.405 23.081c0.76782-2.0556 3.6844-10.012 3.6844-10.012-0.057007 0.096939 0.75836-2.0717 1.2297-3.4127l0.61584 3.0877s1.7771 8.5474 2.1478 10.337h-7.6778z" fill="#1B548E"/>
<path d="m618.46 60.14h-14.916l-0.087463 0.61678c11.597 2.966 19.249 10.249 22.435 18.862l-3.2416-16.462c-0.55688-2.2647-2.1801-2.9375-4.1901-3.0173" fill="#E89F3E"/>
<polyline points="575.57 51.485 569.67 51.485 562.86 20.818 569.38 19.728 574.04 43.728 585.89 20.045 592.15 20.045 575.57 51.485" fill="#1B548E"/>
<path d="m606.23 41.46h-14.064c-0.38391 4.2642 1.5975 6.125 4.9551 6.125 2.813 0 5.2877-1.0444 7.9506-2.7227l-0.020935 4.2642c-2.6115 1.6336-5.6298 2.6771-9.1689 2.6771-6.124 0-10.169-3.4935-8.9532-11.388 1.0957-7.1219 6.0233-11.431 11.74-11.431 6.5783 0 8.766 4.9446 7.8099 11.16-0.069397 0.45331-0.19958 0.99786-0.24805 1.3153zm-8.2766-8.7099c-2.1782 0-4.2129 1.723-5.1727 5.3077h8.7099c0.16064-3.4032-0.90662-5.3077-3.5372-5.3077zm17.444 6.0337l-1.934 12.566h-5.4435l3.3718-21.913h4.6282l0.002869 4.401c1.8427-2.5403 4.3488-4.6719 7.7786-4.8534l0.031372 5.3979c-3.4374 0.22714-6.5298 2.0413-8.4353 4.401m8.364 12.566l3.3727-21.913h5.4435l-3.3718 21.913h-5.4445zm6.7056-25.587c-1.8141 0-3.0705-1.2706-2.7911-3.0848 0.28607-1.8598 1.9406-3.1761 3.7548-3.1761 1.7695 0 3.0183 1.3162 2.7322 3.1761-0.27942 1.8142-1.9263 3.0848-3.6959 3.0848zm17.188-2.3141c-1.8608 0-2.9841 0.81633-3.2844 2.7683l-0.49609 3.2198h4.174l-0.003845 4.4457h-4.8543l-2.6885 17.467h-5.3979l2.6885-17.467h-3.1761l0.68426-4.4457h3.175l0.57971-3.7653c0.74701-4.8534 4.1112-6.6685 8.6025-6.6685 0.95319 0 1.665 0.091217 2.1962 0.1815l0.040894 4.4457c-0.53125-0.090286-1.3333-0.1815-2.24-0.1815m0.05896 27.901l3.3727-21.913h5.4436l-3.3718 21.913h-5.4445zm6.7056-25.587c-1.8142 0-3.0706-1.2706-2.7912-3.0848 0.28607-1.8598 1.9406-3.1761 3.7548-3.1761 1.7695 0 3.0192 1.3162 2.7332 3.1761-0.27936 1.8142-1.9272 3.0848-3.6968 3.0848zm23.218 15.697h-14.064c-0.38391 4.2642 1.5975 6.125 4.9551 6.125 2.813 0 5.2867-1.0444 7.9506-2.7227l-0.021851 4.2642c-2.6106 1.6336-5.6298 2.6771-9.1689 2.6771-6.124 0-10.168-3.4935-8.9532-11.388 1.0967-7.1219 6.0242-11.431 11.741-11.431 6.5782 0 8.7659 4.9446 7.8099 11.16-0.070313 0.45331-0.19952 0.99786-0.24799 1.3153zm-8.2775-8.7099c-2.1782 0-4.2128 1.723-5.1718 5.3077h8.7099c0.16058-3.4032-0.90759-5.3077-3.5381-5.3077zm24.403 18.6l0.013306-3.0401c-1.8294 1.8608-4.2119 3.4935-7.2521 3.4935-4.5826 0-7.732-3.4022-6.5945-10.798 1.2564-8.1654 6.3065-11.795 11.387-11.795 2.0879 0 3.7111 0.36304 4.956 0.81634l1.627-10.571 5.5766-0.86102-5.0406 32.755h-4.6729zm1.819-16.832c-1.2631-0.63579-2.2581-0.9532-4.1179-0.9532-2.8586 0-5.301 2.3141-6.0413 7.1238-0.65576 4.2632 0.8515 6.2599 3.2559 6.2599 1.9957 0 3.7197-1.1784 5.4502-2.9936l1.4531-9.4369zm19.531 17.038c-2.5774 0-4.6776-0.41341-6.6334-1.0995l3.5809-23.264 4.2233-0.65384-1.5491 10.069c1.2345-1.0995 2.9499-2.1991 5.0464-2.1991 3.5048 0 5.8522 2.6125 4.995 8.1786-0.94086 6.1164-4.7137 8.9693-9.6631 8.9693zm3.042-13.506c-1.3751 0-2.755 0.9285-3.9762 2.1668l-1.1585 7.5248c0.81256 0.30887 1.3752 0.44667 2.5432 0.44667 2.6115 0 4.4362-1.5804 5.0178-5.3609 0.49225-3.196-0.57019-4.7774-2.4263-4.7774zm16.336 14.193c-2.1069 4.0893-4.192 5.3609-7.3879 5.3609-0.72229 0-1.1234-0.069382-1.4854-0.17201l-0.026611-3.4022c0.52936 0.13782 1.0967 0.24043 1.8874 0.24043 1.2031 0 2.2495-0.5493 2.9508-1.7524l0.54645-1.0995-3.4963-16.357 4.381-0.54932 2.029 11.82 5.4939-11.58h4.0894l-8.9817 17.491" fill="#1B548E"/>
<g fill-rule="evenodd">
<use transform="matrix(.82494 0 0 .76769 .17506 4.0221)" x="16.758699" y="23.513041" fill="url(#c)" xlink:href="#a"/>
<use transform="matrix(.82494 0 0 .76769 .17506 4.0221)" x="16.758699" y="23.513041" fill="url(#b)" xlink:href="#a"/>
</g>
</g>
</g>
</svg>
