<svg xmlns="http://www.w3.org/2000/svg" width="12" height="14" viewBox="0 0 12 14">
    <path fill="#92B1DA" fill-rule="nonzero" d="M3.162 1.608V.594c0-.328.26-.594.581-.594H8.29c.32 0 .58.266.58.594v1.014h2.617c.283 0 .513.234.513.524 0 .29-.23.524-.513.524H.513A.519.519 0 0 1 0 2.132c0-.29.23-.524.513-.524h2.649zm6.957 2.072c0-.29.23-.525.512-.525.283 0 .513.235.513.525v8.538c0 .984-.78 1.782-1.743 1.782H2.632C1.67 14 .89 13.202.89 12.218V3.68c0-.29.23-.525.513-.525.283 0 .512.235.512.525v8.538c0 .405.322.733.718.733h6.769a.726.726 0 0 0 .718-.733V3.68zm-4.598.654c0-.29.23-.524.513-.524.283 0 .512.234.512.524v7.025c0 .29-.23.524-.512.524a.519.519 0 0 1-.513-.524V4.334zm-2.359.402c0-.29.23-.524.513-.524.283 0 .513.234.513.524v6.274c0 .29-.23.524-.513.524a.519.519 0 0 1-.513-.524V4.736zm4.717 0c0-.29.23-.524.513-.524.283 0 .513.234.513.524v6.274c0 .29-.23.524-.513.524a.519.519 0 0 1-.513-.524V4.736z"/>
</svg>
