<svg xmlns="http://www.w3.org/2000/svg" xmlns:xlink="http://www.w3.org/1999/xlink" version="1.1" style="" xml:space="preserve" width="600" height="235"><rect id="backgroundrect" width="100%" height="100%" x="0" y="0" fill="none" stroke="none"/>
<style type="text/css">
	.st0{enable-background:new    ;}
	.st1{fill:#225E63;}
	.st2{fill:#FEFEFE;}
	.st3{fill:#2BBC5D;}
</style>

<g class="currentLayer" style=""><title>Layer 1</title><g id="Page-1" class="">
	<g id="svg_1">
		<g class="st0" id="svg_2">
			<path class="st1" d="M409.65005683898926,133.09999556541442 l6,1.8 c-0.4,1.7000000000000002 -1,3.1 -1.9,4.2 c-0.9,1.1 -1.9,2 -3.2,2.5 c-1.3,0.6000000000000005 -2.9,0.9 -4.9,0.9 c-2.4,0 -4.3,-0.30000000000000027 -5.9,-1 c-1.5,-0.7000000000000005 -2.8,-1.9 -3.9,-3.7 c-1.1,-1.7000000000000002 -1.7000000000000002,-4 -1.7000000000000002,-6.7 c0,-3.6 1,-6.4 2.9,-8.4 c1.9,-2 4.7,-2.9 8.2,-2.9 c2.8,0 4.9,0.6000000000000005 6.5,1.7000000000000002 c1.6,1.1 2.8,2.8 3.5,5.2 l-6,1.3 c-0.2,-0.7000000000000005 -0.4,-1.2 -0.7000000000000005,-1.5 c-0.4,-0.5 -0.8,-0.9 -1.4,-1.2 c-0.6000000000000005,-0.30000000000000027 -1.2,-0.4 -1.8,-0.4 c-1.5,0 -2.7,0.6000000000000005 -3.5,1.9 c-0.6000000000000005,0.9 -0.9,2.4 -0.9,4.3 c0,2.4 0.4,4.1 1.1,5 c0.7000000000000005,0.9 1.8,1.4 3.1,1.4 c1.3,0 2.3,-0.4 2.9,-1.1 C408.85005683898925,135.49999556541445 409.35005683898925,134.49999556541445 409.65005683898926,133.09999556541442 z" id="svg_3"/>
			<path class="st1" d="M418.05005683898924,131.09999556541442 c0,-3.6 1,-6.4 3,-8.4 c2,-2 4.8,-3 8.4,-3 c3.7,0 6.5,1 8.5,2.9 c2,2 3,4.7 3,8.3 c0,2.6 -0.4,4.7 -1.3,6.3 c-0.9,1.6 -2.1,2.9 -3.8,3.8 c-1.6,0.9 -3.7,1.4 -6.1,1.4 c-2.5,0 -4.5,-0.4 -6.2,-1.2 c-1.6,-0.8 -2.9,-2 -4,-3.8 S418.05005683898924,133.69999556541444 418.05005683898924,131.09999556541442 zM424.85005683898925,131.09999556541442 c0,2.2 0.4,3.8 1.2,4.8 c0.8,1 1.9,1.5 3.4,1.5 c1.5,0 2.6,-0.5 3.4,-1.4 c0.8,-1 1.2,-2.7 1.2,-5.1 c0,-2.1 -0.4,-3.6 -1.3,-4.5 c-0.8,-1 -2,-1.4 -3.4,-1.4 c-1.4,0 -2.5,0.5 -3.3,1.5 C425.2500568389893,127.2999955654144 424.85005683898925,128.89999556541443 424.85005683898925,131.09999556541442 z" id="svg_4"/>
			<path class="st1" d="M444.45005683898927,120.09999556541442 h8.9 l3.4,13.4 l3.4,-13.4 h8.9 v22 h-5.6 v-16.8 l-4.3,16.8 h-5 l-4.3,-16.8 v16.8 h-5.6 V120.09999556541442 z" id="svg_5"/>
			<path class="st1" d="M473.45005683898927,120.09999556541442 h11.3 c2.5,0 4.3,0.6000000000000005 5.5,1.8 c1.2,1.2 1.8,2.8 1.8,5 c0,2.2 -0.7000000000000005,4 -2,5.2 c-1.3,1.3 -3.4,1.9 -6.1,1.9 h-3.7 v8.2 h-6.8 V120.09999556541442 zM480.2500568389893,129.49999556541445 h1.7000000000000002 c1.3,0 2.2,-0.2 2.8,-0.7000000000000005 c0.5,-0.5 0.8,-1 0.8,-1.7000000000000002 c0,-0.7000000000000005 -0.2,-1.3 -0.7000000000000005,-1.8 c-0.5,-0.5 -1.3,-0.7000000000000005 -2.6,-0.7000000000000005 h-1.9 V129.49999556541445 z" id="svg_6"/>
			<path class="st1" d="M495.65005683898926,120.09999556541442 h6.8 v16.6 h10.6 v5.4 h-17.4 V120.09999556541442 z" id="svg_7"/>
			<path class="st1" d="M516.4500568389892,120.09999556541442 h6.8 v22 h-6.8 V120.09999556541442 z" id="svg_8"/>
			<path class="st1" d="M541.6500568389893,138.39999556541443 h-7.7 l-1.1,3.6 h-6.9 l8.3,-22 h7.4 l8.3,22 h-7.1 L541.6500568389893,138.39999556541443 zM540.2500568389893,133.69999556541444 l-2.4,-7.9 l-2.4,7.9 H540.2500568389893 z" id="svg_9"/>
			<path class="st1" d="M552.0500568389892,120.09999556541442 h6.3 l8.3,12.2 v-12.2 h6.4 v22 h-6.4 l-8.2,-12.1 v12.1 h-6.4 V120.09999556541442 z" id="svg_10"/>
			<path class="st1" d="M576.0500568389892,120.09999556541442 h20.7 v5.4 h-6.9 v16.6 h-6.8 v-16.6 h-6.9 V120.09999556541442 z" id="svg_11"/>
		</g>
		<g id="Rectangle-3-_x2B_-Letters">
			<path id="Rectangle-3" class="st1" d="M327.85005683898925,153.59999556541442 l19.7,-6.2 l-6.4,-14.2 C336.45005683898927,139.09999556541442 331.7500568389893,146.69999556541444 327.85005683898925,153.59999556541442 zM321.15005683898926,88.69999556541444 l-38.6,-86 l-282.6,16 l78.3,213.6 l150.7,-47.5 c-9.6,-13.8 -13.1,-30.2 -2,-38.2 c12.4,-9 31.1,1.4 43,16.1 C281.45005683898927,143.49999556541445 313.7500568389893,98.7999955654144 321.15005683898926,88.69999556541444 z"/>
			<g id="Letters">
				<path id="Oval-1" class="st2" d="M273.7458606719971,64.84964690208437 c11.8,0 21.4,-9 21.4,-20.2 c0,-11.2 -9.6,-20.2 -21.4,-20.2 c-11.8,0 -21.4,9 -21.4,20.2 C252.34586067199706,55.74964690208435 261.9458606719971,64.84964690208437 273.7458606719971,64.84964690208437 zM256.2458606719971,73.54964690208436 h35 v91.5 h-35 V73.54964690208436 z"/>
				<path id="Path-3" class="st2" d="M238.94586067199708,100.24964690208435 c0.3000000000000003,0.1 0.5,0 0.5,-0.3000000000000003 v-23.2 c0,-0.3000000000000003 -0.2,-0.6000000000000006 -0.5,-0.8 c0,0 -4.6,-3 -18.6,-3.8 c-0.7000000000000006,-0.4 -13,-0.5 -16.3,0 c-51,4.1 -52.9,41 -52.9,42.6 v9 c0,1.1 0,38.8 52.9,42.1 c5.2,0.4 15.3,0 16.3,0 c12.2,0 20.6,-3.7 20.6,-3.7 c0.3000000000000003,-0.1 0.5,-0.4 0.5,-0.7000000000000006 v-21.7 c0,-0.3000000000000003 -0.2,-0.4 -0.4,-0.2 c0,0 -3.8,3 -20.4,4.7 c-4.7,0.5 -7,0.3000000000000003 -8.7,0 c-23.6,-4 -24.7,-21.2 -24.7,-21.2 c0,-0.3000000000000003 -0.1,-0.8 -0.1,-1 v-6.6 c0,-0.3000000000000003 0,-0.8 0.1,-1 c0,0 1.6,-18.5 24.7,-20.5 h8.7 C230.74586067199706,95.24964690208435 238.94586067199708,100.24964690208435 238.94586067199708,100.24964690208435 z"/>
				<path id="Path-1" class="st2" d="M53.94586067199707,164.74964690208435 c0,0.3000000000000003 0.2,0.5 0.5,0.5 H88.54586067199708 c0.3000000000000003,0 0.5,-0.2 0.5,-0.5 v-26.6 c0,-0.3000000000000003 0.2,-0.5 0.5,-0.5 c0,0 54.5,3.9 54.5,-32.6 c0,-28.9 -34.2,-32 -45.4,-31.5 c-0.2,0 -44.2,0 -44.2,0 c-0.3000000000000003,0 -0.5,0.2 -0.5,0.5 L53.94586067199707,164.74964690208435 zM88.44586067199707,117.34964690208437 v-23.9 h8.4 c0,0 12.1,0.5 13.1,8.8 c0.2,0.6000000000000006 0.2,4.7 0,4.9 c-1.6,9.7 -12.1,10.2 -12.1,10.2 L88.44586067199707,117.34964690208437 z"/>
			</g>
			<path id="Path-7" class="st3" d="M274.7500568389893,209.19999556541444 c2.8,0 5,0 8.6,-1.6 c12.4,-6.5 54.3,-108.8 98.5,-140.3 c0.3000000000000003,-0.2 0.6000000000000006,-0.5 0.8,-0.8 c0.3000000000000003,-0.4 0.3000000000000003,-0.8 0.3000000000000003,-0.8 s0,-2.1 -6.5,-2.1 c-39.3,-1.1 -80.2,81.4 -101.7,114 c-0.3000000000000003,0.4 -1.7000000000000002,0 -1.7000000000000002,0 s-14.4,-17 -26.9,-23.5 c-0.3000000000000003,-0.1 -1.7000000000000002,-0.6000000000000006 -3.2,-0.5 c-1,0 -6.8,1.2 -9.5,4 c-3.2,3.4 -3.1,5.3 -3.1,9.4 c0,0.3000000000000003 0.2,1.7000000000000002 0.6000000000000006,2.4 c3.1,5.4 17,24.6 28.5,35.2 C261.15005683898926,205.89999556541443 263.85005683898925,209.19999556541444 274.7500568389893,209.19999556541444 z"/>
		</g>
		<g class="st0" id="svg_12">
			<path class="st1" d="M393.45005683898927,36.39999556541443 H426.15005683898926 c6.5,0 11.7,0.9 15.6,2.6 c4,1.8 7.3,4.3 9.8,7.5 c2.6,3.3 4.5,7.1 5.6,11.4 c1.2,4.3 1.8,8.9 1.8,13.8 c0,7.6 -0.9,13.5 -2.6,17.7 c-1.7000000000000002,4.2 -4.1,7.7 -7.2,10.6 c-3.1,2.8 -6.4,4.7 -9.9,5.7 c-4.8,1.3 -9.2,1.9 -13.1,1.9 h-32.7 V36.39999556541443 zM415.45005683898927,52.49999556541445 v38.9 h5.4 c4.6,0 7.9,-0.5 9.8,-1.5 s3.5,-2.8 4.6,-5.3 c1.1,-2.5 1.7000000000000002,-6.7 1.7000000000000002,-12.4 c0,-7.6 -1.2,-12.7 -3.7,-15.5 c-2.5,-2.8 -6.5,-4.2 -12.3,-4.2 H415.45005683898927 z" id="svg_13"/>
			<path class="st1" d="M465.05005683898924,84.09999556541442 l21,-1.3 c0.5,3.4 1.4,6 2.8,7.8 c2.3,2.9 5.5,4.3 9.7,4.3 c3.1,0 5.6,-0.7000000000000005 7.3,-2.2 c1.7000000000000002,-1.5 2.6,-3.2 2.6,-5.1 c0,-1.8 -0.8,-3.5 -2.4,-5 c-1.6,-1.5 -5.4,-2.8 -11.3,-4.1 c-9.7,-2.2 -16.5,-5.1 -20.7,-8.7 c-4.2,-3.6 -6.2,-8.2 -6.2,-13.8 c0,-3.7 1.1,-7.1 3.2,-10.4 c2.1,-3.3 5.3,-5.8 9.6,-7.7 c4.3,-1.9 10.1,-2.8 17.5,-2.8 c9.1,0 16.1,1.7000000000000002 20.8,5.1 c4.8,3.4 7.6,8.8 8.5,16.2 l-20.8,1.2 c-0.6000000000000005,-3.2 -1.7000000000000002,-5.5 -3.5,-7 c-1.8,-1.5 -4.2,-2.2 -7.3,-2.2 c-2.6,0 -4.5,0.5 -5.8,1.6 c-1.3,1.1 -1.9,2.4 -1.9,4 c0,1.1 0.5,2.2 1.6,3.1 c1,0.9 3.5,1.8 7.4,2.6 c9.6,2.1 16.5,4.2 20.7,6.3 c4.2,2.1 7.2,4.8 9.1,7.9 c1.9,3.1 2.8,6.7 2.8,10.6 c0,4.6 -1.3,8.8 -3.8,12.6 c-2.5,3.9 -6.1,6.8 -10.6,8.8 c-4.5,2 -10.3,3 -17.2,3 c-12.1,0 -20.5,-2.3 -25.2,-7 C468.35005683898925,97.19999556541444 465.7500568389893,91.2999955654144 465.05005683898924,84.09999556541442 z" id="svg_14"/>
		</g>
		<g class="st0" id="svg_15">
			<path class="st1" d="M535.3500568389893,84.09999556541442 l21,-1.3 c0.5,3.4 1.4,6 2.8,7.8 c2.3,2.9 5.5,4.3 9.7,4.3 c3.1,0 5.6,-0.7000000000000005 7.3,-2.2 c1.7000000000000002,-1.5 2.6,-3.2 2.6,-5.1 c0,-1.8 -0.8,-3.5 -2.4,-5 c-1.6,-1.5 -5.4,-2.8 -11.3,-4.1 c-9.7,-2.2 -16.5,-5.1 -20.7,-8.7 c-4.1,-3.6 -6.2,-8.2 -6.2,-13.8 c0,-3.7 1.1,-7.1 3.2,-10.4 c2.1,-3.3 5.3,-5.8 9.6,-7.7 c4.3,-1.9 10.1,-2.8 17.5,-2.8 c9.1,0 16.1,1.7000000000000002 20.8,5.1 c4.8,3.4 7.6,8.8 8.5,16.2 l-20.8,1.2 c-0.6000000000000005,-3.2 -1.7000000000000002,-5.5 -3.5,-7 c-1.8,-1.5 -4.2,-2.2 -7.3,-2.2 c-2.6,0 -4.5,0.5 -5.8,1.6 c-1.3,1.1 -1.9,2.4 -1.9,4 c0,1.1 0.5,2.2 1.6,3.1 c1,0.9 3.5,1.8 7.4,2.6 c9.6,2.1 16.5,4.2 20.7,6.3 c4.2,2.1 7.2,4.8 9.1,7.9 c1.9,3.1 2.8,6.7 2.8,10.6 c0,4.6 -1.3,8.8 -3.8,12.6 c-2.5,3.9 -6.1,6.8 -10.6,8.8 c-4.5,2 -10.3,3 -17.2,3 c-12.1,0 -20.5,-2.3 -25.2,-7 C538.5500568389892,97.19999556541444 535.9500568389892,91.2999955654144 535.3500568389893,84.09999556541442 z" id="svg_16"/>
		</g>
	</g>
</g></g></svg>